<?xml version="1.0" encoding="utf-8"?>
<!-- Generator: Adobe Illustrator 22.0.1, SVG Export Plug-In . SVG Version: 6.00 Build 0)  -->
<svg version="1.1" id="Layer_1" xmlns="http://www.w3.org/2000/svg" xmlns:xlink="http://www.w3.org/1999/xlink" x="0px" y="0px"
	 viewBox="0 0 283.5 281.2" style="enable-background:new 0 0 283.5 281.2;" xml:space="preserve">
<style type="text/css">
	.st0{fill:#231F20;}
	.st1{fill:#CF7BA1;stroke:#231F20;stroke-linecap:round;stroke-miterlimit:10;}
</style>
<symbol  id="Florid_Vector_Pack_07" viewBox="-323.2 -93 646.4 185.9">
	<g>
		<path class="st0" d="M-111-6.3c-5.4,0.4-10.3-2.7-13.7-6.4c-1.1-1.1-2-2.4-2.7-3.7c-6.7-1.4-13.3-2.1-19.6-1.9
			c-19-0.2-31.2,12.3-35.4,19.6c-5.2,7.1-10.8,21.7-16.5,39.3c-3.2,8.6-6.5,18.4-13.6,26c-7.5,7.1-17.8,11.2-27.9,11.6
			c-10.2,0.6-20.1-2.2-27.8-6.8C-275.8,67-282,59.2-280,51.9c1.3-7.4,7.8-10.2,11.5-10.7l0,0c-0.1,0-0.2,0-0.3,0
			c2.1-0.2,4.9-1,5.8-1.1c0.9-0.1,1.3,0.1,1.3,0.5c0,0.3-0.3,0.6-1.2,0.7c-0.8,0.1-3.1-0.1-5-0.1c-0.2,0-0.4,0.1-0.6,0.1
			c-3.7,0.6-10.1,3.4-11.3,10.6c-1.9,7.2,4.2,14.8,11.8,19.1c7.7,4.5,17.5,7.2,27.5,6.6c10-0.4,20.1-4.6,27.3-11.4
			c6.9-7.4,10.1-17.1,13.2-25.6c5.6-17.5,11.1-32.3,16.4-39.7c2.5-3.7,6.3-8.7,12.5-13c6.2-4.2,14.7-7,24-7.1
			c6.2-0.1,12.6,0.6,19.1,1.9c-1.4-2.7-2.5-5.5-4-8c-2.3-4.2-5.1-8.1-8.2-11.3c-6.2-6.6-13.6-10.7-20.2-12.9
			c-8.3-2.6-15-2.7-18.9-2.5c-1.9,0.2-4.1,0.7-4.8,0.8c-0.9,0-1.3-0.2-1.3-0.5s0.3-0.6,1.3-0.6c0.9,0,3.7,0.4,5.8,0.3
			c4-0.2,10.3,0.1,18,2.4c6.7,2.1,14.2,6.1,20.5,12.8c3.2,3.3,6,7.1,8.4,11.3c1.6,2.7,2.8,5.7,4.4,8.5c3,0.7,6,1.4,9,2.3
			c2.4,0.8,4.8,1.7,7.1,3.1c1.1,0.7,2.2,1.5,2.8,2.9C-107.8-7.2-109.9-6.4-111-6.3z M-109.1-8.8c-0.3-1-1.4-1.8-2.4-2.5
			c-2.1-1.3-4.5-2.2-6.9-3c-2.7-0.8-5.5-1.5-8.2-2.1c0.7,1.1,1.4,2.1,2.3,3c3.3,3.6,8,6.5,13,6.2C-110.1-7.2-108.8-7.8-109.1-8.8z"
			/>
		<path class="st0" d="M-124,5.6c0.7,0.6,0.8,1,0.6,1.3c-0.2,0.2-0.7,0.2-1.3-0.4c-0.2-0.2-0.6-0.6-1.1-1.1c0,0.1,0,0.1,0,0.1
			s0,0,0-0.1c-0.7-0.8-1.6-1.9-2.5-2.7c-1.4-1-3.4-1.9-6.3-2.1c-6.6-1-14.8,3.1-23.3,6.6c-16.9,7.8-36.9,14.3-45.3,14.3
			c-8.2,1.7-29.6-1.8-45.5-12C-260,3.1-268.3-5.2-272.5-9.9l0.1,0.1c-0.1-0.1-0.2-0.2-0.3-0.3c-0.2-0.3-0.4-0.5-0.6-0.7
			c-1.2-1.4-2.7-2.7-3.1-3.3c-0.5-0.7-0.6-1.2-0.3-1.4c0.3-0.2,0.7,0,1.2,0.7c0.5,0.6,1.5,2.7,2.6,4.3c4,4.5,12.7,13,24.4,19.3
			c16,9.8,37,12.8,45,11.2c8.2,0,28.1-6,45.2-13.6c8.6-3.3,17-7.3,23.7-6.2c2.5,0.3,4.4,1,5.8,1.9l0,0c0,0,0.1,0,0.1,0.1
			c0.5,0.3,0.9,0.7,1.3,1C-126.1,4.3-124.5,5.2-124,5.6z"/>
		<path class="st0" d="M-80.8,7.1c-1.1-0.6-2.3-1.3-3.4-2c-1.9-0.9-4.4-2-5.7-2.3c-1.8-0.4-2.8-0.4-5.5,0c-1.8,0.6-3.8,1.5-4.5,1.7
			c-0.9,0.2-1.3,0.1-1.4-0.2s0.2-0.6,1.1-0.9c0.6-0.1,2-0.3,3.5-0.5c3.6-0.6,5.3-0.4,6.8-0.2c1.2,0.2,3,1,4.7,1.8
			c-5.2-3.6-10.2-8.5-16-13.2c-7.7-5.7-17.2-10.3-27.6-13c-20.5-6.2-45.3-1.2-58.5,13.7c-13.6,14.3-17.8,31.1-20.2,40
			c-2,8.5-7.5,26.8,4.7,43.2c5.7,7.8,14.9,14.1,25.3,16.3c10.4,2.4,22.2-0.4,29.8-8.1c7.7-7.4,11.7-18,10.7-27.6
			c-0.9-9.7-7.2-17-13.5-20.9c-6.3-3.8-11.3-4.5-15.7-3.9c-1.6,0.4-2.7,1.1-3.4,1.8c-1.5,2.6-1.5,4.8-1.8,5.6s-0.7,1.1-1,1
			s-0.4-0.6-0.1-1.4c0.3-0.8,1.7-4,2.9-5.2c0,0,0,0,0.1-0.1l0,0l0,0c0.7-0.7,1.8-1.4,3.4-1.8c4.4-0.7,9.5,0,15.8,3.7
			c6.3,3.8,12.9,11.1,13.9,20.9c1.1,9.7-2.8,20.5-10.5,28.1c-7.6,7.9-19.7,11-30.4,8.6c-10.8-2.1-20.2-8.5-26.1-16.4
			c-12.7-16.7-7.3-35.7-5.2-44.2c2.4-8.9,6.8-26,20.7-40.5c6.9-7.1,16.4-12.9,27.1-15.1c10.7-2.3,22.1-1.5,32.4,1.4
			c10.4,2.8,20,7.6,27.7,13.4c7.5,6.1,13.5,12.6,20.2,16.1c13,7.5,22.9,8.6,22.8,8.6C-57.8,15.5-67.7,14.6-80.8,7.1z"/>
		<path class="st0" d="M-19.5-7.9c-0.2,8.4-5.6,19.5-14.9,27.2c-9.4,8.1-23.4,9.4-34.1,7.2c-10.9-1.4-20.2-1.9-25.4-1.6
			c-4.4,0.3-13.2,0.5-20.6,6.2c2.6,3.2,4.9,7.5,6.6,12.5c1.5,4.4,3.7,12.8-3.1,15.5c-6.4,1.5-12.6-4.3-13.2-10.5
			c-0.8-6.4,2.7-12.1,6.4-16.1c0.8-0.8,1.6-1.5,2.4-2.2c-2.2-2.7-4.6-4.3-6.6-5.2c-2-0.5-4.5-0.8-5.3-1c-0.9-0.3-1.2-0.6-1.1-0.9
			s0.5-0.4,1.4-0.2c0.6,0.2,1.9,0.8,3.2,1.4c0.6,0.2,1.3,0.4,2.1,0.8c0.1,0,0.1,0,0.2,0.1h-0.1c1.9,0.9,4.2,2.4,6.4,5
			c7.7-6.1,16.7-6.3,21.2-6.6c5.3-0.3,14.7,0.3,25.6,1.8c10.7,2.3,24.1,1.2,33.6-6.6C-25.6,11.3-20,0.4-19.7-7.9
			c0.3-5.2-2.3-8.7-3.9-9.8c-1.5-1-4.3-1.5-5-1.9c-0.8-0.4-1-0.8-0.9-1.1c0.1-0.3,0.6-0.3,1.4,0.1c0.5,0.2,3.3,1.9,4.6,2.8
			C-21.6-16.2-19.2-13.1-19.5-7.9z M-123.2,24.6c0.3,0.1,0.5,0.2,0.8,0.3C-122.7,24.8-123,24.7-123.2,24.6z M-116.9,33.2
			c-3.6,3.8-7,9.3-6.4,15.2c0.5,5.7,6.2,11.3,12.1,10.1c6.1-2.1,4.5-10.2,3-14.7c-1.6-5-3.8-9.3-6.4-12.5
			C-115.4,31.8-116.2,32.5-116.9,33.2z"/>
		<path class="st0" d="M-0.3-1.8C-1.2-1.9-3.9-2.4-6-2.7c-0.9,0.1-2.1,0.3-3.5,0.8c-3.3,1.2-7.2,4.4-11.9,8.3S-31.8,15-39.2,17.9
			c-7.4,3.1-16.4,3.6-25,1.4c-8.6-2-17.3-4.7-25.8-6.8c-5.6-1.8-11.8-1.1-16.6,1.3c0.4,1.5,0.7,3.1,0.6,4.8c-0.1,2-1.8,4.3-4.2,4.2
			c-2.2,0.4-4.9-2.3-3.5-4.7c1.5-2,3.4-3.6,5.6-4.8c-0.5-1.5-1.2-2.9-1.9-4.2c-2.9-5.6-6-9.9-8.7-12.6c-2.6-2.7-6.9-6-13-7.4
			c-6.2-1.3-13.6,0.1-20.9,3.5c-14.9,6-33.2,11.6-51,10.7c-8.6-0.6-18.1-3.2-21.9-10.7c-3.5-7.6,0-15.2,2.8-20.3
			c3.7-6.4,8-10.2,11-12c1.3-1.1,2.4-2.2,3-2.6c0.8-0.5,1.2-0.5,1.4-0.2s0,0.7-0.7,1.2c-0.1,0.1-0.2,0.1-0.3,0.2c0,0,0.1,0,0.1,0.1
			c0,0,0-0.1-0.1-0.1c-1,0.6-3,1.4-3.8,1.8c-2.9,1.9-6.8,5.5-10.3,11.7c-2.8,5.1-6.1,12.7-2.7,20c3.7,7.2,13.1,9.8,21.5,10.2
			c17.6,0.8,35.7-4.9,50.4-11c7.3-3.4,15-5.1,21.6-3.8c6.5,1.4,11,4.9,13.8,7.6s6.1,7.2,9,12.9c0.6,1.3,1.3,2.7,1.9,4.3
			c5.1-2.5,11.4-2.9,17.1-1.2c8.6,2.2,17.2,5,25.8,7.1c8.5,2.2,17.4,1.8,24.7-1.1c7.2-2.6,13-7.3,17.7-11.1c4.7-3.9,8.7-7,12.1-8.2
			c1.7-0.6,3-0.8,4-0.8C-3.4-2.9-1-3-0.2-2.9c0.9,0,1.3,0.3,1.3,0.7C1-1.9,0.6-1.7-0.3-1.8z M-107.8,14.5c-1.9,1.1-3.6,2.5-4.8,4.1
			c-1.7,4,5.7,4,5.3,0.1C-107.2,17.2-107.4,15.8-107.8,14.5z"/>
		<path class="st0" d="M-4.3,7.8C-5.1,8.1-8,8.4-10,8.9c-3.6,1.2-12.5,5.1-18.2,13.7c-1.1,1.8-1.2,4-0.9,6.1c2.7,0.3,5.5,1.5,7,5.3
			c0.3,2-2.2,3.7-4,2.6c-1.7-0.9-2.5-2.6-3.1-4.2c-0.2-0.8-0.4-1.6-0.6-2.4c-1.9-0.1-3.8,0.2-4.8,0.3c-5.8,0.3-19.8,5.3-33.2,6.6
			c-9.6,0.4-18.1-2.1-22.1-3.6c-1.7-0.4-3.7-0.7-4.3-0.9c-0.9-0.3-1.1-0.7-1-1s0.6-0.4,1.4-0.1c0.7,0.3,2.8,1.4,4.7,2.2
			c4.3,1.3,12.3,3.3,21.3,2.7c13.1-1.7,27-7,33-7.3c0.9,0,2.8-0.4,4.8-0.3c-0.2-2.2,0-4.4,1.2-6.3c6.7-9.4,16.7-12.9,19.6-13.6
			C-7.4,8-5.4,7-4.6,6.8C-3.7,6.5-3.3,6.7-3.2,7C-3.1,7.2-3.4,7.6-4.3,7.8z M-28.3,32c0.5,3.3,4.9,5.4,5,2.1c-1-2.7-3.3-3.7-5.5-4
			C-28.7,30.7-28.5,31.4-28.3,32z"/>
		<path class="st0" d="M12.9-13.2c-0.4-0.7-1-1.4-1.6-2.1c-1.1-0.9-2.7-1.7-5.1-1.8C0.1-18.2-5.6-11-12.5-4.5
			c-6.9,6.6-15.9,15.1-28.7,17c-12.8,2-26.2-4.4-37.1-13.1c-10.6-9.2-20.7-19.7-34.2-24.6c-13-5.3-27.1-6.8-39.7-5.4
			c-25.8,2.7-43.7,17.7-50.7,27.3c-8.7,8.9-12.2,31.9-29.5,51.7c-16.2,21.5-53.9,24.6-75.8,5.8c-25.4-16.9-15.4-57.8,5.9-59.9
			c9.8-2,17.8,1.6,22.1,5.1c1.5,1.2,2.7,2.3,3.6,3.2c0,0,0,0-0.1-0.1l0.1,0.1c0.6,0.7,3.6,3.8,3.9,4.2c0.5,0.7,0.6,1.2,0.3,1.4
			c-0.3,0.2-0.7,0-1.2-0.7s-1.8-3.2-3-4.8c-0.9-1-2.2-2.1-3.8-3.3c-4.3-3.4-12.3-7-22-4.9c-21.1,2.1-30.7,42.6-5.7,59.1
			c21.7,18.5,58.7,15.2,74.5-5.8c17-19.4,20.5-42.4,29.3-51.7c7.1-9.9,25.4-25.2,51.6-27.8c12.8-1.4,27.1,0.2,40.2,5.6
			c13.6,4.9,23.9,15.8,34.4,24.9C-67.2,7.5-54,14-41.3,12.1c12.7-1.8,21.7-10.2,28.7-16.7C-5.7-11,0.1-18.2,6.3-17
			c2.5,0.2,4.2,1.1,5.2,2c2,1.3,3.4,3.4,3.9,4.1c0.5,0.7,0.5,1.2,0.3,1.4c-0.3,0.2-0.7,0-1.2-0.7C14.1-10.8,13.7-11.9,12.9-13.2"/>
		<path class="st0" d="M3.6-35.8c-0.2,0.5-1.3,2.2-1.5,3.1C1.5-29.8-2-26.9-7-26.2c-0.8,0.1-2.1,0.6-2.5,0.7c-0.9,0.1-1.3,0-1.4-0.4
			c-0.1-0.3,0.3-0.6,1.2-0.8c0.8-0.1,1.2,0.3,3.1,0c4.7-0.6,7.5-3,8.2-5.2c0.6-1.8,0.7-3.8,1-4.5c0.4-0.8,0.7-1.1,1-1
			C3.9-37.1,4-36.7,3.6-35.8z"/>
		<path class="st0" d="M38-39.2c-10.2,4-21,0.9-29.5-2.8c-3-1.3-5.5-3-7.9-4.8c-13.3,4.1-24.4,11.3-31.5,18.6
			c-5.1,5.1-7.6,10.9-7.3,15c0.1,1.5,0.4,2.7,0.7,3.6c1,1.8,2.7,3.8,3.1,4.5c0.4,0.8,0.4,1.2,0.1,1.4c-0.3,0.2-0.7-0.1-1.1-0.9
			c-0.3-0.6-2-4.6-2.1-5c-0.1-0.1-0.1-0.2,0-0.1c-0.3-0.9-0.6-2-0.7-3.5c-0.3-4.2,2.2-10,7.2-15.1c6.9-7.5,17.9-14.7,31.1-19
			c-3.8-2.9-7-6-10.7-7.8c-5.2,2.9-10.5,4.9-15.6,5.4c-3.7,0.2-7.8,0.6-10.2-2.8c-0.7-4.5,3.7-5.3,5.4-6.1
			c4.5-1.5,11.2-1.6,18.4,1.3c0.7,0.2,1.3,0.5,2,0.8c2.3-1.4,4.6-2.9,6.9-4.7C0.4-64,5-66.5,10.1-68.1C9.6-68.4,9-68.7,8.5-69
			c-2.4-1.8-4.9-3.4-7.4-4.6c-1.5,1.5-3.4,2.7-5.5,3.6c-1.9,0.9-4,1.5-6.3,1.6c-2,0.1-5.3-0.3-5.6-3.1c-0.4-2.5,1.5-5,4-5.4
			c2.4-0.6,5-0.1,7.4,0.4c2.1,0.5,4.1,1.3,6.1,2.2c1.1-1.1,2-2.3,2.5-3.6c2.3-6.7-0.4-13.7-4.3-15c-1.6-0.1-2.6,0.5-3.1,1.2
			c-1.6,3.4-0.2,4.5,0,5.9c0.1,0.9-0.2,1.3-0.6,1.3c-0.3,0-0.6-0.4-0.6-1.3c0-0.8-0.1-3.4,0.8-5.3c0.4-1,1.4-1.9,3.5-1.8
			c4,1.4,6.8,8.3,4.5,15.2c-0.6,1.4-1.4,2.6-2.5,3.7c2.5,1.2,5,2.8,7.2,4.4c0.7,0.4,1.5,0.9,2.3,1.3c4.4-1.3,9-1.9,13.8-1.6
			c2.3,0.3,6.2,1.5,5.7,5c-1.4,3.3-5.2,2.1-7.5,1.8c-4.1-0.9-8-2.4-11.7-4.3C6-65.8,1.1-63.2-3.1-60.3c-2.1,1.7-4.2,3.2-6.4,4.5
			c3.7,2,7,5.2,10.8,8.1c5.1-1.5,10.5-2.6,16.1-3.1c5.2-0.4,10.5-0.4,15.7,0.8c2.6,0.6,5.3,1.5,7.1,3.7C42.4-43.8,40.6-40.3,38-39.2
			z M-12.9-56c-6.8-2.7-13.3-2.6-17.4-1.3c-1.8,0.5-5.2,2-4.8,4.2c1,2.2,5.2,2.5,8.6,2.1c4.7-0.4,9.6-2.1,14.5-4.7
			C-12.3-55.8-12.6-55.9-12.9-56z M-4.9-75.9c-4.2-1.4-11.4-1.3-10.9,4.2c1.5,4.7,8,2.6,11.2,1.3c2-0.9,3.9-2.1,5.4-3.5
			C-1-74.7-2.9-75.4-4.9-75.9z M-3.7-91.5c0,0.1-0.1,0.1-0.1,0.2C-3.8-91.4-3.7-91.5-3.7-91.5z M23.1-63.9c2.3,0.4,5.8,1,6.6-1.1
			c0.5-2.4-2.5-3.7-4.9-4c-4.2-0.4-8.4,0.2-12.4,1.3C15.8-66,19.4-64.7,23.1-63.9z M39.7-45.7c-1.4-1.9-4-2.9-6.5-3.5
			c-5-1.2-10.3-1.3-15.4-0.9c-5.5,0.4-10.7,1.4-15.7,2.8c2.1,1.6,4.3,3,6.8,4.1c8.3,3.7,19.1,6.8,28.6,3.2
			C39.8-41,41.3-43.7,39.7-45.7z"/>
		<path class="st0" d="M-28.6-1.4c0-0.1-0.2,0.6-0.2,0.5c-0.1,0.6-0.4,1.2-0.8,1.9c-2.7,3.4-8.5,9-17.1,7.8
			c-16.8-3.2-31.7-21.7-50.5-35.3c-20.1-12.6-46.6-14.7-67.2-8.9c-21,5.4-35.5,17.1-44.1,22.9c-6.8,4.4-21,8.9-36.7,5.5
			c0.8,1.2,1.7,2.4,2.4,3.7c6.2,10.1,10.6,22.2,9.2,34.2c-1.1,12.3-10.6,21.2-19.7,26.1c-9.4,5.2-19.8,5.7-27.6,3.5
			c-9.2-2.7-15.4-6.9-19-9.9l0.1,0.1c-0.1-0.1-0.2-0.2-0.3-0.2c-0.3-0.3-0.7-0.6-1-0.8c-1.4-1.1-2.9-2.2-3.4-2.6
			c-0.7-0.6-0.7-1.1-0.5-1.3s0.7-0.2,1.3,0.5c0.6,0.6,2.1,2.7,3.5,4.1c3.6,3,9.9,7.2,19.3,9.9c7.8,2.1,18.1,1.6,27.3-3.6
			c9.1-4.9,18.2-13.7,19.3-25.7c1.3-11.7-3-23.7-9.2-33.6c-1-1.6-2.1-3.1-3.2-4.6c-3.5-0.9-7.1-2.1-10.6-3.9c-2-1.5-6.4-3.6-5.2-6.5
			c1.1-3,6.2-0.4,8.3,1c3,2.3,5.6,5.1,7.9,8.2c15.8,3.8,30.2-0.8,36.9-5.1c8.4-5.6,23.2-17.6,44.5-22.9c20.9-5.7,47.7-3.5,67.9,9.4
			C-78-13.3-63.3,5.3-46.6,8.7c8.4,1.3,14.3-4.2,17-7.6c0.5-0.8,0.7-1.5,0.9-2.1c0.5-2.7-1.5-3.7-2.1-4.4s-0.6-1.2-0.3-1.4
			c0.2-0.2,0.7-0.1,1.2,0.7C-29.4-5.4-28.1-3.3-28.6-1.4z M-254.7-15.7c-2-1.6-5.9-3.4-6.8-1.6c-0.9,1.8,2.6,3.9,4.5,5
			c3,1.5,6,2.6,9,3.4C-249.9-11.5-252.2-13.8-254.7-15.7z"/>
		<path class="st0" d="M-11-21c-0.2,0.3-0.6,0.3-1.4-0.2c-0.6-0.4-1.9-1.5-3.3-2.6c-1.3-0.8-3-1.7-5.1-2.7
			c-4.9-2.2-13.3-3.7-19.9,1.1c-7.1,4.2-9.2,14.1-4.7,20.1c1.9,2.9,4.7,5.2,7.3,5.4l0.9-0.1c0.8-0.1,1.6,0.6,0.7,1.2l-0.2,0.1
			l-0.5,0.3c-0.7,0.3-1.3,0.5-1.9,0.7c-1.2,0.3-2.3,0.4-3.2,0.4c-3.8,0.1-10.4-1-16.6-5.3c-6.3-4.3-10.6-11.9-16.8-17
			c-9-8.4-21.1-15.9-22.7-16.6c-1.6-0.7-3-1.3-3.5-1.6c-0.8-0.5-1-0.9-0.8-1.1c0.2-0.3,0.6-0.3,1.4,0.1c0.8,0.5,1.9,1.9,3.7,2.9
			c1.8,1,13.6,7.9,22.3,15.8c6.3,5,10.9,12.6,16.9,16.5c6,4.1,12.3,5,15.6,4.8c0.8,0,1.7-0.1,2.6-0.3c-2.6-0.9-4.7-3.1-6.4-5.6
			c-2-3.2-3.2-7.5-2.1-11.6c1-4.1,4-7.5,7.3-9.7c7-4.9,15.6-3.1,20.4-0.7c1.6,0.7,3,1.5,4.1,2.1c-0.1-0.1-0.3-0.2-0.4-0.3
			c1.8,1.1,4.5,2.2,5.3,2.6C-11-21.7-10.9-21.3-11-21z"/>
	</g>
	<g>
		<path class="st0" d="M108.1-9.1c0.6-1.4,1.7-2.2,2.8-2.9c2.2-1.4,4.7-2.3,7.1-3.1c3-0.9,6-1.7,9.1-2.3c1.6-2.8,2.8-5.8,4.4-8.5
			c2.4-4.2,5.2-8.1,8.4-11.3c6.3-6.6,13.8-10.7,20.5-12.8c7.7-2.3,14-2.6,18-2.4c2.1,0.1,4.9-0.3,5.8-0.3c0.9,0,1.3,0.3,1.3,0.6
			s-0.4,0.6-1.3,0.5c-0.8,0-2.9-0.5-4.8-0.8c-3.9-0.2-10.6-0.1-18.9,2.5c-6.6,2.1-14.1,6.3-20.2,12.9c-3.1,3.3-5.9,7.1-8.2,11.3
			c-1.5,2.5-2.6,5.3-4,8c6.5-1.3,12.9-2.1,19.1-1.9c9.3,0.1,17.8,3,24,7.1c6.1,4.3,10,9.3,12.5,13c5.3,7.3,10.8,22.2,16.4,39.7
			c3.1,8.6,6.3,18.2,13.2,25.6c7.2,6.9,17.3,11.1,27.3,11.4c10,0.7,19.8-2.1,27.5-6.6c7.6-4.4,13.7-11.9,11.8-19.1
			c-1.2-7.2-7.6-10.1-11.3-10.6c-0.2,0-0.4-0.1-0.6-0.1c-1.9-0.1-4.3,0.1-5,0.1c-0.9-0.1-1.3-0.4-1.2-0.7c0-0.3,0.4-0.5,1.3-0.5
			c0.9,0.1,3.7,0.9,5.8,1.1c-0.1,0-0.2,0-0.3,0l0,0c3.7,0.5,10.2,3.3,11.5,10.7c2,7.3-4.2,15.1-11.9,19.5
			c-7.8,4.6-17.7,7.4-27.8,6.8c-10.2-0.3-20.4-4.5-27.9-11.6c-7.1-7.6-10.4-17.4-13.6-26c-5.9-17.3-11.5-31.9-16.7-39.1
			c-4.3-7.3-16.4-19.7-35.4-19.6c-6.3-0.2-12.9,0.6-19.6,1.9c-0.8,1.3-1.6,2.6-2.7,3.7c-3.4,3.7-8.2,6.8-13.7,6.4
			C109.8-6.4,107.6-7.2,108.1-9.1z M111.1-7.1c4.9,0.3,9.7-2.6,13-6.2c0.9-0.9,1.6-1.9,2.3-3c-2.7,0.6-5.5,1.3-8.2,2.1
			c-2.4,0.8-4.8,1.7-6.9,3c-1,0.6-2.1,1.5-2.4,2.5C108.6-7.8,109.9-7.2,111.1-7.1z"/>
		<path class="st0" d="M123.8,5.6c-0.7,0.6-0.8,1-0.6,1.3c0.2,0.2,0.7,0.2,1.3-0.4c0.2-0.2,0.6-0.6,1.1-1.1c0,0.1,0,0.1,0,0.1
			s0,0,0-0.1c0.7-0.8,1.6-1.9,2.5-2.7c1.4-1,3.4-1.9,6.3-2.1c6.6-1,14.8,3.1,23.3,6.6c16.9,7.8,36.9,14.3,45.3,14.3
			c8.2,1.7,29.6-1.8,45.5-12c11.3-6.4,19.7-14.7,23.8-19.4l-0.1,0.1c0.1-0.1,0.2-0.2,0.3-0.3c0.2-0.3,0.4-0.5,0.6-0.7
			c1.2-1.4,2.7-2.7,3.1-3.3c0.5-0.7,0.6-1.2,0.3-1.4s-0.7,0-1.2,0.7c-0.5,0.6-1.5,2.7-2.6,4.3c-4,4.5-12.7,13-24.4,19.3
			c-16,9.8-37,12.8-45,11.2c-8.2,0-28.1-6-45.2-13.6c-8.6-3.3-17-7.3-23.7-6.2c-2.5,0.3-4.4,1-5.8,1.9l0,0c0,0-0.1,0-0.1,0.1
			c-0.5,0.3-0.9,0.7-1.3,1C125.9,4.3,124.3,5.2,123.8,5.6z"/>
		<path class="st0" d="M80.6,7.1c1.1-0.6,2.3-1.3,3.4-2c1.9-0.9,4.4-2,5.7-2.3c1.8-0.4,2.8-0.4,5.5,0C97,3.4,99,4.3,99.7,4.5
			c0.9,0.2,1.3,0.1,1.4-0.2s-0.2-0.6-1.1-0.9c-0.6-0.1-2-0.3-3.5-0.5c-3.6-0.6-5.3-0.4-6.8-0.2c-1.2,0.2-3,1-4.7,1.8
			C90.1,0.9,95.2-4,101-8.7c7.7-5.7,17.2-10.3,27.6-13c20.5-6.2,45.3-1.2,58.5,13.7c13.6,14.3,17.8,31.1,20.2,40
			c2,8.5,7.5,26.8-4.7,43.2c-5.7,7.8-14.9,14.1-25.3,16.3c-10.4,2.4-22.2-0.4-29.8-8.1c-7.7-7.4-11.7-18-10.7-27.6
			c0.8-9.7,7.2-17,13.5-20.9c6.3-3.8,11.3-4.5,15.7-3.9c1.6,0.4,2.7,1.1,3.4,1.8c1.5,2.6,1.5,4.8,1.8,5.6s0.7,1.1,1,1
			s0.4-0.6,0.1-1.4c-0.3-0.8-1.7-4-2.9-5.2c0,0,0,0-0.1-0.1l0,0l0,0c-0.7-0.7-1.8-1.4-3.4-1.8c-4.4-0.7-9.5,0-15.8,3.7
			c-6.3,3.8-12.9,11.1-13.8,20.9c-1.1,9.7,2.8,20.5,10.5,28.1c7.6,7.9,19.7,11,30.4,8.6c10.8-2.1,20.2-8.5,26.1-16.4
			c12.7-16.7,7.3-35.7,5.2-44.2c-2.4-8.9-6.8-26-20.7-40.5c-6.9-7.1-16.4-12.9-27.1-15.1c-10.7-2.3-22.1-1.5-32.4,1.4
			c-10.4,2.8-20,7.6-27.7,13.4C93.3-3,87.2,3.5,80.5,6.9c-13,7.5-22.9,8.6-22.8,8.6C57.6,15.5,67.5,14.6,80.6,7.1z"/>
		<path class="st0" d="M23.3-17.7c1.3-0.9,4.1-2.6,4.6-2.8c0.8-0.4,1.3-0.3,1.4-0.1c0.1,0.3-0.1,0.7-0.9,1.1
			C27.6-19.2,24.9-18.7,23.3-17.7c-1.5,1.1-4.1,4.6-3.8,9.8c0.3,8.3,5.9,19.2,15.2,26.7c9.5,7.8,22.9,8.9,33.6,6.6
			c10.9-1.6,20.3-2.1,25.6-1.8c4.5,0.3,13.5,0.6,21.2,6.6c2.2-2.6,4.5-4.1,6.4-5h-0.1c0.1,0,0.1,0,0.2-0.1c0.8-0.4,1.5-0.6,2.1-0.8
			c1.4-0.6,2.7-1.2,3.2-1.4c0.9-0.3,1.3-0.1,1.4,0.2c0.1,0.3-0.2,0.7-1.1,0.9c-0.8,0.2-3.3,0.5-5.3,1c-2,0.9-4.3,2.5-6.6,5.2
			c0.8,0.7,1.6,1.4,2.4,2.2c3.7,4,7.2,9.7,6.4,16.1c-0.7,6.2-6.8,12-13.2,10.5c-6.8-2.8-4.6-11.1-3.1-15.5c1.7-5,4-9.3,6.6-12.5
			c-7.4-5.7-16.1-5.9-20.6-6.2c-5.2-0.3-14.5,0.2-25.4,1.6c-10.7,2.2-24.7,0.9-34.1-7.2c-9.4-7.7-14.8-18.7-15-27.1
			C19-13.1,21.4-16.2,23.3-17.7z M122.2,24.9c0.3-0.1,0.5-0.2,0.8-0.3C122.8,24.7,122.5,24.8,122.2,24.9z M114.5,31.2
			c-2.5,3.2-4.8,7.6-6.4,12.5c-1.5,4.5-3.1,12.6,3,14.7c5.8,1.2,11.6-4.3,12.1-10.1c0.6-5.9-2.8-11.4-6.4-15.2
			C116,32.5,115.2,31.8,114.5,31.2z"/>
		<path class="st0" d="M-1.3-2.2c0-0.4,0.4-0.7,1.3-0.7c0.8-0.1,3.2,0,5.4,0.2c0.9,0,2.3,0.2,4,0.8c3.3,1.2,7.3,4.4,12.1,8.2
			c4.6,3.8,10.4,8.5,17.7,11.3c7.3,2.9,16.2,3.3,24.7,1.1c8.6-2.1,17.2-4.8,25.8-7.1c5.7-1.7,12-1.3,17.1,1.2c0.6-1.5,1.3-3,1.9-4.3
			c2.9-5.8,6.2-10.2,9-12.9s7.3-6.3,13.8-7.6c6.5-1.4,14.3,0.3,21.6,3.8c14.7,6.1,32.9,11.8,50.4,11c8.5-0.5,17.9-3,21.5-10.2
			c3.5-7.3,0.1-14.9-2.7-20c-3.5-6.2-7.4-9.8-10.3-11.7c-0.8-0.4-2.8-1.2-3.8-1.8c0,0-0.1,0-0.1,0.1c0,0,0-0.1,0.1-0.1
			c-0.1-0.1-0.2-0.1-0.3-0.2c-0.8-0.5-0.9-0.9-0.7-1.2s0.6-0.3,1.4,0.2c0.5,0.4,1.7,1.5,3,2.6c2.9,1.9,7.2,5.6,11,12
			c2.9,5.1,6.4,12.8,2.8,20.3c-3.8,7.5-13.4,10.1-21.9,10.7c-17.8,0.9-36.1-4.7-51-10.7c-7.3-3.3-14.7-4.8-20.9-3.5
			c-6.1,1.4-10.4,4.7-13,7.4c-2.7,2.7-5.9,6.9-8.7,12.6c-0.6,1.3-1.3,2.7-1.9,4.2c2.2,1.2,4.1,2.8,5.6,4.8c1.4,2.4-1.3,5-3.5,4.7
			c-2.4,0.1-4.1-2.3-4.2-4.2c-0.1-1.7,0.2-3.3,0.6-4.8c-4.9-2.4-11.1-3.1-16.6-1.3c-8.5,2.2-17.2,4.8-25.8,6.8
			c-8.6,2.1-17.6,1.6-25-1.4C31.6,15,25.9,10.3,21.2,6.5c-4.7-3.9-8.6-7.1-11.9-8.4C7.9-2.4,6.7-2.6,5.8-2.7C3.7-2.4,1-1.9,0.1-1.8
			S-1.2-1.9-1.3-2.2z M107.1,18.7c-0.4,4,7,3.9,5.3-0.1c-1.3-1.6-2.9-3-4.8-4.1C107.2,15.8,107,17.2,107.1,18.7z"/>
		<path class="st0" d="M3,6.9c0.1-0.3,0.5-0.4,1.4-0.2C5.1,6.9,7.2,7.9,9,8.6c2.9,0.8,13,4.2,19.7,13.7c1.2,1.9,1.4,4.1,1.2,6.3
			c2-0.1,3.9,0.3,4.8,0.3c6,0.3,19.9,5.7,33,7.3c8.9,0.6,17-1.4,21.3-2.7c1.8-0.8,3.9-1.9,4.7-2.2c0.9-0.3,1.3-0.2,1.4,0.1
			c0.1,0.3-0.2,0.7-1,1c-0.7,0.2-2.6,0.5-4.3,0.9c-4,1.4-12.5,3.9-22.1,3.6c-13.4-1.4-27.4-6.3-33.2-6.6c-1-0.1-2.8-0.4-4.8-0.3
			c-0.2,0.8-0.4,1.6-0.6,2.4c-0.5,1.6-1.4,3.3-3.1,4.2c-1.8,1.1-4.3-0.6-4-2.6c1.4-3.8,4.3-5,7-5.3c0.3-2.1,0.2-4.2-0.9-6.1
			C22.3,14.1,13.4,10.2,9.8,8.9c-2-0.5-4.9-0.8-5.7-1.1C3.2,7.6,2.9,7.2,3,6.9z M28.6,30c-2.3,0.3-4.5,1.3-5.5,4
			c0.1,3.3,4.5,1.2,5-2.1C28.3,31.4,28.5,30.7,28.6,30z"/>
		<path class="st0" d="M-13.1-13.2c-0.7,1.2-1.1,2.4-1.5,2.8c-0.5,0.7-1,0.9-1.2,0.7c-0.3-0.2-0.2-0.6,0.3-1.4
			c0.5-0.7,1.9-2.8,3.9-4.1c1-0.9,2.7-1.8,5.2-2c6.1-1.2,11.9,6,18.9,12.4c7,6.5,16,14.9,28.7,16.7c12.7,1.9,25.9-4.6,36.6-13.3
			c10.4-9.1,20.8-20,34.4-24.9c13.2-5.4,27.4-7,40.2-5.6c26.2,2.6,44.5,17.9,51.6,27.8c8.8,9.3,12.3,32.3,29.3,51.7
			c15.8,21,52.7,24.2,74.5,5.8c25-16.5,15.4-56.9-5.7-59.1c-9.7-2.1-17.7,1.5-22,4.9c-1.6,1.2-2.8,2.4-3.8,3.3
			c-1.2,1.6-2.4,4.1-3,4.8c-0.6,0.7-1,0.9-1.2,0.7c-0.2,0.1-0.2-0.4,0.4-1.1c0.4-0.5,3.3-3.6,3.9-4.2l0.1-0.1c0,0,0,0,0,0.1
			c0.9-0.9,2.1-2.1,3.6-3.2c4.3-3.4,12.3-7.1,22.1-5.1c21.3,2.1,31.3,43,5.9,59.9c-21.9,18.8-59.6,15.7-75.8-5.8
			c-17.4-19.9-20.9-42.9-29.6-51.8c-7-9.6-24.9-24.7-50.8-27.3c-12.6-1.4-26.7,0.1-39.7,5.4C98.8-20.4,88.8-9.8,78-0.6
			C67.2,8.1,53.8,14.5,41,12.5S19.2,2,12.3-4.5S-0.3-18.2-6.4-17c-2.4,0.2-4,0.9-5.1,1.8C-12.2-14.6-12.7-13.9-13.1-13.2"/>
		<path class="st0" d="M-3.8-35.8c0.2,0.5,1.3,2.2,1.5,3.1c0.6,2.9,4.1,5.8,9.1,6.5c0.8,0.1,2.1,0.6,2.5,0.7c0.9,0.1,1.3,0,1.4-0.4
			c0.1-0.3-0.3-0.6-1.2-0.8c-0.8-0.1-1.2,0.3-3.1,0c-4.7-0.6-7.5-3-8.2-5.2c-0.6-1.8-0.7-3.8-1-4.5c-0.3-0.8-0.7-1.1-1-1
			C-4.1-37.1-4.2-36.7-3.8-35.8z"/>
		<path class="st0" d="M29.7-6.1c0.6-0.7,1-0.9,1.2-0.7c0.3,0.2,0.2,0.7-0.3,1.4S28-3.7,28.5-1c0.1,0.6,0.4,1.3,0.9,2.1
			c2.7,3.4,8.6,8.9,17,7.6c16.7-3.4,31.4-22,50.3-35.8c20.2-12.8,47.1-15.1,67.9-9.4c21.3,5.3,36.2,17.3,44.5,22.9
			c6.7,4.3,21.2,8.8,36.9,5.1c2.3-3.1,4.9-5.9,7.9-8.2c2.1-1.4,7.2-4,8.3-1s-3.2,5.1-5.2,6.5c-3.6,1.8-7.1,3-10.6,3.9
			c-1.1,1.5-2.2,3.1-3.2,4.6c-6.1,9.9-10.5,21.9-9.2,33.6c1.1,12,10.2,20.8,19.3,25.7c9.2,5.2,19.5,5.8,27.3,3.6
			c9.4-2.7,15.7-7,19.3-9.9c1.4-1.4,2.9-3.5,3.5-4.1c0.7-0.6,1.1-0.7,1.3-0.5c0.2,0.2,0.1,0.7-0.5,1.3c-0.5,0.5-2.1,1.5-3.4,2.6
			c-0.3,0.3-0.6,0.5-1,0.8c-0.1,0.1-0.2,0.2-0.3,0.2l0.1-0.1c-3.6,3-9.8,7.2-19,9.9c-7.9,2.2-18.3,1.7-27.6-3.5
			c-9.2-4.9-18.6-13.8-19.7-26.1c-1.4-12,3-24.1,9.2-34.2c0.8-1.2,1.6-2.5,2.4-3.7c-15.7,3.4-29.9-1.1-36.7-5.5
			c-8.6-5.8-23-17.5-44.1-22.9c-20.6-5.7-47.1-3.6-67.2,8.9C78.2-12.9,63.3,5.6,46.4,8.9c-8.5,1.3-14.3-4.4-17-7.8
			c-0.4-0.7-0.7-1.4-0.8-1.9c0,0.1-0.2-0.6-0.2-0.5C27.9-3.3,29.2-5.4,29.7-6.1z M247.8-8.9c3-0.8,6-1.9,9-3.4c2-1.1,5.4-3.2,4.5-5
			c-0.9-1.8-4.7,0-6.8,1.6C252.1-13.8,249.8-11.5,247.8-8.9z"/>
		<path class="st0" d="M10.8-21c0.2,0.3,0.6,0.3,1.4-0.2c0.6-0.4,1.9-1.5,3.3-2.6c1.3-0.8,3-1.7,5.1-2.7c4.9-2.2,13.3-3.7,19.9,1.1
			c7.1,4.2,9.2,14.1,4.7,20.1c-1.9,2.9-4.7,5.2-7.3,5.4L37,0c-0.8-0.1-1.6,0.6-0.7,1.2l0.2,0.1L37,1.6c0.7,0.3,1.3,0.5,1.9,0.7
			c1.2,0.3,2.3,0.4,3.2,0.4c3.8,0.1,10.4-1,16.6-5.3c6.3-4.3,10.6-11.9,16.8-17c9-8.4,21.1-15.9,22.7-16.6c1.6-0.7,3-1.3,3.5-1.6
			c0.8-0.5,1-0.9,0.8-1.1c-0.2-0.3-0.6-0.3-1.4,0.1c-0.8,0.5-1.9,1.9-3.7,2.9c-1.8,1-13.6,7.9-22.3,15.8c-6.3,5-10.9,12.6-16.9,16.5
			c-6,4.1-12.3,5-15.6,4.8c-0.8,0-1.7-0.1-2.6-0.3c2.6-0.9,4.7-3.1,6.4-5.6c2-3.2,3.2-7.5,2.1-11.6c-1-4.1-4-7.5-7.3-9.7
			c-7-4.9-15.6-3.1-20.4-0.7c-1.6,0.7-3,1.5-4.1,2.1c0.1-0.1,0.3-0.2,0.4-0.3c-1.8,1.1-4.5,2.2-5.3,2.6C10.8-21.7,10.7-21.3,10.8-21
			z"/>
		<path class="st0" d="M38.2-13.3c-0.1,1.4-0.4,2.6-0.7,3.5c0.1-0.1,0,0,0,0.1c-0.2,0.4-1.8,4.5-2.1,5c-0.4,0.8-0.8,1-1.1,0.9
			c-0.4-0.1-0.4-0.6,0-1.4c0.4-0.7,2.1-2.7,3.1-4.5C37.8-10.6,38.1-11.8,38.2-13.3c0.2-4.1-2.3-9.9-7.4-15
			c-3.2-3.3-11.2-9.8-15.8-11.4l4,1.1c4.5,3,8.9,6.9,12,10.2C36.1-23.3,38.5-17.4,38.2-13.3z"/>
	</g>
</symbol>
<ellipse class="st1" cx="143.2" cy="140.5" rx="141.7" ry="139.4"/>
<g>
	
		<use xlink:href="#Florid_Vector_Pack_07"  width="646.4" height="185.9" x="-323.2" y="-93" transform="matrix(0.4115 -0.1761 -0.3306 -0.848 128.4735 114.6095)" style="overflow:visible;"/>
</g>
<g>
	
		<use xlink:href="#Florid_Vector_Pack_07"  width="646.4" height="185.9" x="-323.2" y="-93" transform="matrix(0.4115 -0.1761 -0.3306 -0.848 160.6913 173.2345)" style="overflow:visible;"/>
</g>
</svg>
