<?xml version="1.0" encoding="utf-8"?>
<!-- Generator: Adobe Illustrator 22.0.1, SVG Export Plug-In . SVG Version: 6.00 Build 0)  -->
<svg version="1.1" id="Layer_1" xmlns="http://www.w3.org/2000/svg" xmlns:xlink="http://www.w3.org/1999/xlink" x="0px" y="0px"
	 viewBox="0 0 283.5 223.9" style="enable-background:new 0 0 283.5 223.9;" xml:space="preserve">
<style type="text/css">
	.st0{fill:#30A3DC;}
	.st1{fill:#93D4F3;}
	.st2{fill:#FFFFFF;}
	.st3{fill:#F1F9FB;}
	.st4{fill:#CCE9F5;}
	.st5{fill:#A22400;stroke:#231F20;stroke-linecap:round;stroke-miterlimit:10;}
	.st6{fill:none;stroke:#C1272D;stroke-width:5;stroke-linecap:round;stroke-miterlimit:10;}
	.st7{fill:none;stroke:#1D1D1B;stroke-linecap:round;stroke-miterlimit:10;}
	.st8{fill:none;stroke:#C1272D;stroke-width:5;stroke-miterlimit:10;}
</style>
<symbol  id="Snowflake_1" viewBox="-39 -33.9 78 67.9">
	<g>
		<g>
			<g>
				<path class="st0" d="M39,0c0-1.3-8.4,2.1-14.7,2.5c-3.8,0.2-8.4-6.3-12.1-6C6.3-3.2-1.2,2-1.8,1S6-4.2,9.3-9.3
					C11.4-12.5,8-19.7,10-22.8c3.3-5.1,10.4-10.5,9.3-11.1c-1.1-0.6-2.2,8.4-5,14.1c-1.7,3.4-9.6,4.1-11.3,7.5
					C0.5-7.1,1.2,2.1,0,2.1c-1.3,0-0.6-9.3-3.3-14.6c-1.7-3.4-9.6-4.1-11.3-7.4c-2.8-5.6-3.9-14.5-5-13.9c-1.1,0.6,6.1,6.1,9.6,11.4
					c2.1,3.1-1.2,10.4,0.8,13.5C-5.9-4,2.4,0,1.8,1s-8.4-4.2-14.4-4.6c-3.8-0.2-8.3,6.3-12,6.1C-30.8,2.1-39-1.3-39,0
					s8.4-2.1,14.7-2.5c3.8-0.2,8.4,6.3,12.1,6C-6.3,3.2,1.2-2,1.8-1S-6,4.2-9.3,9.3C-11.4,12.5-8,19.6-10,22.8
					c-3.3,5.1-10.4,10.5-9.3,11.1c1.1,0.6,2.2-8.4,5-14.1c1.7-3.4,9.6-4.1,11.3-7.5C-0.5,7.1-1.2-2.1,0-2.1c1.3,0,0.6,9.2,3.3,14.6
					c1.7,3.4,9.6,4.1,11.3,7.4c2.8,5.6,3.9,14.5,5,13.9c1.1-0.7-6.1-6.1-9.6-11.4C7.9,19.2,11.2,12,9.2,8.8C5.9,4-2.4,0-1.8-1
					s8.4,4.2,14.4,4.6c3.8,0.2,8.3-6.3,12-6.1C30.8-2.1,39,1.3,39,0z"/>
				<path class="st1" d="M34.2,0c0-1-8.1,2.8-14.4,3.5C16.2,3.9,11.3-2.4,7.7-2C1.9-1.3-5.4,4.2-5.9,3.5C-6.4,2.7,2.2-1.2,5.7-6.1
					c2.1-3-1-10.2,1.1-13.2c3.6-5,10.7-10.1,9.9-10.5c-0.8-0.4-1.5,8.5-3.9,14.3C11.4-12.1,3.6-11,2.1-7.6C-0.2-2.3,0.9,6.8,0,6.8
					S0-2.4-2.4-7.9c-1.5-3.4-9.4-4.4-10.9-7.8c-2.5-5.6-3.2-14.4-4-13.9C-18.1-29-10.8-23.9-7-18.9c2.2,3-0.8,10.3,1.4,13.2
					C-2.1-1,6.4,2.6,6,3.4S-2-1.3-8-2c-3.7-0.4-8.5,5.9-12.2,5.5c-6-0.6-13.9-4.4-13.9-3.4s8.1-2.8,14.4-3.5C-16-3.8-11.2,2.5-7.5,2
					C-1.9,1.3,5.4-4.2,5.9-3.5C6.4-2.7-2.2,1.2-5.7,6.1c-2.1,3,1,10.2-1.1,13.2c-3.6,5-10.7,10.1-9.9,10.5c0.8,0.4,1.5-8.5,3.9-14.3
					c1.4-3.4,9.3-4.5,10.7-7.9C0.2,2.3-0.9-6.8,0-6.8S0,2.4,2.4,7.9c1.5,3.4,9.4,4.4,10.9,7.8c2.5,5.6,3.2,14.4,4,13.9
					C18.1,29,10.8,23.9,7,18.9c-2.2-3,0.8-10.3-1.4-13.2C2.1,1-6.4-2.6-6-3.4S2,1.3,8,2c3.6,0.4,8.4-5.9,12-5.5
					C26.2-2.8,34.2,0.9,34.2,0z"/>
				<path class="st2" d="M29.4,0c0-0.6-7.8,3.4-13.9,4.4C11.9,5,6.9-1,3.3-0.4c-5.9,1-13.1,6.8-13.4,6.3c-0.3-0.5,8.4-4,12.2-8.7
					c2.3-2.8-0.5-10.2,1.7-13c3.9-4.8,11.2-9.5,10.7-9.8c-0.5-0.3-0.8,8.6-3,14.4c-1.2,3.4-9,4.7-10.3,8.1c-2,5.6-0.6,14.7-1.2,14.7
					S0.7,2.4-1.4-3.3c-1.3-3.4-9-4.7-10.3-8c-2.2-5.7-2.5-14.5-3-14.2s6.9,5,10.9,9.8c2.2,2.8-0.5,10.2,1.8,13
					c3.8,4.6,12.4,7.9,12.1,8.4C9.8,6.2,2.5,0.5-3.4-0.5C-7.1-1.1-12.2,5-15.8,4.4c-6-1-13.7-5-13.7-4.4s7.8-3.4,14-4.4
					C-11.9-5-6.9,1-3.3,0.4c5.9-1,13.1-6.8,13.4-6.3c0.3,0.5-8.4,4-12.2,8.7c-2.3,2.8,0.5,10.2-1.7,13c-3.8,4.8-11.2,9.5-10.7,9.8
					c0.5,0.3,0.8-8.6,3-14.4c1.2-3.4,9-4.7,10.3-8.1c2-5.6,0.6-14.7,1.2-14.7S-0.7-2.4,1.4,3.3c1.3,3.4,9,4.7,10.3,8
					c2.2,5.7,2.5,14.5,3,14.2s-6.9-5-10.9-9.8C1.6,12.9,4.3,5.5,2,2.7c-3.8-4.6-12.4-7.9-12.1-8.4c0.3-0.5,7.6,5.3,13.6,6.3
					c3.6,0.5,8.7-5.6,12.3-5C21.7-3.4,29.4,0.6,29.4,0z"/>
				<path class="st3" d="M27,0c0-0.5-7.7,3.8-13.7,4.9C9.8,5.6,4.6-0.3,1,0.4c-5.8,1.1-12.9,7.1-13.1,6.7c-0.2-0.4,8.5-3.8,12.4-8.5
					c2.3-2.8-0.4-10.2,1.9-13c3.8-4.6,11-9.2,10.6-9.4c-0.4-0.2-0.4,8.7-2.3,14.6C9.4-5.7,1.7-4,0.6-0.6C-1.3,5,0.4,14,0,14
					c-0.5,0,1-9.2-1-15c-1.2-3.4-9-4.9-10.1-8.3c-2-5.7-2.2-14.3-2.6-14.1c-0.4,0.2,7.1,4.7,11.2,9.2c2.4,2.7,0,10.2,2.4,12.9
					c3.9,4.4,12.7,7.4,12.4,7.8C12.1,7,4.9,1.2-1.1,0.1c-3.5-0.6-8.7,5.3-12.2,4.7C-19.3,3.7-27-0.4-27,0c0,0.5,7.7-3.8,13.7-4.9
					C-9.8-5.6-4.5,0.3-1-0.4c5.8-1.1,12.9-7.1,13.1-6.7c0.2,0.4-8.5,3.8-12.4,8.5c-2.3,2.8,0.4,10.2-1.9,12.9
					c-3.8,4.7-11,9.3-10.6,9.5c0.4,0.2,0.4-8.7,2.3-14.6c1.1-3.5,8.8-5.2,10-8.6C1.3-5-0.4-14,0-14c0.5,0-1,9.2,1,15
					c1.2,3.4,9,4.9,10.1,8.3c2,5.7,2.2,14.3,2.6,14.1C14.1,23,6.6,18.6,2.5,14c-2.4-2.7,0-10.2-2.4-12.9c-3.9-4.4-12.7-7.4-12.4-7.8
					C-12.1-7-4.8-1.2,1.1-0.1c3.5,0.6,8.7-5.3,12.2-4.7C19.3-3.7,27,0.4,27,0z"/>
				<path class="st1" d="M13.5,0c0-0.2-3.8,1.9-6.8,2.5C4.9,2.8,2.3-0.1,0.5,0.2C-2.4,0.8-5.9,3.7-6,3.6c-0.1-0.2,4.2-1.9,6.2-4.3
					C1.4-2.1,0-5.8,1.1-7.2c1.9-2.3,5.5-4.6,5.3-4.7C6.2-12,6.2-7.5,5.3-4.6C4.7-2.8,0.8-2,0.3-0.3C-0.6,2.5,0.2,7,0,7
					s0.5-4.6-0.5-7.5C-1.1-2.2-5-2.9-5.6-4.6c-1-2.8-1.1-7.2-1.3-7.1C-7.1-11.5-3.3-9.3-1.2-7C0-5.7-1.2-1.9,0-0.5
					c2,2.2,6.3,3.7,6.2,3.9C6.1,3.5,2.4,0.6-0.6,0.1c-1.8-0.3-4.3,2.7-6.1,2.4c-3-0.5-6.9-2.6-6.9-2.4s3.8-1.9,6.8-2.5
					C-5-2.7-2.4,0.2-0.6-0.1c3-0.7,6.5-3.6,6.6-3.5c0.1,0.2-4.2,1.9-6.2,4.3C-1.4,2.1,0,5.8-1.1,7.2c-1.9,2.3-5.5,4.6-5.3,4.7
					c0.2,0.1,0.2-4.4,1.2-7.3c0.6-1.7,4.4-2.6,5-4.3C0.6-2.5-0.2-7,0-7s-0.5,4.6,0.5,7.5C1.1,2.2,5,2.9,5.6,4.6
					c1,2.8,1.1,7.2,1.3,7.1C7.1,11.5,3.3,9.3,1.2,7C0,5.7,1.3,1.9,0.1,0.6c-2-2.2-6.3-3.7-6.2-3.9C-6-3.5-2.4-0.6,0.6,0
					c1.8,0.3,4.3-2.7,6.1-2.4C9.7-1.9,13.5,0.2,13.5,0z"/>
			</g>
		</g>
		<g>
			<g>
				<path class="st0" d="M17.9-17.9c-0.6-0.6-2.9,4.8-5.6,7.9c-1.6,1.8-6.7,1-8.4,2.8C1.5-4.4,0.4,1.5-0.3,1.3
					c-0.8-0.2,1.2-6,0.4-9.8c-0.5-2.4-5.4-4.2-5.9-6.5c-0.8-3.9-0.1-9.6-0.9-9.4s2.9,4.9,4.2,8.8C-1.7-13.3-5-9.3-4.2-7
					C-3-3.4,1.5,0.5,1,1C0.4,1.5-3.6-3-7.3-4.2c-2.3-0.8-6.3,2.6-8.6,1.8c-3.9-1.3-8.5-4.9-8.7-4.1c-0.2,0.8,5.6,0,9.7,0.9
					c2.4,0.5,4.2,5.3,6.6,5.8C-4.6,1,1.1-1,1.3-0.3c0.2,0.7-5.8,1.9-8.7,4.5c-1.8,1.6-0.9,6.7-2.8,8.3c-3,2.7-8.3,4.9-7.7,5.4
					c0.6,0.6,2.9-4.8,5.6-7.9c1.6-1.8,6.7-1,8.4-2.8c2.5-2.8,3.6-8.7,4.3-8.5c0.8,0.2-1.2,6-0.4,9.8c0.5,2.4,5.4,4.2,5.9,6.5
					c0.8,3.9,0.1,9.6,0.9,9.4s-2.9-4.9-4.2-8.8C1.7,13.4,5,9.4,4.2,7.1C3,3.5-1.5-0.4-0.9-0.9c0.6-0.6,4.5,4,8.2,5.2
					c2.3,0.8,6.3-2.6,8.6-1.8c3.9,1.3,8.5,4.9,8.7,4.1c0.2-0.8-5.6,0-9.6-0.9c-2.4-0.5-4.2-5.3-6.6-5.8C4.5-0.9-1.1,1.1-1.3,0.3
					c-0.2-0.7,5.8-1.9,8.7-4.5c1.8-1.6,0.9-6.7,2.8-8.3C13.2-15.2,18.5-17.3,17.9-17.9z"/>
				<path class="st1" d="M15.7-15.7c-0.5-0.5-2.5,5-5,8.2C9.2-5.7,4.1-6.3,2.6-4.4c-2.4,3-3.2,8.9-3.8,8.8c-0.6-0.2,1.6-5.9,0.9-9.8
					C-0.6-7.8-5.4-9.7-5.7-12c-0.6-3.9,0.3-9.6-0.3-9.4s3.3,4.6,4.8,8.4c0.9,2.2-2.2,6.3-1.3,8.6c1.4,3.5,6.1,7.2,5.7,7.6
					C2.7,3.6-1.1-1.1-4.7-2.5c-2.3-0.9-6.4,2.3-8.6,1.4c-3.7-1.4-8.1-5.1-8.2-4.5C-21.7-5-16-6.1-11.9-5.5C-9.5-5.1-7.5-0.4-5.2,0
					c3.8,0.5,9.3-1.7,9.4-1.1c0.1,0.5-5.9,1.5-8.9,4C-6.6,4.4-5.9,9.5-7.8,11c-3.1,2.5-8.4,4.4-8,4.8c0.5,0.5,2.5-5,5-8.2
					c1.5-1.9,6.6-1.2,8.1-3.1c2.4-3,3.2-8.9,3.7-8.8c0.6,0.2-1.6,5.9-0.9,9.8C0.6,7.8,5.4,9.7,5.7,12c0.6,3.9-0.3,9.6,0.3,9.4
					S2.7,16.8,1.2,13c-0.9-2.2,2.2-6.4,1.3-8.6C1.1,0.9-3.6-2.7-3.1-3.2c0.4-0.4,4.2,4.3,7.8,5.6c2.3,1,6.3-2.2,8.6-1.3
					c3.7,1.4,8.1,5.1,8.2,4.5C21.7,5,16,6.1,11.9,5.5C9.5,5.1,7.5,0.4,5.2,0C1.4-0.5-4.1,1.8-4.3,1.2c-0.2-0.5,5.9-1.5,8.9-4
					c1.9-1.5,1.1-6.6,3-8C10.8-13.3,16.2-15.3,15.7-15.7z"/>
				<path class="st4" d="M13.5-13.5c-0.3-0.3-2,5.2-4.4,8.5C7.8-3.2,2.7-3.6,1.3-1.7C-1,1.5-1.6,7.4-2,7.4c-0.4-0.1,2-5.7,1.6-9.6
					C-0.6-4.6-5.3-6.7-5.5-9c-0.4-4,0.8-9.5,0.4-9.4s3.6,4.3,5.2,8c1,2.1-2,6.3-1,8.4c1.6,3.5,6.5,7.1,6.2,7.4
					C5.1,5.6,1.4,0.8-2.1-0.8c-2.1-1-6.3,2-8.4,1.1c-3.6-1.6-7.8-5.5-7.9-5.1c-0.2,0.3,5.4-1,9.4-0.6c2.3,0.2,4.5,4.9,6.8,5.1
					C1.7,0.1,7.2-2.4,7.3-2c0.1,0.4-5.9,1.1-9.1,3.4c-1.9,1.4-1.5,6.5-3.4,7.9c-3.2,2.3-8.6,4-8.3,4.3c0.3,0.3,2-5.2,4.4-8.5
					c1.4-1.9,6.5-1.4,7.8-3.3C1-1.4,1.6-7.3,2-7.2c0.4,0.1-2,5.7-1.6,9.6C0.6,4.6,5.3,6.7,5.5,9c0.4,4-0.8,9.5-0.4,9.4
					s-3.6-4.3-5.2-8c-1-2.1,2-6.3,1-8.4c-1.6-3.5-6.5-7.1-6.2-7.4s3.9,4.6,7.5,6.2c2.1,1,6.3-2,8.4-1c3.6,1.6,7.8,5.5,7.9,5.1
					C18.6,4.5,13,5.8,9,5.4C6.6,5.2,4.5,0.5,2.2,0.3C-1.7-0.1-7.2,2.4-7.3,2c-0.1-0.4,5.9-1.1,9.1-3.4c1.9-1.4,1.5-6.5,3.4-7.9
					C8.4-11.6,13.8-13.3,13.5-13.5z"/>
				<path class="st3" d="M12.4-12.4c-0.2-0.2-1.8,5.3-4,8.6C7.1-1.9,2-2.2,0.7-0.3c-2.2,3.2-2.7,9.2-3,9.1c-0.3-0.1,2.1-5.7,1.8-9.6
					c-0.2-2.3-4.9-4.5-5.1-6.8C-6-11.5-4.7-16.9-5-16.9c-0.3,0.1,3.8,4.2,5.7,7.8c1,2.2-1.8,6.5-0.7,8.6c1.7,3.4,6.6,6.8,6.5,7
					C6.2,6.7,2.7,1.7-0.9,0C-3-1-7.3,1.9-9.4,0.9C-12.9-0.8-17-4.7-17-4.4c-0.1,0.3,5.4-1.1,9.4-0.9c2.3,0.1,4.7,4.7,7,4.8
					c3.8,0.2,9.2-2.4,9.3-2.1c0.1,0.2-6,0.9-9.2,3.2C-2.4,1.9-2,7-3.9,8.3c-3.3,2.3-8.7,3.9-8.5,4.1c0.2,0.2,1.8-5.3,4-8.6
					C-7.1,1.9-2,2.2-0.6,0.3C1.5-2.9,2-8.9,2.3-8.8c0.3,0.1-2.1,5.7-1.8,9.6c0.2,2.3,4.9,4.5,5.1,6.8C6,11.5,4.7,16.9,5,16.9
					c0.3-0.1-3.8-4.2-5.7-7.8c-1-2.2,1.8-6.5,0.7-8.6c-1.7-3.4-6.6-6.8-6.5-7C-6.2-6.7-2.7-1.7,0.9,0C3,1,7.3-1.9,9.4-0.9
					C12.9,0.8,17,4.7,17,4.4c0.1-0.3-5.4,1.1-9.4,0.9c-2.3-0.1-4.7-4.7-7-4.8c-3.8-0.2-9.2,2.4-9.3,2.1c-0.1-0.2,6-0.9,9.2-3.2
					C2.4-1.9,2-7,3.9-8.3C7.2-10.6,12.6-12.2,12.4-12.4z"/>
				<path class="st2" d="M6.2-6.2c-0.1-0.1-0.9,2.6-2,4.3C3.5-1,1-1.1,0.3-0.1C-0.8,1.5-1,4.5-1.1,4.4c-0.1,0,1.1-2.8,0.9-4.8
					c-0.1-1.2-2.4-2.3-2.5-3.4C-3-5.7-2.4-8.5-2.5-8.4c-0.1,0,1.9,2.1,2.8,3.9c0.6,1-0.8,3.2-0.3,4.2c0.9,1.7,3.3,3.4,3.2,3.5
					C3.1,3.3,1.3,0.9-0.4,0c-1.1-0.5-3.2,1-4.3,0.5c-1.8-0.8-3.8-2.8-3.8-2.7s2.7-0.6,4.7-0.5c1.2,0.1,2.3,2.4,3.5,2.4
					c1.9,0.1,4.6-1.2,4.7-1.1c0,0.1-3,0.5-4.6,1.6c-1,0.7-0.8,3.2-1.7,3.9c-1.6,1.1-4.4,2-4.3,2c0.1,0.1,0.9-2.6,2-4.3
					C-3.5,1-1,1.1-0.3,0.1C0.8-1.5,1-4.5,1.1-4.4c0.1,0-1.1,2.8-0.9,4.8c0.1,1.2,2.4,2.3,2.5,3.4C3,5.7,2.4,8.5,2.5,8.4
					c0.1,0-1.9-2.1-2.8-3.9c-0.6-1,0.8-3.2,0.3-4.2c-0.9-1.7-3.3-3.4-3.2-3.5C-3.1-3.3-1.3-0.9,0.4,0c1.1,0.5,3.2-1,4.3-0.5
					c1.8,0.8,3.8,2.8,3.8,2.6c0-0.1-2.7,0.6-4.7,0.5c-1.2,0-2.3-2.3-3.5-2.4c-1.9-0.1-4.6,1.2-4.7,1.1c0-0.1,3-0.5,4.6-1.6
					C1.2-0.9,1-3.5,2-4.2C3.6-5.3,6.3-6.1,6.2-6.2z"/>
			</g>
		</g>
	</g>
</symbol>
<ellipse class="st5" cx="122.7" cy="114.3" rx="119.3" ry="109.6"/>
<g>
	<g>
		<path class="st6" d="M140.1,157.2"/>
		<path class="st6" d="M2.7,183.1"/>
		<path class="st6" d="M142.2,193.3"/>
		<path class="st6" d="M279.6,167.4"/>
		<path class="st7" d="M222.9,155.9"/>
		<path class="st7" d="M125,156.6"/>
		<path class="st7" d="M38.5,168.9"/>
	</g>
	<g>
		
			<use xlink:href="#Snowflake_1"  width="78" height="67.9" x="-39" y="-33.9" transform="matrix(0.4829 0 0 -0.4829 59.5321 134.9865)" style="overflow:visible;"/>
		
			<use xlink:href="#Snowflake_1"  width="78" height="67.9" x="-39" y="-33.9" transform="matrix(0.4829 0 0 -0.4829 74.7598 190.3027)" style="overflow:visible;"/>
		
			<use xlink:href="#Snowflake_1"  width="78" height="67.9" x="-39" y="-33.9" transform="matrix(0.4829 0 0 -0.4829 205.6491 151.3703)" style="overflow:visible;"/>
		
			<use xlink:href="#Snowflake_1"  width="78" height="67.9" x="-39" y="-33.9" transform="matrix(0.4829 0 0 -0.4829 179.2163 194.3732)" style="overflow:visible;"/>
	</g>
</g>
<g>
	<g>
		<path class="st8" d="M172,169.5"/>
		<path class="st8" d="M91.7,157"/>
		<path class="st8" d="M27.7,139.1"/>
		<path class="st6" d="M190.5,143.7"/>
		<path class="st6" d="M107,155.3"/>
		<path class="st6" d="M28,154.3"/>
	</g>
	<g>
		
			<use xlink:href="#Snowflake_1"  width="78" height="67.9" x="-39" y="-33.9" transform="matrix(0.4829 0 0 -0.4829 50.5269 95.7717)" style="overflow:visible;"/>
		
			<use xlink:href="#Snowflake_1"  width="78" height="67.9" x="-39" y="-33.9" transform="matrix(0.4829 0 0 -0.4829 42.3171 154.0729)" style="overflow:visible;"/>
		
			<use xlink:href="#Snowflake_1"  width="78" height="67.9" x="-39" y="-33.9" transform="matrix(0.4829 0 0 -0.4829 200.8177 127.3787)" style="overflow:visible;"/>
		
			<use xlink:href="#Snowflake_1"  width="78" height="67.9" x="-39" y="-33.9" transform="matrix(0.4829 0 0 -0.4829 201.5445 64.3792)" style="overflow:visible;"/>
	</g>
</g>
<path class="st6" d="M143.2,100.7"/>
<path class="st6" d="M3.8,89.1"/>
<path class="st6" d="M143.2,100.7"/>
<path class="st6" d="M3.8,89.1"/>
<g>
	<g>
		<path class="st6" d="M40.1,85.1"/>
		<path class="st6" d="M-23.5,96.7"/>
		<path class="st6" d="M-83.6,95.7"/>
	</g>
	<g>
		
			<use xlink:href="#Snowflake_1"  width="78" height="67.9" x="-39" y="-33.9" transform="matrix(0.3674 0 0 -0.4829 125.2079 45.7413)" style="overflow:visible;"/>
		
			<use xlink:href="#Snowflake_1"  width="78" height="67.9" x="-39" y="-33.9" transform="matrix(0.3674 0 0 -0.4829 32.8288 56.5276)" style="overflow:visible;"/>
		
			<use xlink:href="#Snowflake_1"  width="78" height="67.9" x="-39" y="-33.9" transform="matrix(0.3674 0 0 -0.4829 48.2767 90.2957)" style="overflow:visible;"/>
		
			<use xlink:href="#Snowflake_1"  width="78" height="67.9" x="-39" y="-33.9" transform="matrix(0.3674 0 0 -0.4829 37.2141 76.1642)" style="overflow:visible;"/>
	</g>
</g>
<use xlink:href="#Snowflake_1"  width="78" height="67.9" x="-39" y="-33.9" transform="matrix(0.4829 0 0 -0.4829 179.8903 36.1731)" style="overflow:visible;"/>
<use xlink:href="#Snowflake_1"  width="78" height="67.9" x="-39" y="-33.9" transform="matrix(0.4829 0 0 -0.4829 224.482 131.4362)" style="overflow:visible;"/>
<use xlink:href="#Snowflake_1"  width="78" height="67.9" x="-39" y="-33.9" transform="matrix(0.4829 0 0 -0.4829 215.0631 100.7938)" style="overflow:visible;"/>
</svg>
