<?xml version="1.0" encoding="utf-8"?>
<!-- Generator: Adobe Illustrator 22.0.1, SVG Export Plug-In . SVG Version: 6.00 Build 0)  -->
<svg version="1.1" id="Layer_1" xmlns="http://www.w3.org/2000/svg" xmlns:xlink="http://www.w3.org/1999/xlink" x="0px" y="0px"
	 viewBox="0 0 283.5 283.5" style="enable-background:new 0 0 283.5 283.5;" xml:space="preserve">
<style type="text/css">
	.st0{fill:url(#SVGID_1_);}
	.st1{fill:url(#SVGID_2_);}
	.st2{fill:#0080B8;}
	.st3{opacity:0.6;fill:url(#SVGID_3_);enable-background:new    ;}
	.st4{opacity:0.8;fill:url(#SVGID_4_);enable-background:new    ;}
	.st5{opacity:0.8;fill:url(#SVGID_5_);enable-background:new    ;}
	.st6{opacity:0.8;fill:url(#SVGID_6_);enable-background:new    ;}
	.st7{fill:url(#SVGID_7_);}
	.st8{fill:url(#SVGID_8_);}
	.st9{opacity:0.8;fill:url(#SVGID_9_);enable-background:new    ;}
	.st10{fill:url(#SVGID_10_);}
	.st11{opacity:0.4;fill:url(#SVGID_11_);enable-background:new    ;}
	.st12{opacity:0.7;fill:url(#SVGID_12_);enable-background:new    ;}
	.st13{fill:url(#SVGID_13_);}
	.st14{fill:url(#SVGID_14_);}
	.st15{fill:url(#SVGID_15_);}
	.st16{opacity:0.7;fill:url(#SVGID_16_);enable-background:new    ;}
	.st17{fill:url(#SVGID_17_);}
	.st18{fill:none;stroke:#D8E1F4;stroke-width:0.6332;}
	.st19{fill:none;}
	.st20{fill:none;stroke:#D8E1F4;stroke-width:0.8718;stroke-miterlimit:8;}
	.st21{fill:url(#SVGID_18_);}
	.st22{fill:url(#SVGID_19_);}
	.st23{fill:url(#SVGID_20_);}
	.st24{fill:url(#SVGID_21_);}
	.st25{fill:url(#SVGID_22_);}
	.st26{fill:url(#SVGID_23_);}
	.st27{fill:url(#SVGID_24_);}
	.st28{fill:url(#SVGID_25_);}
	.st29{fill:url(#SVGID_26_);}
	.st30{fill:url(#SVGID_27_);}
	.st31{fill:url(#SVGID_28_);}
	.st32{fill:url(#SVGID_29_);}
	.st33{fill:url(#SVGID_30_);}
	.st34{fill:url(#SVGID_31_);}
	.st35{fill:url(#SVGID_32_);}
	.st36{fill:url(#SVGID_33_);}
	.st37{fill:url(#SVGID_34_);}
	.st38{fill:url(#SVGID_35_);}
	.st39{fill:url(#SVGID_36_);}
	.st40{fill:url(#SVGID_37_);}
	.st41{fill:url(#SVGID_38_);}
	.st42{fill:url(#SVGID_39_);}
	.st43{fill:url(#SVGID_40_);}
	.st44{fill:url(#SVGID_41_);}
	.st45{fill:#D4EDFC;}
	.st46{fill:#009DD0;stroke:#231F20;stroke-linecap:round;stroke-miterlimit:10;}
</style>
<symbol  id="Orb_-_Blue" viewBox="-33.1 -36 66.2 72">
	
		<radialGradient id="SVGID_1_" cx="1938.5277" cy="49048.4492" r="28.9543" gradientTransform="matrix(1.1428 0 0 0.2501 -2215.3494 -12295.7773)" gradientUnits="userSpaceOnUse">
		<stop  offset="9.815951e-02" style="stop-color:#DADADA;stop-opacity:0.95"/>
		<stop  offset="1" style="stop-color:#FFFFFF;stop-opacity:0"/>
	</radialGradient>
	<path class="st0" d="M33.1-28.8c0-4-14.8-7.2-33.1-7.2s-33.1,3.2-33.1,7.2s14.8,7.2,33.1,7.2S33.1-24.8,33.1-28.8z"/>
	<g>
		<g>
			
				<radialGradient id="SVGID_2_" cx="-6.043180e-02" cy="-21.4607" r="34.1111" gradientTransform="matrix(1 0 0 1 -3.390000e-02 0)" gradientUnits="userSpaceOnUse">
				<stop  offset="0" style="stop-color:#D1EDFB"/>
				<stop  offset="1" style="stop-color:#1FA0DA"/>
			</radialGradient>
			<path class="st1" d="M0-29.9c-18.1,0-32.8,14.7-32.8,32.8S-18.1,35.8,0,35.8S32.8,21.1,32.8,3C32.8-15.2,18.1-29.9,0-29.9z"/>
			<g>
				<path class="st2" d="M0,35.5c18,0,32.6-14.6,32.6-32.6S18-29.7,0-29.7S-32.6-15.1-32.6,2.9S-18,35.5,0,35.5 M0,36
					c-18.3,0-33.1-14.8-33.1-33.1S-18.3-30.2,0-30.2S33.1-15.4,33.1,2.9S18.3,36,0,36L0,36z"/>
			</g>
		</g>
		
			<radialGradient id="SVGID_3_" cx="-11.8987" cy="-3.9" r="11.7163" gradientTransform="matrix(1 0 0 1 -3.390000e-02 0)" gradientUnits="userSpaceOnUse">
			<stop  offset="0.1099" style="stop-color:#FFFFFF"/>
			<stop  offset="0.9505" style="stop-color:#000000"/>
		</radialGradient>
		<path class="st3" d="M-0.2-3.9c0-6.5-5.2-11.7-11.7-11.7s-11.7,5.2-11.7,11.7s5.2,11.7,11.7,11.7C-5.5,7.8-0.2,2.6-0.2-3.9z"/>
		
			<radialGradient id="SVGID_4_" cx="-14.6312" cy="16.3057" r="2.8135" gradientTransform="matrix(1 0 0 1 -3.390000e-02 0)" gradientUnits="userSpaceOnUse">
			<stop  offset="0.1099" style="stop-color:#FFFFFF"/>
			<stop  offset="0.9505" style="stop-color:#000000"/>
		</radialGradient>
		<path class="st4" d="M-11.9,16.3c0-1.6-1.3-2.8-2.8-2.8s-2.8,1.3-2.8,2.8c0,1.6,1.3,2.8,2.8,2.8S-11.9,17.9-11.9,16.3z"/>
		
			<radialGradient id="SVGID_5_" cx="-15.4041" cy="-6.7646" r="4.364" gradientTransform="matrix(1 0 0 1 -3.390000e-02 0)" gradientUnits="userSpaceOnUse">
			<stop  offset="0.1099" style="stop-color:#FFFFFF"/>
			<stop  offset="0.9505" style="stop-color:#000000"/>
		</radialGradient>
		<path class="st5" d="M-11.1-6.8c0-2.4-2-4.4-4.4-4.4s-4.4,2-4.4,4.4s2,4.4,4.4,4.4C-13-2.4-11.1-4.4-11.1-6.8z"/>
		
			<radialGradient id="SVGID_6_" cx="4.3137" cy="21.3321" r="5.2615" gradientTransform="matrix(1 0 0 1 -3.390000e-02 0)" gradientUnits="userSpaceOnUse">
			<stop  offset="0.1099" style="stop-color:#FFFFFF"/>
			<stop  offset="0.9505" style="stop-color:#000000"/>
		</radialGradient>
		<path class="st6" d="M9.5,21.3c0-2.9-2.4-5.3-5.3-5.3s-5.3,2.4-5.3,5.3s2.4,5.3,5.3,5.3C7.2,26.6,9.5,24.2,9.5,21.3z"/>
		
			<radialGradient id="SVGID_7_" cx="2.4339" cy="10.333" r="1.0764" gradientTransform="matrix(1 0 0 1 -3.390000e-02 0)" gradientUnits="userSpaceOnUse">
			<stop  offset="0.1099" style="stop-color:#FFFFFF"/>
			<stop  offset="0.9505" style="stop-color:#000000"/>
		</radialGradient>
		<path class="st7" d="M3.5,10.3c0-0.6-0.5-1.1-1.1-1.1s-1.1,0.5-1.1,1.1s0.5,1.1,1.1,1.1C3,11.4,3.5,10.9,3.5,10.3z"/>
		
			<radialGradient id="SVGID_8_" cx="-8.2317" cy="8.4062" r="2.2227" gradientTransform="matrix(1 0 0 1 -3.390000e-02 0)" gradientUnits="userSpaceOnUse">
			<stop  offset="0.1099" style="stop-color:#FFFFFF"/>
			<stop  offset="0.9505" style="stop-color:#000000"/>
		</radialGradient>
		<circle class="st8" cx="-8.3" cy="8.4" r="2.2"/>
		
			<radialGradient id="SVGID_9_" cx="16.1839" cy="5.1" r="15.4081" gradientTransform="matrix(1 0 0 1 -3.390000e-02 0)" gradientUnits="userSpaceOnUse">
			<stop  offset="0.1099" style="stop-color:#FFFFFF"/>
			<stop  offset="0.9505" style="stop-color:#000000"/>
		</radialGradient>
		<path class="st9" d="M31.6,5.1c0-8.5-6.9-15.4-15.4-15.4C7.6-10.3,0.7-3.4,0.7,5.1s6.9,15.4,15.4,15.4
			C24.7,20.5,31.6,13.6,31.6,5.1z"/>
		
			<linearGradient id="SVGID_10_" gradientUnits="userSpaceOnUse" x1="-1230.0081" y1="1243.267" x2="-1267.0603" y2="1206.2147" gradientTransform="matrix(0.9633 3.600000e-02 3.600000e-02 0.9647 1164.4233 -1141.595)">
			<stop  offset="0" style="stop-color:#000000"/>
			<stop  offset="0.6044" style="stop-color:#FFFFFF"/>
			<stop  offset="0.9011" style="stop-color:#000000"/>
		</linearGradient>
		<path class="st10" d="M3.2-1.5c9.7,9.9,20.6,15,24.9,11.9c-0.1,0.2-0.2,0.3-0.4,0.4c-4,3.9-15.3-1.3-25.3-11.5s-15-21.7-11-25.6
			c0.1-0.1,0.3-0.3,0.5-0.4C-11.4-22.4-6.5-11.4,3.2-1.5z"/>
		
			<linearGradient id="SVGID_11_" gradientUnits="userSpaceOnUse" x1="37758.6055" y1="-25185.0215" x2="37721.5547" y2="-25222.0742" gradientTransform="matrix(-0.3696 0.9966 0.8496 0.6373 35363.6328 -21548.2734)">
			<stop  offset="0" style="stop-color:#000000"/>
			<stop  offset="0.6044" style="stop-color:#FFFFFF"/>
			<stop  offset="0.9011" style="stop-color:#000000"/>
		</linearGradient>
		<path class="st11" d="M6.1,0.9C10.9,16.8,11,31,6.4,33.4c0.2,0,0.4-0.1,0.6-0.1c5.1-1.6,5.2-16.3,0.2-32.8S-6-28.1-11.1-26.5
			c-0.2,0.1-0.4,0.1-0.5,0.2C-6.5-26.9,1.3-15.1,6.1,0.9z"/>
		
			<linearGradient id="SVGID_12_" gradientUnits="userSpaceOnUse" x1="37312.9258" y1="-12245.3779" x2="37275.875" y2="-12282.4297" gradientTransform="matrix(-0.5506 0.8376 -0.9113 -0.4243 9358.5947 -36449.7266)">
			<stop  offset="0" style="stop-color:#000000"/>
			<stop  offset="0.6044" style="stop-color:#FFFFFF"/>
			<stop  offset="0.9011" style="stop-color:#000000"/>
		</linearGradient>
		<path class="st12" d="M-1.4-12.3c-14.4,4-25,11.2-24.4,16.5C-25.9,4-26,3.8-26,3.6c-1.5-5.3,9.4-13,24.3-17
			c14.9-4.1,28.1-3,29.5,2.3c0.1,0.2,0.1,0.4,0.1,0.6C25.7-15.3,12.9-16.2-1.4-12.3z"/>
		
			<linearGradient id="SVGID_13_" gradientUnits="userSpaceOnUse" x1="-6431.0972" y1="-11339.5859" x2="-6468.1489" y2="-11376.6387" gradientTransform="matrix(0.8336 -0.5524 0.5524 0.8336 11649.0801 5920.5674)">
			<stop  offset="0" style="stop-color:#000000"/>
			<stop  offset="0.6044" style="stop-color:#FFFFFF"/>
			<stop  offset="0.9011" style="stop-color:#000000"/>
		</linearGradient>
		<path class="st13" d="M-1.8,19.9c13.5,2.9,25.5,0.8,27.5-4.5c0,0.2,0,0.4-0.1,0.6C24.4,21.8,12,24.1-2,21.1S-26.4,11-25.1,5.1
			c0-0.2,0.1-0.4,0.2-0.6C-25.5,10.3-15.4,17-1.8,19.9z"/>
		
			<linearGradient id="SVGID_14_" gradientUnits="userSpaceOnUse" x1="3795.0181" y1="-30645.4727" x2="3757.9644" y2="-30682.5273" gradientTransform="matrix(-0.4266 -1.395 1.45 1.230000e-02 46079.6289 5653.7339)">
			<stop  offset="0" style="stop-color:#000000"/>
			<stop  offset="0.6044" style="stop-color:#FFFFFF"/>
			<stop  offset="0.9011" style="stop-color:#000000"/>
		</linearGradient>
		<path class="st14" d="M12.3,12.3C22.5-1.1,24.9-16.6,18-23c0.3,0.2,0.6,0.4,0.9,0.6c7.9,6,5.7,22.1-4.9,36
			C3.4,27.4-11.5,33.8-19.4,27.8c-0.3-0.2-0.5-0.4-0.8-0.7C-12.1,32.1,2.1,25.7,12.3,12.3z"/>
		
			<linearGradient id="SVGID_15_" gradientUnits="userSpaceOnUse" x1="16589.8867" y1="3178.1545" x2="16552.832" y2="3141.1008" gradientTransform="matrix(0.8051 0.8335 -0.8394 0.7986 -10699.2109 -16334.1455)">
			<stop  offset="0" style="stop-color:#000000"/>
			<stop  offset="0.6044" style="stop-color:#FFFFFF"/>
			<stop  offset="0.9011" style="stop-color:#000000"/>
		</linearGradient>
		<path class="st15" d="M-15.2,2c-0.5,16,4.3,29.2,10.9,30.3c-0.2,0-0.5,0-0.7,0C-12,32.1-17.2,18.5-16.6,2
			c0.5-16.5,6.6-29.8,13.5-29.6c0.2,0,0.5,0,0.7,0.1C-9-26.8-14.7-14-15.2,2z"/>
		
			<linearGradient id="SVGID_16_" gradientUnits="userSpaceOnUse" x1="34683.3203" y1="-22373.5449" x2="34646.2695" y2="-22410.5957" gradientTransform="matrix(-0.9505 0.5407 -0.4071 -1.0118 23841.1016 -41415.0898)">
			<stop  offset="0" style="stop-color:#000000"/>
			<stop  offset="0.6044" style="stop-color:#FFFFFF"/>
			<stop  offset="0.9011" style="stop-color:#000000"/>
		</linearGradient>
		<path class="st16" d="M9.2-20.8c-13.2-4.8-25.8-3.7-28.8,2.2c0.1-0.2,0.1-0.5,0.2-0.7c2.3-6.5,15.4-7.8,29.1-2.9
			c13.7,5,22.9,14.3,20.5,20.8c-0.1,0.2-0.2,0.5-0.3,0.7C31.4-7.2,22.4-16,9.2-20.8z"/>
		<g>
			
				<linearGradient id="SVGID_17_" gradientUnits="userSpaceOnUse" x1="-7097.0171" y1="33045.5156" x2="-7097.0171" y2="32964.957" gradientTransform="matrix(0.6881 0 0 0.3317 4883.457 -10929.334)">
				<stop  offset="0" style="stop-color:#FFFFFF"/>
				<stop  offset="1" style="stop-color:#000000"/>
			</linearGradient>
			<path class="st17" d="M19.8,21.8c0-5.6-8.8-10.1-19.8-10.1c-10.9,0-19.8,4.5-19.8,10.1S-10.9,31.9,0,31.9S19.8,27.4,19.8,21.8z"
				/>
		</g>
	</g>
</symbol>
<symbol  id="Snowflake_2" viewBox="-30.2 -30.2 60.4 60.5">
	<g>
		<polygon class="st18" points="-5.6,-13.5 -13.5,-5.6 -13.5,5.7 -5.6,13.6 5.7,13.6 13.6,5.7 13.6,-5.6 5.7,-13.5 		"/>
		<polygon class="st19" points="-9.3,-22.4 -22.4,-9.3 -22.4,9.4 -9.3,22.6 9.4,22.6 22.5,9.4 22.5,-9.3 9.4,-22.4 		"/>
		<g>
			<polygon class="st20" points="-11.8,-28.6 -8.7,-3.6 -28.6,11.9 -3.6,8.8 11.9,28.7 8.8,3.7 28.7,-11.8 1.7,-9.7 			"/>
		</g>
		<g>
			<polygon class="st20" points="-28.6,-11.8 -8.7,3.7 -11.8,28.7 3.7,8.8 28.7,11.9 8.8,-3.6 11.9,-28.6 -5.7,-8 			"/>
		</g>
		
			<radialGradient id="SVGID_18_" cx="-10.4115" cy="10.8686" r="9.2995" gradientTransform="matrix(1 0 0 1 -0.1129 0)" gradientUnits="userSpaceOnUse">
			<stop  offset="0" style="stop-color:#0B61AC"/>
			<stop  offset="0.2584" style="stop-color:#8281BC"/>
			<stop  offset="0.6629" style="stop-color:#009CDC"/>
			<stop  offset="0.692" style="stop-color:#089FDD"/>
			<stop  offset="0.7363" style="stop-color:#1DA7E0"/>
			<stop  offset="0.7905" style="stop-color:#40B5E5"/>
			<stop  offset="0.8523" style="stop-color:#70C7EB"/>
			<stop  offset="0.9207" style="stop-color:#AEDFF4"/>
			<stop  offset="0.9935" style="stop-color:#F8FCFE"/>
			<stop  offset="1" style="stop-color:#FFFFFF"/>
		</radialGradient>
		<path class="st21" d="M-2.6,1.9c0.5-0.1,0.9-0.2,1.3-0.3c0,0.4-0.1,0.8-0.2,1.3c-0.8,0.8-1.5,1.7-2,2.4
			c-3.4,3.2-7.8,6.2-16.3,14.8C-11.7,12-8.8,7.9-5.6,4.4C-4.6,3.8-3.6,3-2.6,1.9z"/>
		
			<radialGradient id="SVGID_19_" cx="-10.1049" cy="-9.8003" r="8.971" gradientTransform="matrix(1 0 0 1 -0.1129 0)" gradientUnits="userSpaceOnUse">
			<stop  offset="0" style="stop-color:#0B61AC"/>
			<stop  offset="0.2584" style="stop-color:#8281BC"/>
			<stop  offset="0.6629" style="stop-color:#009CDC"/>
			<stop  offset="0.692" style="stop-color:#089FDD"/>
			<stop  offset="0.7363" style="stop-color:#1DA7E0"/>
			<stop  offset="0.7905" style="stop-color:#40B5E5"/>
			<stop  offset="0.8523" style="stop-color:#70C7EB"/>
			<stop  offset="0.9207" style="stop-color:#AEDFF4"/>
			<stop  offset="0.9935" style="stop-color:#F8FCFE"/>
			<stop  offset="1" style="stop-color:#FFFFFF"/>
		</radialGradient>
		<path class="st22" d="M-1.6-2.2c0.1,0.5,0.2,0.9,0.3,1.3c-0.4,0-0.8-0.1-1.3-0.2C-3.4-2-4.3-2.7-5.1-3.2
			c-3.2-3.5-5.6-7.1-14.1-15.6C-11.1-10.7-7.6-8.4-4.1-5.2C-3.5-4.2-2.7-3.2-1.6-2.2z"/>
		
			<radialGradient id="SVGID_20_" cx="11.4254" cy="11.6905" r="10.1416" gradientTransform="matrix(1 0 0 1 -0.1129 0)" gradientUnits="userSpaceOnUse">
			<stop  offset="0" style="stop-color:#0B61AC"/>
			<stop  offset="0.2584" style="stop-color:#8281BC"/>
			<stop  offset="0.6629" style="stop-color:#009CDC"/>
			<stop  offset="0.692" style="stop-color:#089FDD"/>
			<stop  offset="0.7363" style="stop-color:#1DA7E0"/>
			<stop  offset="0.7905" style="stop-color:#40B5E5"/>
			<stop  offset="0.8523" style="stop-color:#70C7EB"/>
			<stop  offset="0.9207" style="stop-color:#AEDFF4"/>
			<stop  offset="0.9935" style="stop-color:#F8FCFE"/>
			<stop  offset="1" style="stop-color:#FFFFFF"/>
		</radialGradient>
		<path class="st23" d="M1.5,2.8C1.4,2.4,1.3,1.9,1.2,1.5c0.4,0.1,0.9,0.2,1.4,0.3c0.8,0.8,1.6,1.5,2.4,2c3.2,3.4,7.9,9.4,16.5,18
			C13.4,13.8,7.6,9.1,4,5.9C3.5,4.9,2.7,3.9,1.5,2.8z"/>
		
			<radialGradient id="SVGID_21_" cx="10.7584" cy="-10.3388" r="9.4849" gradientTransform="matrix(1 0 0 1 -0.1129 0)" gradientUnits="userSpaceOnUse">
			<stop  offset="0" style="stop-color:#0B61AC"/>
			<stop  offset="0.2584" style="stop-color:#8281BC"/>
			<stop  offset="0.6629" style="stop-color:#009CDC"/>
			<stop  offset="0.692" style="stop-color:#089FDD"/>
			<stop  offset="0.7363" style="stop-color:#1DA7E0"/>
			<stop  offset="0.7905" style="stop-color:#40B5E5"/>
			<stop  offset="0.8523" style="stop-color:#70C7EB"/>
			<stop  offset="0.9207" style="stop-color:#AEDFF4"/>
			<stop  offset="0.9935" style="stop-color:#F8FCFE"/>
			<stop  offset="1" style="stop-color:#FFFFFF"/>
		</radialGradient>
		<path class="st24" d="M5.5-3.8c-1,0.6-2,1.4-3.1,2.6C2-1.1,1.6-1,1.1-0.9c0.1-0.4,0.2-0.9,0.3-1.3c0.9-0.9,1.5-1.7,2-2.5
			c3.4-3.2,8.1-6.6,16.7-15.2C12.1-11.8,8.7-7.3,5.5-3.8z"/>
		
			<radialGradient id="SVGID_22_" cx="5.776648e-02" cy="-12.8814" r="10.1746" gradientTransform="matrix(1 0 0 1 -0.1129 0)" gradientUnits="userSpaceOnUse">
			<stop  offset="0" style="stop-color:#0B61AC"/>
			<stop  offset="0.2584" style="stop-color:#8281BC"/>
			<stop  offset="0.6629" style="stop-color:#009CDC"/>
			<stop  offset="0.692" style="stop-color:#089FDD"/>
			<stop  offset="0.7363" style="stop-color:#1DA7E0"/>
			<stop  offset="0.7905" style="stop-color:#40B5E5"/>
			<stop  offset="0.8523" style="stop-color:#70C7EB"/>
			<stop  offset="0.9207" style="stop-color:#AEDFF4"/>
			<stop  offset="0.9935" style="stop-color:#F8FCFE"/>
			<stop  offset="1" style="stop-color:#FFFFFF"/>
		</radialGradient>
		<path class="st25" d="M0.6,0.3C0.4,0.7,0.2,1-0.1,1.4C-0.3,1-0.6,0.7-0.8,0.3c0-1.2-0.1-2.3-0.3-3.2C-0.9-7.6,0-15.2,0-27.2
			C0-15.8,0.8-8.4,1-3.7C0.7-2.6,0.6-1.3,0.6,0.3z"/>
		
			<radialGradient id="SVGID_23_" cx="-15.0922" cy="0.3819" r="9.5574" gradientTransform="matrix(1 0 0 1 -0.1129 0)" gradientUnits="userSpaceOnUse">
			<stop  offset="0" style="stop-color:#0B61AC"/>
			<stop  offset="0.2584" style="stop-color:#8281BC"/>
			<stop  offset="0.6629" style="stop-color:#009CDC"/>
			<stop  offset="0.692" style="stop-color:#089FDD"/>
			<stop  offset="0.7363" style="stop-color:#1DA7E0"/>
			<stop  offset="0.7905" style="stop-color:#40B5E5"/>
			<stop  offset="0.8523" style="stop-color:#70C7EB"/>
			<stop  offset="0.9207" style="stop-color:#AEDFF4"/>
			<stop  offset="0.9935" style="stop-color:#F8FCFE"/>
			<stop  offset="1" style="stop-color:#FFFFFF"/>
		</radialGradient>
		<path class="st26" d="M-2.9-0.3c0.4,0.2,0.8,0.5,1.2,0.7c-0.4,0.2-0.7,0.5-1.1,0.7C-4,1.1-5.1,1.2-6,1.4
			c-4.7-0.2-10.5-1.1-22.6-1.1c11.5,0,17.1-0.8,21.8-1.1C-5.7-0.4-4.5-0.3-2.9-0.3z"/>
		
			<radialGradient id="SVGID_24_" cx="0.107" cy="14.5686" r="8.8803" gradientTransform="matrix(1 0 0 1 -0.1129 0)" gradientUnits="userSpaceOnUse">
			<stop  offset="0" style="stop-color:#0B61AC"/>
			<stop  offset="0.2584" style="stop-color:#8281BC"/>
			<stop  offset="0.6629" style="stop-color:#009CDC"/>
			<stop  offset="0.692" style="stop-color:#089FDD"/>
			<stop  offset="0.7363" style="stop-color:#1DA7E0"/>
			<stop  offset="0.7905" style="stop-color:#40B5E5"/>
			<stop  offset="0.8523" style="stop-color:#70C7EB"/>
			<stop  offset="0.9207" style="stop-color:#AEDFF4"/>
			<stop  offset="0.9935" style="stop-color:#F8FCFE"/>
			<stop  offset="1" style="stop-color:#FFFFFF"/>
		</radialGradient>
		<path class="st27" d="M-0.7,3.2C-0.5,2.8-0.2,2.4,0,2c0.2,0.4,0.5,0.7,0.8,1.2c0,1.1,0.1,2,0.2,2.9c-0.3,3.7-1,9.9-1,21
			C0,16.8-0.7,10.7-1,6.8C-0.8,5.8-0.7,4.6-0.7,3.2z"/>
		
			<radialGradient id="SVGID_25_" cx="15.1668" cy="0.3453" r="9.5126" gradientTransform="matrix(1 0 0 1 -0.1129 0)" gradientUnits="userSpaceOnUse">
			<stop  offset="0" style="stop-color:#0B61AC"/>
			<stop  offset="0.2584" style="stop-color:#8281BC"/>
			<stop  offset="0.6629" style="stop-color:#009CDC"/>
			<stop  offset="0.692" style="stop-color:#089FDD"/>
			<stop  offset="0.7363" style="stop-color:#1DA7E0"/>
			<stop  offset="0.7905" style="stop-color:#40B5E5"/>
			<stop  offset="0.8523" style="stop-color:#70C7EB"/>
			<stop  offset="0.9207" style="stop-color:#AEDFF4"/>
			<stop  offset="0.9935" style="stop-color:#F8FCFE"/>
			<stop  offset="1" style="stop-color:#FFFFFF"/>
		</radialGradient>
		<path class="st28" d="M2.8,1C2.4,0.8,2,0.6,1.7,0.3C2,0.1,2.4-0.2,2.8-0.4C4-0.4,5-0.6,5.9-0.7c4.7,0.2,10.4,1.1,22.5,1.1
			C17,0.4,11.5,1.2,6.7,1.5C5.7,1.1,4.4,1,2.8,1z"/>
		
			<radialGradient id="SVGID_26_" cx="-7.5155" cy="-2.6711" r="3.4349" gradientTransform="matrix(1 0 0 1 -0.1129 0)" gradientUnits="userSpaceOnUse">
			<stop  offset="0" style="stop-color:#B0C5E7"/>
			<stop  offset="0.2348" style="stop-color:#ADC4E7"/>
			<stop  offset="0.3881" style="stop-color:#A5C1E5"/>
			<stop  offset="0.5182" style="stop-color:#96BCE3"/>
			<stop  offset="0.6353" style="stop-color:#80B5E1"/>
			<stop  offset="0.7437" style="stop-color:#65ACDD"/>
			<stop  offset="0.8456" style="stop-color:#44A1D8"/>
			<stop  offset="0.9407" style="stop-color:#1C94D3"/>
			<stop  offset="1" style="stop-color:#008BCF"/>
		</radialGradient>
		<path class="st29" d="M-3.2-1.3c-1.6-0.4-3.4-1-5.3-1.7C-6.7-2.3-5-1.5-3.6-0.8c-0.9,0-1.9,0-3.2,0.1c-4-1-5.2-3.6-5.2-3.6
			s3-1.4,7,1.1C-4.4-2.4-3.8-1.8-3.2-1.3z"/>
		
			<radialGradient id="SVGID_27_" cx="3.1358" cy="-7.206" r="3.4287" gradientTransform="matrix(1 0 0 1 -0.1129 0)" gradientUnits="userSpaceOnUse">
			<stop  offset="0" style="stop-color:#B0C5E7"/>
			<stop  offset="0.2348" style="stop-color:#ADC4E7"/>
			<stop  offset="0.3881" style="stop-color:#A5C1E5"/>
			<stop  offset="0.5182" style="stop-color:#96BCE3"/>
			<stop  offset="0.6353" style="stop-color:#80B5E1"/>
			<stop  offset="0.7437" style="stop-color:#65ACDD"/>
			<stop  offset="0.8456" style="stop-color:#44A1D8"/>
			<stop  offset="0.9407" style="stop-color:#1C94D3"/>
			<stop  offset="1" style="stop-color:#008BCF"/>
		</radialGradient>
		<path class="st30" d="M1.6-2.8c0.4-1.6,1-3.4,1.7-5.3C2.6-6.3,1.8-4.7,1.1-3.3c0-0.9,0-1.9-0.1-3.2c1-4,3.7-5.2,3.7-5.2
			s1.3,3-1.2,7C2.7-4,2.1-3.4,1.6-2.8z"/>
		
			<radialGradient id="SVGID_28_" cx="-2.9503" cy="7.9186" r="3.4375" gradientTransform="matrix(1 0 0 1 -0.1129 0)" gradientUnits="userSpaceOnUse">
			<stop  offset="0" style="stop-color:#B0C5E7"/>
			<stop  offset="0.2348" style="stop-color:#ADC4E7"/>
			<stop  offset="0.3881" style="stop-color:#A5C1E5"/>
			<stop  offset="0.5182" style="stop-color:#96BCE3"/>
			<stop  offset="0.6353" style="stop-color:#80B5E1"/>
			<stop  offset="0.7437" style="stop-color:#65ACDD"/>
			<stop  offset="0.8456" style="stop-color:#44A1D8"/>
			<stop  offset="0.9407" style="stop-color:#1C94D3"/>
			<stop  offset="1" style="stop-color:#008BCF"/>
		</radialGradient>
		<path class="st31" d="M-1.6,3.5c-0.4,1.6-1,3.4-1.7,5.3C-2.7,7-1.9,5.4-1.2,4c0,0.8,0.1,1.7,0.2,2.8c-1,4.3-3.8,5.5-3.8,5.5
			s-1.2-3,1.3-7C-2.8,4.7-2.1,4.1-1.6,3.5z"/>
		
			<radialGradient id="SVGID_29_" cx="7.6168" cy="3.4451" r="3.4254" gradientTransform="matrix(1 0 0 1 -0.1129 0)" gradientUnits="userSpaceOnUse">
			<stop  offset="0" style="stop-color:#B0C5E7"/>
			<stop  offset="0.2348" style="stop-color:#ADC4E7"/>
			<stop  offset="0.3881" style="stop-color:#A5C1E5"/>
			<stop  offset="0.5182" style="stop-color:#96BCE3"/>
			<stop  offset="0.6353" style="stop-color:#80B5E1"/>
			<stop  offset="0.7437" style="stop-color:#65ACDD"/>
			<stop  offset="0.8456" style="stop-color:#44A1D8"/>
			<stop  offset="0.9407" style="stop-color:#1C94D3"/>
			<stop  offset="1" style="stop-color:#008BCF"/>
		</radialGradient>
		<path class="st32" d="M3.1,1.9c1.6,0.4,3.4,1,5.3,1.7C6.6,3,5,2.2,3.6,1.5c0.9,0,2,0,3.2-0.1c4,1,5.1,3.8,5.1,3.8S8.9,6.4,5,3.8
			C4.3,3.1,3.7,2.4,3.1,1.9z"/>
		
			<radialGradient id="SVGID_30_" cx="-7.4832" cy="3.6352" r="3.3581" gradientTransform="matrix(1 0 0 1 -0.1129 0)" gradientUnits="userSpaceOnUse">
			<stop  offset="0" style="stop-color:#B0C5E7"/>
			<stop  offset="0.2348" style="stop-color:#ADC4E7"/>
			<stop  offset="0.3881" style="stop-color:#A5C1E5"/>
			<stop  offset="0.5182" style="stop-color:#96BCE3"/>
			<stop  offset="0.6353" style="stop-color:#80B5E1"/>
			<stop  offset="0.7437" style="stop-color:#65ACDD"/>
			<stop  offset="0.8456" style="stop-color:#44A1D8"/>
			<stop  offset="0.9407" style="stop-color:#1C94D3"/>
			<stop  offset="1" style="stop-color:#008BCF"/>
		</radialGradient>
		<path class="st33" d="M-3.4,1.4c-1.4,0.9-3.1,1.7-5,2.5c1.8-0.8,3.5-1.4,5-1.9C-4,2.7-4.8,3.5-5.6,4.4c-3.5,2.1-6.2,1.2-6.2,1.2
			s1.1-3.1,5.7-4.1C-5.1,1.5-4.2,1.5-3.4,1.4z"/>
		
			<radialGradient id="SVGID_31_" cx="-3.1683" cy="-7.2172" r="3.3615" gradientTransform="matrix(1 0 0 1 -0.1129 0)" gradientUnits="userSpaceOnUse">
			<stop  offset="0" style="stop-color:#B0C5E7"/>
			<stop  offset="0.2348" style="stop-color:#ADC4E7"/>
			<stop  offset="0.3881" style="stop-color:#A5C1E5"/>
			<stop  offset="0.5182" style="stop-color:#96BCE3"/>
			<stop  offset="0.6353" style="stop-color:#80B5E1"/>
			<stop  offset="0.7437" style="stop-color:#65ACDD"/>
			<stop  offset="0.8456" style="stop-color:#44A1D8"/>
			<stop  offset="0.9407" style="stop-color:#1C94D3"/>
			<stop  offset="1" style="stop-color:#008BCF"/>
		</radialGradient>
		<path class="st34" d="M-1.1-3C-2-4.4-2.8-6.1-3.7-8c0.8,1.8,1.4,3.5,1.8,5c-0.6-0.7-1.4-1.4-2.3-2.2c-2.1-3.6-1.1-6.3-1.1-6.3
			s3,1.2,4,5.8C-1.2-4.7-1.2-3.8-1.1-3z"/>
		
			<radialGradient id="SVGID_32_" cx="7.6846" cy="-2.8521" r="3.3633" gradientTransform="matrix(1 0 0 1 -0.1129 0)" gradientUnits="userSpaceOnUse">
			<stop  offset="0" style="stop-color:#B0C5E7"/>
			<stop  offset="0.2348" style="stop-color:#ADC4E7"/>
			<stop  offset="0.3881" style="stop-color:#A5C1E5"/>
			<stop  offset="0.5182" style="stop-color:#96BCE3"/>
			<stop  offset="0.6353" style="stop-color:#80B5E1"/>
			<stop  offset="0.7437" style="stop-color:#65ACDD"/>
			<stop  offset="0.8456" style="stop-color:#44A1D8"/>
			<stop  offset="0.9407" style="stop-color:#1C94D3"/>
			<stop  offset="1" style="stop-color:#008BCF"/>
		</radialGradient>
		<path class="st35" d="M3.3-0.7c1.4-0.9,3.1-1.7,5-2.5c-1.8,0.8-3.5,1.4-5,1.8C4-2.1,4.7-2.8,5.5-3.8c3.6-2.1,6.3-0.9,6.3-0.9
			s-1.3,3-5.9,3.9C4.9-0.8,4.1-0.8,3.3-0.7z"/>
		
			<radialGradient id="SVGID_33_" cx="3.2793" cy="7.961" r="3.3738" gradientTransform="matrix(1 0 0 1 -0.1129 0)" gradientUnits="userSpaceOnUse">
			<stop  offset="0" style="stop-color:#B0C5E7"/>
			<stop  offset="0.2348" style="stop-color:#ADC4E7"/>
			<stop  offset="0.3881" style="stop-color:#A5C1E5"/>
			<stop  offset="0.5182" style="stop-color:#96BCE3"/>
			<stop  offset="0.6353" style="stop-color:#80B5E1"/>
			<stop  offset="0.7437" style="stop-color:#65ACDD"/>
			<stop  offset="0.8456" style="stop-color:#44A1D8"/>
			<stop  offset="0.9407" style="stop-color:#1C94D3"/>
			<stop  offset="1" style="stop-color:#008BCF"/>
		</radialGradient>
		<path class="st36" d="M1.1,3.8c0.8,1.4,1.7,3.1,2.5,5C2.8,7,2.2,5.3,1.8,3.8C2.4,4.4,3.1,5.1,4,5.9c2.1,3.6,1,6.3,1,6.3
			S1.9,10.9,1,6C1.1,5.2,1.1,4.4,1.1,3.8z"/>
		
			<radialGradient id="SVGID_34_" cx="2.4313" cy="5.8077" r="2.2496" gradientTransform="matrix(1 0 0 1 -0.1129 0)" gradientUnits="userSpaceOnUse">
			<stop  offset="0" style="stop-color:#B0C5E7"/>
			<stop  offset="0.2348" style="stop-color:#ADC4E7"/>
			<stop  offset="0.3881" style="stop-color:#A5C1E5"/>
			<stop  offset="0.5182" style="stop-color:#96BCE3"/>
			<stop  offset="0.6353" style="stop-color:#80B5E1"/>
			<stop  offset="0.7437" style="stop-color:#65ACDD"/>
			<stop  offset="0.8456" style="stop-color:#44A1D8"/>
			<stop  offset="0.9407" style="stop-color:#1C94D3"/>
			<stop  offset="1" style="stop-color:#008BCF"/>
		</radialGradient>
		<path class="st37" d="M1.7,3.7c0.5,1.5,1.1,3.2,1.8,5C2.7,6.8,1.8,5.2,1,3.7c0-0.3,0-0.6,0-0.9C1.2,3.1,1.5,3.4,1.7,3.7z"/>
		
			<radialGradient id="SVGID_35_" cx="2.254" cy="-5.0908" r="2.2901" gradientTransform="matrix(1 0 0 1 -0.1129 0)" gradientUnits="userSpaceOnUse">
			<stop  offset="0" style="stop-color:#B0C5E7"/>
			<stop  offset="0.2348" style="stop-color:#ADC4E7"/>
			<stop  offset="0.3881" style="stop-color:#A5C1E5"/>
			<stop  offset="0.5182" style="stop-color:#96BCE3"/>
			<stop  offset="0.6353" style="stop-color:#80B5E1"/>
			<stop  offset="0.7437" style="stop-color:#65ACDD"/>
			<stop  offset="0.8456" style="stop-color:#44A1D8"/>
			<stop  offset="0.9407" style="stop-color:#1C94D3"/>
			<stop  offset="1" style="stop-color:#008BCF"/>
		</radialGradient>
		<path class="st38" d="M1.1-3.3c0.8-1.4,1.5-3,2.2-4.8C2.5-6.2,2-4.4,1.6-2.8C1.3-2.6,1.1-2.3,1-2.1C1-2.5,1-2.9,1.1-3.3z"/>
		
			<radialGradient id="SVGID_36_" cx="5.4742" cy="-1.9541" r="2.29" gradientTransform="matrix(1 0 0 1 -0.1129 0)" gradientUnits="userSpaceOnUse">
			<stop  offset="0" style="stop-color:#B0C5E7"/>
			<stop  offset="0.2348" style="stop-color:#ADC4E7"/>
			<stop  offset="0.3881" style="stop-color:#A5C1E5"/>
			<stop  offset="0.5182" style="stop-color:#96BCE3"/>
			<stop  offset="0.6353" style="stop-color:#80B5E1"/>
			<stop  offset="0.7437" style="stop-color:#65ACDD"/>
			<stop  offset="0.8456" style="stop-color:#44A1D8"/>
			<stop  offset="0.9407" style="stop-color:#1C94D3"/>
			<stop  offset="1" style="stop-color:#008BCF"/>
		</radialGradient>
		<path class="st39" d="M3.3-1.4c1.5-0.4,3.2-1.1,5-1.8c-1.9,0.8-3.6,1.7-5,2.5c-0.3,0-0.6,0-0.9,0.1C2.7-0.9,3-1.1,3.3-1.4z"/>
		
			<radialGradient id="SVGID_37_" cx="-5.3207" cy="2.6841" r="2.2901" gradientTransform="matrix(1 0 0 1 -0.1129 0)" gradientUnits="userSpaceOnUse">
			<stop  offset="0" style="stop-color:#B0C5E7"/>
			<stop  offset="0.2348" style="stop-color:#ADC4E7"/>
			<stop  offset="0.3881" style="stop-color:#A5C1E5"/>
			<stop  offset="0.5182" style="stop-color:#96BCE3"/>
			<stop  offset="0.6353" style="stop-color:#80B5E1"/>
			<stop  offset="0.7437" style="stop-color:#65ACDD"/>
			<stop  offset="0.8456" style="stop-color:#44A1D8"/>
			<stop  offset="0.9407" style="stop-color:#1C94D3"/>
			<stop  offset="1" style="stop-color:#008BCF"/>
		</radialGradient>
		<path class="st40" d="M-3.4,2.1c-1.5,0.5-3.2,1.1-5,1.9c1.9-0.8,3.6-1.7,5-2.5c0.3,0,0.6,0,0.9-0.1C-2.8,1.6-3.1,1.8-3.4,2.1z"/>
		
			<radialGradient id="SVGID_38_" cx="5.5323" cy="2.542" r="2.2896" gradientTransform="matrix(1 0 0 1 -0.1129 0)" gradientUnits="userSpaceOnUse">
			<stop  offset="0" style="stop-color:#B0C5E7"/>
			<stop  offset="0.2348" style="stop-color:#ADC4E7"/>
			<stop  offset="0.3881" style="stop-color:#A5C1E5"/>
			<stop  offset="0.5182" style="stop-color:#96BCE3"/>
			<stop  offset="0.6353" style="stop-color:#80B5E1"/>
			<stop  offset="0.7437" style="stop-color:#65ACDD"/>
			<stop  offset="0.8456" style="stop-color:#44A1D8"/>
			<stop  offset="0.9407" style="stop-color:#1C94D3"/>
			<stop  offset="1" style="stop-color:#008BCF"/>
		</radialGradient>
		<path class="st41" d="M3.6,1.5C5,2.2,6.6,3,8.4,3.7C6.4,2.9,4.7,2.4,3.1,2C2.9,1.7,2.6,1.5,2.4,1.4C2.8,1.4,3.2,1.4,3.6,1.5z"/>
		
			<radialGradient id="SVGID_39_" cx="-5.3793" cy="-1.812" r="2.2898" gradientTransform="matrix(1 0 0 1 -0.1129 0)" gradientUnits="userSpaceOnUse">
			<stop  offset="0" style="stop-color:#B0C5E7"/>
			<stop  offset="0.2348" style="stop-color:#ADC4E7"/>
			<stop  offset="0.3881" style="stop-color:#A5C1E5"/>
			<stop  offset="0.5182" style="stop-color:#96BCE3"/>
			<stop  offset="0.6353" style="stop-color:#80B5E1"/>
			<stop  offset="0.7437" style="stop-color:#65ACDD"/>
			<stop  offset="0.8456" style="stop-color:#44A1D8"/>
			<stop  offset="0.9407" style="stop-color:#1C94D3"/>
			<stop  offset="1" style="stop-color:#008BCF"/>
		</radialGradient>
		<path class="st42" d="M-3.7-0.8c-1.4-0.8-3-1.5-4.9-2.2c1.9,0.8,3.7,1.3,5.3,1.7C-2.9-1-2.7-0.8-2.5-0.7C-2.8-0.7-3.2-0.7-3.7-0.8
			z"/>
		
			<radialGradient id="SVGID_40_" cx="-2.1361" cy="5.8686" r="2.2516" gradientTransform="matrix(1 0 0 1 -0.1129 0)" gradientUnits="userSpaceOnUse">
			<stop  offset="0" style="stop-color:#B0C5E7"/>
			<stop  offset="0.2348" style="stop-color:#ADC4E7"/>
			<stop  offset="0.3881" style="stop-color:#A5C1E5"/>
			<stop  offset="0.5182" style="stop-color:#96BCE3"/>
			<stop  offset="0.6353" style="stop-color:#80B5E1"/>
			<stop  offset="0.7437" style="stop-color:#65ACDD"/>
			<stop  offset="0.8456" style="stop-color:#44A1D8"/>
			<stop  offset="0.9407" style="stop-color:#1C94D3"/>
			<stop  offset="1" style="stop-color:#008BCF"/>
		</radialGradient>
		<path class="st43" d="M-1.2,4C-2,5.4-2.7,7-3.4,8.8c0.8-2,1.3-3.7,1.7-5.3c0.2-0.2,0.4-0.4,0.5-0.6C-1.2,3.2-1.2,3.6-1.2,4z"/>
		
			<radialGradient id="SVGID_41_" cx="-2.2421" cy="-5.0314" r="2.2906" gradientTransform="matrix(1 0 0 1 -0.1129 0)" gradientUnits="userSpaceOnUse">
			<stop  offset="0" style="stop-color:#B0C5E7"/>
			<stop  offset="0.2348" style="stop-color:#ADC4E7"/>
			<stop  offset="0.3881" style="stop-color:#A5C1E5"/>
			<stop  offset="0.5182" style="stop-color:#96BCE3"/>
			<stop  offset="0.6353" style="stop-color:#80B5E1"/>
			<stop  offset="0.7437" style="stop-color:#65ACDD"/>
			<stop  offset="0.8456" style="stop-color:#44A1D8"/>
			<stop  offset="0.9407" style="stop-color:#1C94D3"/>
			<stop  offset="1" style="stop-color:#008BCF"/>
		</radialGradient>
		<path class="st44" d="M-1.8-3c-0.5-1.5-1.1-3.2-1.8-5C-2.8-6.1-2-4.4-1.1-3c0,0.3,0,0.6,0.1,0.9C-1.3-2.4-1.5-2.7-1.8-3z"/>
		<path class="st45" d="M5.9-0.7C5-0.6,4-0.4,2.8-0.4C2.4-0.2,2,0.1,1.7,0.3C2,0.6,2.4,0.8,2.8,1c1.6-0.1,2.9,0.1,4,0.4
			C5.6,1.5,4.5,1.5,3.6,1.5c-0.4,0-0.8,0-1.2-0.1C2.6,1.6,2.9,1.8,3.1,2C3.7,2.4,4.3,3.1,5,3.8c-0.8-0.5-1.6-1.2-2.4-2
			c-0.5-0.1-1-0.2-1.4-0.3c0.1,0.4,0.2,0.9,0.3,1.3c1.2,1.1,2,2.1,2.5,3.1C3.1,5.1,2.4,4.4,1.7,3.7C1.5,3.4,1.2,3.1,1,2.9
			c0,0.3,0,0.6,0,0.9c0,0.6,0,1.4-0.1,2.3C0.8,5.2,0.7,4.3,0.7,3.2C0.5,2.8,0.2,2.4,0,2c-0.2,0.4-0.5,0.8-0.7,1.2
			c0,1.4-0.1,2.6-0.3,3.6c-0.1-1.1-0.2-2-0.2-2.8c0-0.4,0-0.8,0-1.1c-0.2,0.2-0.3,0.4-0.5,0.6c-0.5,0.6-1.1,1.2-1.9,1.9
			c0.5-0.8,1.2-1.6,2-2.4c0.2-0.6,0.3-1,0.4-1.4c-0.4,0.1-0.9,0.2-1.3,0.3c-1,1.1-2.1,1.9-3,2.5C-4.8,3.5-4,2.7-3.4,2.1
			c0.3-0.3,0.6-0.5,0.9-0.8c-0.3,0-0.6,0.1-0.9,0.1c-0.8,0-1.7,0-2.7,0c0.9-0.2,2-0.3,3.2-0.3c0.4-0.2,0.8-0.5,1.1-0.7
			C-2.2,0.2-2.6-0.1-3-0.3c-1.5,0.1-2.8-0.1-3.9-0.4c1.2-0.1,2.3-0.1,3.2-0.1c0.4,0,0.8,0,1.2,0.1C-2.7-0.8-2.9-1-3.2-1.3
			c-0.6-0.5-1.2-1.1-1.9-1.9C-4.3-2.7-3.4-2-2.6-1.1C-2.1-1-1.7-0.9-1.3-0.8c-0.1-0.4-0.2-0.9-0.3-1.3c-1.1-1.1-2-2.1-2.5-3.1
			C-3.2-4.4-2.4-3.7-1.8-3C-1.5-2.7-1.3-2.4-1-2.1C-1-2.4-1.1-2.7-1.1-3c0-0.8,0-1.6,0-2.6c0.2,0.9,0.3,2,0.3,3.2
			C-0.6-2-0.3-1.6-0.1-1.3c0.2-0.4,0.5-0.8,0.7-1.2c0-1.6,0.1-2.9,0.4-4c0.1,1.2,0.1,2.3,0.1,3.2C1-2.9,1-2.5,1-2.1
			c0.2-0.2,0.4-0.5,0.6-0.7C2.1-3.4,2.7-4,3.4-4.7c-0.5,0.8-1.2,1.6-2,2.5C1.3-1.8,1.2-1.3,1.1-0.9C1.6-1,2-1.1,2.4-1.2
			c1.1-1.2,2.1-2,3.1-2.6C4.7-2.8,4-2.1,3.3-1.4C3-1.1,2.7-0.9,2.4-0.7c0.3,0,0.6-0.1,0.9-0.1C4.1-0.8,4.9-0.8,5.9-0.7z"/>
	</g>
</symbol>
<circle class="st46" cx="141.7" cy="143.8" r="136.8"/>
<use xlink:href="#Orb_-_Blue"  width="66.2" height="72" x="-33.1" y="-36" transform="matrix(3.9004 1.4154 1.4154 -3.9004 138.0663 155.3669)" style="overflow:visible;"/>
<use xlink:href="#Snowflake_2"  width="60.4" height="60.5" x="-30.2" y="-30.2" transform="matrix(0.9989 0 0 -0.9989 135.6605 46.7828)" style="overflow:visible;"/>
<use xlink:href="#Snowflake_2"  width="60.4" height="60.5" x="-30.2" y="-30.2" transform="matrix(0.9989 0 0 -0.9989 69.4338 158.0425)" style="overflow:visible;enable-background:new    ;"/>
<use xlink:href="#Snowflake_2"  width="60.4" height="60.5" x="-30.2" y="-30.2" transform="matrix(0.9989 0 0 -0.9989 237.442 168.8992)" style="overflow:visible;enable-background:new    ;"/>
<use xlink:href="#Snowflake_2"  width="60.4" height="60.5" x="-30.2" y="-30.2" transform="matrix(0.9989 0 0 -0.9989 200.6808 65.3928)" style="overflow:visible;enable-background:new    ;"/>
</svg>
