<?xml version="1.0" encoding="utf-8"?>
<!-- Generator: Adobe Illustrator 22.0.1, SVG Export Plug-In . SVG Version: 6.00 Build 0)  -->
<svg version="1.1" id="Layer_1" xmlns="http://www.w3.org/2000/svg" xmlns:xlink="http://www.w3.org/1999/xlink" x="0px" y="0px"
	 viewBox="0 0 636.7 368.4" style="enable-background:new 0 0 636.7 368.4;" xml:space="preserve">
<style type="text/css">
	.st0{fill:none;}
	.st1{fill:#BD292E;}
	.st2{fill:url(#SVGID_1_);stroke:#1D1D1B;stroke-linecap:round;stroke-miterlimit:10;}
	.st3{stroke:#1D1D1B;stroke-linecap:round;stroke-miterlimit:10;}
	.st4{fill:none;stroke:#1D1D1B;stroke-linecap:round;stroke-miterlimit:10;}
	.st5{fill:#FF0000;}
	.st6{fill:none;stroke:#FF0000;stroke-linecap:round;stroke-miterlimit:10;}
	.st7{fill:#FF0000;stroke:#FF0000;stroke-miterlimit:10;}
	.st8{fill:#FFFFFF;stroke:#666666;stroke-linecap:round;stroke-miterlimit:10;}
	.st9{fill:#666666;}
	.st10{fill:none;stroke:#000000;stroke-linecap:round;stroke-miterlimit:10;}
	.st11{fill:url(#SVGID_2_);stroke:#1D1D1B;stroke-linecap:round;stroke-miterlimit:10;}
	.st12{fill:url(#SVGID_3_);stroke:#1D1D1B;stroke-linecap:round;stroke-miterlimit:10;}
</style>
<symbol  id="Runner" viewBox="-29.6 -29.6 59.3 59.3">
	<g>
		<rect x="-29.6" y="-29.6" class="st0" width="59.3" height="59.3"/>
		<path class="st1" d="M29.6-23.5l-1.4,2.2l-3-2.5C22.2-19.4,14.2-6.1,4-2.3C4.8,1.1,4.1,4,4.1,7.4c15.7-1.8,14.7,17.2,14.7,17.2
			C15,9.9,8.6,11.9,4.8,14.9c-0.8,1.4-1.8,2.5-3.2,3.3L2.1,21c0.3,0,0.6,0.1,0.8,0.2c1.9,0.7,3,3.1,2.4,5.3
			c-0.6,2.2-2.7,3.4-4.6,2.7c-1.9-0.7-3-3.1-2.4-5.3c0.3-1.2,1.1-2,2-2.5l-0.5-2.5C-17.3,24.9-23,8.1-23,8.1
			c12.3,10.5,15,5.2,15,5.2c0.2-4-0.7-9.2-1.2-13.3c-2.4-3.2-4.8-6.7-5.9-18.5c0,0-10.6,2.3-10.7,2.3l-3.7-5.6l1.9-1.6l2.3,3.7
			c2.6-2.4,7.8-6.2,13.4-3.4c4.6,2.3,7.3,7.1,8.9,10.5c9.9,4.2,27.9-15,28-15.1L29.6-23.5z"/>
	</g>
</symbol>
<g>
	<linearGradient id="SVGID_1_" gradientUnits="userSpaceOnUse" x1="505.5463" y1="118.399" x2="540.0021" y2="118.399">
		<stop  offset="0" style="stop-color:#FFFFFF"/>
		<stop  offset="1" style="stop-color:#000000"/>
	</linearGradient>
	<path class="st2" d="M516.4,194.2c4.2-0.2,8.3,0.3,12.4,0.5c0.3-0.1,0.5-0.1,0.8-0.1c6.1-12.3,10.3-40.3,10.3-72.9
		c0-43.9-7.7-79.5-17.2-79.5c-9.5,0-17.2,35.6-17.2,79.5c0,32.4,4.2,60.3,10.2,72.7C516,194.2,516.2,194.2,516.4,194.2z"/>
	<ellipse class="st3" cx="524" cy="103.7" rx="12.9" ry="17.9"/>
	<path class="st4" d="M507.2,80.9c3.4,1.5,8.5,3.3,14.9,3.3c6.5,0,11.7-1.9,15.1-3.6"/>
	<path class="st4" d="M524.7,193.1c1.4,0,2.8,0,4.2,0.1"/>
	<path class="st4" d="M515.4,193c1.5,0,2.9,0,4.4,0.1"/>
	<line class="st4" x1="519.8" y1="193.1" x2="522.2" y2="193.2"/>
	<line class="st4" x1="526.8" y1="193.2" x2="529.3" y2="193.3"/>
	<line class="st4" x1="522.2" y1="193.2" x2="526.8" y2="193.2"/>
	<path class="st4" d="M508,80.6c3.4,1.2,8,2.4,13.4,2.3c6.6,0,12.1-1.8,15.8-3.5"/>
	<path class="st5" d="M479.2,227c-0.1-5.3,0.2-22.8,9.4-39c7.3-12.8,16.3-17.9,20.2-19.8c0,0,2.6,18,5.6,22.6
		c-4,0.6-10.8,2.4-17.8,8.3C485.7,208.3,480.9,221.7,479.2,227"/>
	<path class="st5" d="M569,225.2c-0.2-5.5-1.4-22.9-11.2-38.3c-7.5-11.8-16.9-16.8-21-18.6c0,0-3.4,19.6-5.7,22.9
		c4.5,1.3,11.4,3.7,17.9,8.7C559.5,208,565.8,218.7,569,225.2"/>
	<path class="st5" d="M523.3,169.8c-2.6,4.9-7.8,16.1-9.2,32.3c-1.4,16.1,1.8,28.7,3.5,34.3"/>
	<path class="st6" d="M522.8,169.6"/>
	<path class="st5" d="M523.3,187.9c-1.7,4.5-3.5,9.3-4.7,16.2c-2.4,13.4-1.8,24.9-0.9,32.3C519.5,219.9,521.4,204.4,523.3,187.9z"/>
	<path class="st7" d="M523.3,187.9v-18.1V187.9z"/>
	<ellipse class="st8" cx="524" cy="103.7" rx="10" ry="13.9"/>
	<path class="st7" d="M517.6,236.7"/>
	<polygon class="st5" points="523.3,170.5 523.3,187.9 520.5,200.7 518.5,197.7 	"/>
	<g>
		<g>
			<path class="st9" d="M523.8,88.6c1.9,0,1.9-3,0-3C521.9,85.6,521.9,88.6,523.8,88.6L523.8,88.6z"/>
		</g>
	</g>
	<g>
		<g>
			<path class="st9" d="M528.3,89.5c1.9,0,1.9-3,0-3C526.3,86.5,526.3,89.5,528.3,89.5L528.3,89.5z"/>
		</g>
	</g>
	<g>
		<g>
			<path class="st9" d="M531.9,93c1.9,0,1.9-3,0-3C529.9,90,529.9,93,531.9,93L531.9,93z"/>
		</g>
	</g>
	<g>
		<g>
			<path class="st9" d="M534.2,96.8c1.9,0,1.9-3,0-3C532.3,93.8,532.3,96.8,534.2,96.8L534.2,96.8z"/>
		</g>
	</g>
	<g>
		<g>
			<path class="st9" d="M535.7,102.4c1.9,0,1.9-3,0-3C533.7,99.4,533.7,102.4,535.7,102.4L535.7,102.4z"/>
		</g>
	</g>
	<g>
		<g>
			<path class="st9" d="M535.7,108.6c1.9,0,1.9-3,0-3C533.7,105.6,533.7,108.6,535.7,108.6L535.7,108.6z"/>
		</g>
	</g>
	<g>
		<g>
			<path class="st9" d="M534.2,113c1.9,0,1.9-3,0-3C532.3,110,532.3,113,534.2,113L534.2,113z"/>
		</g>
	</g>
	<g>
		<g>
			<path class="st9" d="M531.6,117.1c1.9,0,1.9-3,0-3C529.7,114.1,529.7,117.1,531.6,117.1L531.6,117.1z"/>
		</g>
	</g>
	<g>
		<g>
			<path class="st9" d="M528.7,119.4c1.9,0,1.9-3,0-3C526.7,116.4,526.7,119.4,528.7,119.4L528.7,119.4z"/>
		</g>
	</g>
	<g>
		<g>
			<path class="st9" d="M525.5,121.2c1.9,0,1.9-3,0-3C523.6,118.2,523.6,121.2,525.5,121.2L525.5,121.2z"/>
		</g>
	</g>
	<g>
		<g>
			<path class="st9" d="M521.3,120.6c1.9,0,1.9-3,0-3C519.3,117.6,519.3,120.6,521.3,120.6L521.3,120.6z"/>
		</g>
	</g>
	<g>
		<g>
			<path class="st9" d="M517.9,118.3c1.9,0,1.9-3,0-3C515.9,115.3,515.9,118.3,517.9,118.3L517.9,118.3z"/>
		</g>
	</g>
	<g>
		<g>
			<path class="st9" d="M515.1,115c1.9,0,1.9-3,0-3C513.2,112,513.2,115,515.1,115L515.1,115z"/>
		</g>
	</g>
	<g>
		<g>
			<path class="st9" d="M513.2,110.9c1.9,0,1.9-3,0-3C511.3,107.9,511.3,110.9,513.2,110.9L513.2,110.9z"/>
		</g>
	</g>
	<g>
		<g>
			<path class="st9" d="M512.4,106.5c1.9,0,1.9-3,0-3C510.4,103.5,510.4,106.5,512.4,106.5L512.4,106.5z"/>
		</g>
	</g>
	<g>
		<g>
			<path class="st9" d="M512.6,101.8c1.9,0,1.9-3,0-3C510.6,98.8,510.6,101.8,512.6,101.8L512.6,101.8z"/>
		</g>
	</g>
	<g>
		<g>
			<path class="st9" d="M513.8,97.1c1.9,0,1.9-3,0-3C511.9,94.1,511.9,97.1,513.8,97.1L513.8,97.1z"/>
		</g>
	</g>
	<g>
		<g>
			<path class="st9" d="M515.7,93.6c1.9,0,1.9-3,0-3C513.8,90.6,513.8,93.6,515.7,93.6L515.7,93.6z"/>
		</g>
	</g>
	<g>
		<g>
			<path class="st9" d="M518.3,91.3c1.9,0,1.9-3,0-3C516.4,88.3,516.4,91.3,518.3,91.3L518.3,91.3z"/>
		</g>
	</g>
	<g>
		<g>
			<path class="st9" d="M520.8,89.2c1.9,0,1.9-3,0-3C518.9,86.2,518.9,89.2,520.8,89.2L520.8,89.2z"/>
		</g>
	</g>
	<g>
		<g>
			<path d="M578.7,214.8c-0.2-21.4-0.3-42.8-0.5-64.1c-0.3-33.9-0.5-67.8-0.8-101.7c-0.1-7.8-0.1-15.6-0.2-23.5c0-1.9-3-1.9-3,0
				c0.2,21.4,0.3,42.8,0.5,64.1c0.3,33.9,0.5,67.8,0.8,101.7c0.1,7.8,0.1,15.6,0.2,23.5C575.7,216.7,578.7,216.7,578.7,214.8
				L578.7,214.8z"/>
		</g>
	</g>
	<g>
		<g>
			<path d="M597.3,25.2c0.3,21.4,0.6,42.8,0.9,64.3c0.5,34.2,0.9,68.3,1.4,102.5c0.1,7.9,0.2,15.8,0.3,23.6c0,1.9,3,1.9,3,0
				c-0.3-21.4-0.6-42.8-0.9-64.3c-0.5-34.2-0.9-68.3-1.4-102.5c-0.1-7.9-0.2-15.8-0.3-23.6C600.3,23.3,597.3,23.3,597.3,25.2
				L597.3,25.2z"/>
		</g>
	</g>
	<line class="st10" x1="577.2" y1="214.8" x2="600.1" y2="180.6"/>
	<line class="st10" x1="601.4" y1="215.6" x2="577" y2="182.8"/>
	<line class="st10" x1="600.1" y1="181.9" x2="576.8" y2="157"/>
	<line class="st10" x1="577" y1="182.8" x2="600.1" y2="157.5"/>
	<line class="st10" x1="576.8" y1="157" x2="600.1" y2="132"/>
	<line class="st10" x1="600.1" y1="157.5" x2="577.4" y2="132"/>
	<line class="st10" x1="600.1" y1="132" x2="577.9" y2="107.1"/>
	<line class="st10" x1="577.4" y1="132" x2="598.8" y2="105"/>
	<line class="st10" x1="577.9" y1="107.1" x2="576.4" y2="105"/>
	<line class="st10" x1="599.9" y1="103.7" x2="577.1" y2="84.2"/>
	<line class="st10" x1="576.4" y1="105" x2="599.6" y2="80.6"/>
	<line class="st10" x1="599.3" y1="58.6" x2="576.5" y2="81.2"/>
	<line class="st10" x1="599.6" y1="80.6" x2="576.5" y2="58.7"/>
	<line class="st10" x1="599.3" y1="58.6" x2="575.8" y2="39.3"/>
	<line class="st10" x1="576.5" y1="58.7" x2="599" y2="39.9"/>
	<line class="st10" x1="575.8" y1="39.3" x2="598.8" y2="24.9"/>
	<line class="st10" x1="599" y1="39.9" x2="575.7" y2="25.5"/>
	<line class="st10" x1="576.4" y1="105" x2="542.2" y2="105"/>
	<line class="st10" x1="550.9" y1="105" x2="576.4" y2="115.6"/>
	<line class="st10" x1="548" y1="105" x2="576.4" y2="113.5"/>
	<g>
		<g>
			<path d="M576.4,103.5c-12.2,0-24.4,0-36.6,0c-1.9,0-1.9,3,0,3c12.2,0,24.4,0,36.6,0C578.3,106.5,578.3,103.5,576.4,103.5
				L576.4,103.5z"/>
		</g>
	</g>
	<path class="st6" d="M585.3,118.6"/>
</g>
<use xlink:href="#Runner"  width="59.3" height="59.3" x="-29.6" y="-29.6" transform="matrix(-0.483 0 0 -1 508.017 317.977)" style="overflow:visible;"/>
<use xlink:href="#Runner"  width="59.3" height="59.3" x="-29.6" y="-29.6" transform="matrix(-0.483 0 0 -1 558.0428 316.4581)" style="overflow:visible;"/>
<use xlink:href="#Runner"  width="59.3" height="59.3" id="XMLID_1_" x="-29.6" y="-29.6" transform="matrix(-0.483 0 0 -1 531.0614 290.6549)" style="overflow:visible;"/>
<path class="st6" d="M0,159.1"/>
<g>
	<linearGradient id="SVGID_2_" gradientUnits="userSpaceOnUse" x1="36.7263" y1="124.6812" x2="67.0189" y2="124.6812">
		<stop  offset="0" style="stop-color:#FFFFFF"/>
		<stop  offset="1" style="stop-color:#000000"/>
	</linearGradient>
	<path class="st11" d="M46.3,191.3c3.7-0.1,7.3,0.3,10.9,0.4c0.2-0.1,0.5-0.1,0.7-0.1c5.4-10.8,9.1-35.4,9.1-64.1
		c0-38.6-6.8-69.9-15.1-69.9c-8.4,0-15.1,31.3-15.1,69.9c0,28.5,3.7,53,9,63.9C45.9,191.4,46.1,191.3,46.3,191.3z"/>
	<ellipse class="st3" cx="52.9" cy="111.7" rx="11.4" ry="15.7"/>
	<path class="st4" d="M38.2,91.7c3,1.4,7.5,2.9,13.1,2.9c5.7,0,10.3-1.7,13.3-3.1"/>
	<path class="st4" d="M53.6,190.4c1.2,0,2.5,0,3.7,0.1"/>
	<path class="st4" d="M45.4,190.3c1.3,0,2.6,0,3.8,0.1"/>
	<line class="st4" x1="49.3" y1="190.3" x2="51.4" y2="190.4"/>
	<line class="st4" x1="55.4" y1="190.5" x2="57.6" y2="190.6"/>
	<line class="st4" x1="51.4" y1="190.4" x2="55.4" y2="190.5"/>
	<path class="st4" d="M38.9,91.5c3,1.1,7,2.1,11.8,2.1c5.8,0,10.6-1.6,13.9-3"/>
	<path class="st5" d="M13.5,220.2c0-4.6,0.2-20.1,8.3-34.2c6.4-11.2,14.3-15.8,17.8-17.4c0,0,2.3,15.8,5,19.9
		c-3.5,0.5-9.5,2.1-15.7,7.3C19.3,203.8,15,215.5,13.5,220.2"/>
	<path class="st5" d="M92.5,218.5c-0.2-4.9-1.2-20.1-9.9-33.7c-6.6-10.4-14.9-14.8-18.5-16.3c0,0-3,17.2-5,20.1
		c4,1.1,10.1,3.3,15.8,7.7C84.1,203.5,89.7,212.9,92.5,218.5"/>
	<path class="st5" d="M52.3,169.9c-2.3,4.3-6.9,14.2-8.1,28.4c-1.2,14.2,1.6,25.2,3.1,30.1"/>
	<path class="st6" d="M51.9,169.7"/>
	<path class="st5" d="M52.3,185.8c-1.5,4-3,8.1-4.1,14.2c-2.1,11.8-1.6,21.9-0.8,28.4C49,213.9,50.6,200.3,52.3,185.8z"/>
	<path class="st7" d="M52.3,185.8v-15.9V185.8z"/>
	<ellipse class="st8" cx="52.9" cy="111.7" rx="8.8" ry="12.2"/>
	<path class="st7" d="M47.3,228.7"/>
	<polygon class="st5" points="52.3,170.4 52.3,185.8 49.9,197 48.1,194.4 	"/>
	<g>
		<g>
			<path class="st9" d="M52.8,98.7c1.9,0,1.9-3,0-3C50.8,95.7,50.8,98.7,52.8,98.7L52.8,98.7z"/>
		</g>
	</g>
	<g>
		<g>
			<path class="st9" d="M56.7,99.5c1.9,0,1.9-3,0-3C54.8,96.5,54.8,99.5,56.7,99.5L56.7,99.5z"/>
		</g>
	</g>
	<g>
		<g>
			<path class="st9" d="M59.9,102.6c1.9,0,1.9-3,0-3C57.9,99.6,57.9,102.6,59.9,102.6L59.9,102.6z"/>
		</g>
	</g>
	<g>
		<g>
			<path class="st9" d="M61.9,105.9c1.9,0,1.9-3,0-3C60,102.9,60,105.9,61.9,105.9L61.9,105.9z"/>
		</g>
	</g>
	<g>
		<g>
			<path class="st9" d="M63.2,110.8c1.9,0,1.9-3,0-3C61.3,107.8,61.3,110.8,63.2,110.8L63.2,110.8z"/>
		</g>
	</g>
	<g>
		<g>
			<path class="st9" d="M63.2,116.2c1.9,0,1.9-3,0-3C61.3,113.2,61.3,116.2,63.2,116.2L63.2,116.2z"/>
		</g>
	</g>
	<g>
		<g>
			<path class="st9" d="M61.9,120.1c1.9,0,1.9-3,0-3C60,117.1,60,120.1,61.9,120.1L61.9,120.1z"/>
		</g>
	</g>
	<g>
		<g>
			<path class="st9" d="M59.7,123.7c1.9,0,1.9-3,0-3C57.7,120.7,57.7,123.7,59.7,123.7L59.7,123.7z"/>
		</g>
	</g>
	<g>
		<g>
			<path class="st9" d="M57.1,125.8c1.9,0,1.9-3,0-3C55.1,122.8,55.1,125.8,57.1,125.8L57.1,125.8z"/>
		</g>
	</g>
	<g>
		<g>
			<path class="st9" d="M54.3,127.3c1.9,0,1.9-3,0-3C52.3,124.3,52.3,127.3,54.3,127.3L54.3,127.3z"/>
		</g>
	</g>
	<g>
		<g>
			<path class="st9" d="M50.5,126.8c1.9,0,1.9-3,0-3C48.6,123.8,48.6,126.8,50.5,126.8L50.5,126.8z"/>
		</g>
	</g>
	<g>
		<g>
			<path class="st9" d="M47.6,124.7c1.9,0,1.9-3,0-3C45.6,121.7,45.6,124.7,47.6,124.7L47.6,124.7z"/>
		</g>
	</g>
	<g>
		<g>
			<path class="st9" d="M45.1,121.9c1.9,0,1.9-3,0-3C43.2,118.9,43.2,121.9,45.1,121.9L45.1,121.9z"/>
		</g>
	</g>
	<g>
		<g>
			<path class="st9" d="M43.5,118.3c1.9,0,1.9-3,0-3C41.5,115.3,41.5,118.3,43.5,118.3L43.5,118.3z"/>
		</g>
	</g>
	<g>
		<g>
			<path class="st9" d="M42.7,114.4c1.9,0,1.9-3,0-3C40.8,111.4,40.8,114.4,42.7,114.4L42.7,114.4z"/>
		</g>
	</g>
	<g>
		<g>
			<path class="st9" d="M42.9,110.3c1.9,0,1.9-3,0-3C41,107.3,41,110.3,42.9,110.3L42.9,110.3z"/>
		</g>
	</g>
	<g>
		<g>
			<path class="st9" d="M44,106.2c1.9,0,1.9-3,0-3C42.1,103.2,42.1,106.2,44,106.2L44,106.2z"/>
		</g>
	</g>
	<g>
		<g>
			<path class="st9" d="M45.7,103.1c1.9,0,1.9-3,0-3C43.8,100.1,43.8,103.1,45.7,103.1L45.7,103.1z"/>
		</g>
	</g>
	<g>
		<g>
			<path class="st9" d="M47.9,101c1.9,0,1.9-3,0-3C46,98,46,101,47.9,101L47.9,101z"/>
		</g>
	</g>
	<g>
		<g>
			<path class="st9" d="M50.2,99.2c1.9,0,1.9-3,0-3C48.2,96.2,48.2,99.2,50.2,99.2L50.2,99.2z"/>
		</g>
	</g>
	<g>
		<g>
			<path d="M101.2,209.4c-0.4-48.6-0.8-97.2-1.1-145.8C100,56.8,100,49.9,99.9,43c0-1.9-3-1.9-3,0c0.4,48.6,0.8,97.2,1.1,145.8
				c0.1,6.9,0.1,13.7,0.2,20.6C98.3,211.3,101.3,211.3,101.2,209.4L101.2,209.4z"/>
		</g>
	</g>
	<g>
		<g>
			<path d="M117.2,42.7c0.7,49,1.3,98,2,147c0.1,6.8,0.2,13.6,0.3,20.4c0,1.9,3,1.9,3,0c-0.7-49-1.3-98-2-147
				c-0.1-6.8-0.2-13.6-0.3-20.4C120.2,40.8,117.2,40.8,117.2,42.7L117.2,42.7z"/>
		</g>
	</g>
	<line class="st10" x1="99.7" y1="209.4" x2="119.9" y2="179.4"/>
	<line class="st10" x1="121" y1="210.2" x2="99.5" y2="181.3"/>
	<line class="st10" x1="119.9" y1="180.5" x2="99.3" y2="158.6"/>
	<line class="st10" x1="99.5" y1="181.3" x2="119.9" y2="159.1"/>
	<line class="st10" x1="99.3" y1="158.6" x2="119.9" y2="136.7"/>
	<line class="st10" x1="119.9" y1="159.1" x2="99.9" y2="136.7"/>
	<line class="st10" x1="119.9" y1="136.7" x2="100.3" y2="114.7"/>
	<line class="st10" x1="99.9" y1="136.7" x2="118.7" y2="112.9"/>
	<line class="st10" x1="100.3" y1="114.7" x2="99" y2="112.9"/>
	<line class="st10" x1="119.7" y1="111.7" x2="99.6" y2="94.6"/>
	<line class="st10" x1="99" y1="112.9" x2="119.4" y2="91.5"/>
	<line class="st10" x1="119.1" y1="72.1" x2="99.1" y2="92"/>
	<line class="st10" x1="119.4" y1="91.5" x2="99.1" y2="72.2"/>
	<line class="st10" x1="119.1" y1="72.1" x2="98.5" y2="55.1"/>
	<line class="st10" x1="99.1" y1="72.2" x2="118.9" y2="55.6"/>
	<line class="st10" x1="98.5" y1="55.1" x2="118.7" y2="42.5"/>
	<line class="st10" x1="118.9" y1="55.6" x2="98.4" y2="43"/>
	<line class="st10" x1="99" y1="112.9" x2="69" y2="112.9"/>
	<line class="st10" x1="76.6" y1="112.9" x2="99" y2="122.2"/>
	<line class="st10" x1="74" y1="112.9" x2="99" y2="120.4"/>
	<g>
		<g>
			<path d="M99,111.4c-10.7,0-21.5,0-32.2,0c-1.9,0-1.9,3,0,3c10.7,0,21.5,0,32.2,0C100.9,114.4,100.9,111.4,99,111.4L99,111.4z"/>
		</g>
	</g>
	<path class="st6" d="M106.9,124.9"/>
</g>
<g>
	<linearGradient id="SVGID_3_" gradientUnits="userSpaceOnUse" x1="247.072" y1="162.4541" x2="329.2719" y2="162.4541">
		<stop  offset="0" style="stop-color:#FFFFFF"/>
		<stop  offset="1" style="stop-color:#000000"/>
	</linearGradient>
	<path class="st12" d="M273,293.1c9.9-0.3,19.8,0.5,29.7,0.8c0.6-0.1,1.2-0.2,1.9-0.2c14.5-21.1,24.7-69.4,24.7-125.6
		c0-75.7-18.4-137-41.1-137c-22.7,0-41.1,61.3-41.1,137c0,55.9,10,103.9,24.4,125.3C272,293.2,272.5,293.1,273,293.1z"/>
	<circle class="st3" cx="291.4" cy="136.7" r="30.8"/>
	<path class="st4" d="M251.5,97.5c8.1,2.7,20.4,5.7,35.5,5.6c15.5-0.1,27.9-3.3,36-6.1"/>
	<path class="st4" d="M293.2,290.9c3.4,0,6.7,0.1,10.1,0.1"/>
	<path class="st4" d="M271.1,290.7c3.5,0,6.9,0.1,10.4,0.1"/>
	<line class="st4" x1="281.4" y1="290.8" x2="287.3" y2="291"/>
	<line class="st4" x1="298.2" y1="291" x2="304" y2="291.2"/>
	<line class="st4" x1="287.3" y1="291" x2="298.2" y2="291"/>
	<path class="st4" d="M253.3,97c8.1,2.1,19,4.1,31.9,4c15.8-0.1,28.8-3.1,37.7-5.9"/>
	<path class="st5" d="M184.6,349.3c-0.1-9.1,0.6-39.3,22.5-67.1c17.4-22,38.9-30.9,48.2-34.1c0,0,6.3,31,13.4,38.9
		c-9.6,1-25.7,4.1-42.5,14.3C200.1,317.1,188.6,340.1,184.6,349.3"/>
	<path class="st5" d="M398.7,346.1c-0.5-9.5-3.4-39.5-26.8-66c-18-20.4-40.4-28.9-50.1-32c0,0-8.1,33.7-13.5,39.5
		c10.8,2.2,27.3,6.4,42.8,15C376.1,316.5,391.1,335,398.7,346.1"/>
	<path class="st5" d="M289.7,250.7c-6.2,8.5-18.6,27.8-21.8,55.7c-3.2,27.8,4.3,49.4,8.4,59.1"/>
	<path class="st6" d="M288.5,250.3"/>
	<path class="st5" d="M289.7,281.9c-4,7.8-8.3,16-11.2,27.9c-5.7,23-4.3,42.9-2.2,55.7C280.7,337,285.2,310.4,289.7,281.9z"/>
	<path class="st7" d="M289.7,281.9v-31.2V281.9z"/>
	<circle class="st8" cx="291.4" cy="136.7" r="23.9"/>
	<path class="st7" d="M276.3,366"/>
	<polygon class="st5" points="289.7,251.8 289.7,281.9 283.2,303.9 278.4,298.7 	"/>
	<g>
		<g>
			<path class="st9" d="M291,109.7c1.9,0,1.9-3,0-3C289.1,106.7,289.1,109.7,291,109.7L291,109.7z"/>
		</g>
	</g>
	<g>
		<g>
			<path class="st9" d="M301.6,111.2c1.9,0,1.9-3,0-3C299.7,108.2,299.7,111.2,301.6,111.2L301.6,111.2z"/>
		</g>
	</g>
	<g>
		<g>
			<path class="st9" d="M310.2,117.3c1.9,0,1.9-3,0-3C308.3,114.3,308.3,117.3,310.2,117.3L310.2,117.3z"/>
		</g>
	</g>
	<g>
		<g>
			<path class="st9" d="M315.8,123.9c1.9,0,1.9-3,0-3C313.8,120.9,313.8,123.9,315.8,123.9L315.8,123.9z"/>
		</g>
	</g>
	<g>
		<g>
			<path class="st9" d="M319.3,133.5c1.9,0,1.9-3,0-3C317.4,130.5,317.4,133.5,319.3,133.5L319.3,133.5z"/>
		</g>
	</g>
	<g>
		<g>
			<path class="st9" d="M319.3,144.1c1.9,0,1.9-3,0-3C317.4,141.1,317.4,144.1,319.3,144.1L319.3,144.1z"/>
		</g>
	</g>
	<g>
		<g>
			<path class="st9" d="M315.8,151.7c1.9,0,1.9-3,0-3C313.8,148.7,313.8,151.7,315.8,151.7L315.8,151.7z"/>
		</g>
	</g>
	<g>
		<g>
			<path class="st9" d="M309.7,158.7c1.9,0,1.9-3,0-3C307.8,155.7,307.8,158.7,309.7,158.7L309.7,158.7z"/>
		</g>
	</g>
	<g>
		<g>
			<path class="st9" d="M302.6,162.8c1.9,0,1.9-3,0-3C300.7,159.8,300.7,162.8,302.6,162.8L302.6,162.8z"/>
		</g>
	</g>
	<g>
		<g>
			<path class="st9" d="M295,165.8c1.9,0,1.9-3,0-3C293.1,162.8,293.1,165.8,295,165.8L295,165.8z"/>
		</g>
	</g>
	<g>
		<g>
			<path class="st9" d="M284.9,164.8c1.9,0,1.9-3,0-3C283,161.8,283,164.8,284.9,164.8L284.9,164.8z"/>
		</g>
	</g>
	<g>
		<g>
			<path class="st9" d="M276.8,160.8c1.9,0,1.9-3,0-3C274.9,157.8,274.9,160.8,276.8,160.8L276.8,160.8z"/>
		</g>
	</g>
	<g>
		<g>
			<path class="st9" d="M270.3,155.2c1.9,0,1.9-3,0-3C268.3,152.2,268.3,155.2,270.3,155.2L270.3,155.2z"/>
		</g>
	</g>
	<g>
		<g>
			<path class="st9" d="M265.7,148.1c1.9,0,1.9-3,0-3C263.8,145.1,263.8,148.1,265.7,148.1L265.7,148.1z"/>
		</g>
	</g>
	<g>
		<g>
			<path class="st9" d="M263.7,140.5c1.9,0,1.9-3,0-3C261.8,137.5,261.8,140.5,263.7,140.5L263.7,140.5z"/>
		</g>
	</g>
	<g>
		<g>
			<path class="st9" d="M264.2,132.4c1.9,0,1.9-3,0-3C262.3,129.4,262.3,132.4,264.2,132.4L264.2,132.4z"/>
		</g>
	</g>
	<g>
		<g>
			<path class="st9" d="M267.2,124.4c1.9,0,1.9-3,0-3C265.3,121.4,265.3,124.4,267.2,124.4L267.2,124.4z"/>
		</g>
	</g>
	<g>
		<g>
			<path class="st9" d="M271.8,118.3c1.9,0,1.9-3,0-3C269.8,115.3,269.8,118.3,271.8,118.3L271.8,118.3z"/>
		</g>
	</g>
	<g>
		<g>
			<path class="st9" d="M277.8,114.2c1.9,0,1.9-3,0-3C275.9,111.2,275.9,114.2,277.8,114.2L277.8,114.2z"/>
		</g>
	</g>
	<g>
		<g>
			<path class="st9" d="M283.9,110.7c1.9,0,1.9-3,0-3C282,107.7,282,110.7,283.9,110.7L283.9,110.7z"/>
		</g>
	</g>
	<g>
		<g>
			<path d="M419.9,328.2c-0.4-36.8-0.8-73.7-1.2-110.5c-0.6-58.5-1.3-117-1.9-175.4c-0.1-13.4-0.3-26.8-0.4-40.2c0-1.9-3-1.9-3,0
				c0.4,36.8,0.8,73.7,1.2,110.5c0.6,58.5,1.3,117,1.9,175.4c0.1,13.4,0.3,26.8,0.4,40.2C416.9,330.1,419.9,330.1,419.9,328.2
				L419.9,328.2z"/>
		</g>
	</g>
	<g>
		<g>
			<path d="M468.5,1.5c0.7,37.2,1.4,74.3,2.1,111.5c1.1,58.8,2.2,117.6,3.3,176.3c0.2,13.5,0.5,26.9,0.7,40.4c0,1.9,3,1.9,3,0
				c-0.7-37.2-1.4-74.3-2.1-111.5c-1.1-58.8-2.2-117.6-3.3-176.3c-0.2-13.5-0.5-26.9-0.7-40.4C471.5-0.5,468.5-0.5,468.5,1.5
				L468.5,1.5z"/>
		</g>
	</g>
	<line class="st10" x1="418.4" y1="328.2" x2="473" y2="269.3"/>
	<line class="st10" x1="476.1" y1="329.7" x2="417.8" y2="273"/>
	<line class="st10" x1="473" y1="271.5" x2="417.3" y2="228.6"/>
	<line class="st10" x1="417.8" y1="273" x2="473" y2="229.6"/>
	<line class="st10" x1="417.3" y1="228.6" x2="473" y2="185.6"/>
	<line class="st10" x1="473" y1="229.6" x2="418.9" y2="185.6"/>
	<line class="st10" x1="473" y1="185.6" x2="419.9" y2="142.6"/>
	<line class="st10" x1="418.9" y1="185.6" x2="470" y2="139"/>
	<line class="st10" x1="419.9" y1="142.6" x2="416.4" y2="139"/>
	<line class="st10" x1="472.5" y1="136.7" x2="418.2" y2="103.1"/>
	<line class="st10" x1="416.4" y1="139" x2="471.8" y2="97"/>
	<line class="st10" x1="471.1" y1="59" x2="416.7" y2="98"/>
	<line class="st10" x1="471.8" y1="97" x2="416.7" y2="59.1"/>
	<line class="st10" x1="471.1" y1="59" x2="415.1" y2="25.8"/>
	<line class="st10" x1="416.7" y1="59.1" x2="470.5" y2="26.7"/>
	<line class="st10" x1="415.1" y1="25.8" x2="470" y2="1"/>
	<line class="st10" x1="470.5" y1="26.7" x2="414.9" y2="2"/>
	<line class="st10" x1="416.4" y1="139" x2="335" y2="139"/>
	<line class="st10" x1="355.7" y1="139" x2="416.4" y2="157.2"/>
	<line class="st10" x1="348.6" y1="139" x2="416.4" y2="153.7"/>
	<g>
		<g>
			<path d="M416.4,137.5c-25.4,0-50.8,0-76.2,0c-3.7,0-7.4,0-11.1,0c-1.9,0-1.9,3,0,3c25.4,0,50.8,0,76.2,0c3.7,0,7.4,0,11.1,0
				C418.3,140.5,418.3,137.5,416.4,137.5L416.4,137.5z"/>
		</g>
	</g>
	<path class="st6" d="M437.8,162.5"/>
</g>
<line class="st10" x1="12.5" y1="355.4" x2="12.5" y2="355.4"/>
<line class="st10" x1="12.5" y1="355.4" x2="13.5" y2="355.4"/>
</svg>
