<?xml version="1.0" encoding="utf-8"?>
<!-- Generator: Adobe Illustrator 22.0.1, SVG Export Plug-In . SVG Version: 6.00 Build 0)  -->
<svg version="1.1" id="Layer_1" xmlns="http://www.w3.org/2000/svg" xmlns:xlink="http://www.w3.org/1999/xlink" x="0px" y="0px"
	 viewBox="0 0 244 240" style="enable-background:new 0 0 244 240;" xml:space="preserve">
<style type="text/css">
	.st0{fill:none;}
	.st1{fill:none;stroke:#E73E00;stroke-width:5;stroke-miterlimit:10;}
	.st2{fill:none;stroke:#E73E00;stroke-width:40;stroke-miterlimit:10;}
</style>
<line class="st0" x1="-246.9" y1="40.4" x2="-209.9" y2="9.4"/>
<line class="st0" x1="-209.9" y1="9.4" x2="-147.2" y2="79.9"/>
<line class="st0" x1="-74.9" y1="11.4" x2="-147.2" y2="79.9"/>
<line class="st0" x1="-142" y1="91.4" x2="-68.9" y2="24.9"/>
<path class="st1" d="M-46.9,216.4"/>
<path class="st1" d="M-236.8,32"/>
<path class="st2" d="M-44.9,32"/>
<path class="st2" d="M-233.9,218.4"/>
<line class="st2" x1="-167.6" y1="99.2" x2="-167.6" y2="99.2"/>
<path class="st2" d="M-42.9,222.4"/>
<path class="st2" d="M-236.8,32"/>
<path class="st2" d="M-87.3,73.9"/>
<path class="st2" d="M-68.9,64.4"/>
<path class="st2" d="M-609.9-72.6"/>
<path class="st2" d="M-490.9-62.6"/>
<path class="st2" d="M-160.9,35.7"/>
<path class="st2" d="M-41.9,45.7"/>
<path class="st2" d="M-90.7,45.7"/>
<line class="st2" x1="19.5" y1="19.6" x2="227.5" y2="222.4"/>
<path class="st2" d="M-26.9,9.4"/>
<path class="st2" d="M-255.9,235.4"/>
<line class="st2" x1="19.5" y1="222.4" x2="225.7" y2="19.6"/>
</svg>
