<?xml version="1.0" encoding="utf-8"?>
<!-- Generator: Adobe Illustrator 22.0.1, SVG Export Plug-In . SVG Version: 6.00 Build 0)  -->
<svg version="1.1" id="Layer_1" xmlns="http://www.w3.org/2000/svg" xmlns:xlink="http://www.w3.org/1999/xlink" x="0px" y="0px"
	 viewBox="0 0 357 357" style="enable-background:new 0 0 357 357;" xml:space="preserve">
<style type="text/css">
	.st0{fill:#FFFFFF;}
	.st1{fill:#4D4545;stroke:#231F20;stroke-linecap:round;stroke-miterlimit:10;}
</style>
<symbol  id="Frosted_Beads" viewBox="-18.3 -9.1 36.6 18.1">
	<path class="st0" d="M2.9-0.6c0-0.3-0.3-0.6-0.6-0.6C2-1.1,1.7-0.9,1.7-0.6C1.7-0.2,2,0,2.3,0C2.6,0,2.9-0.2,2.9-0.6z"/>
	<path class="st0" d="M5.1-2.3c0-0.3-0.3-0.6-0.6-0.6C4.3-2.8,4-2.6,4-2.3C4-2,4.3-1.7,4.6-1.7C4.9-1.7,5.1-2,5.1-2.3z"/>
	<path class="st0" d="M14.9-5.8c0-0.3-0.3-0.6-0.6-0.6c-0.3,0-0.6,0.3-0.6,0.6c0,0.3,0.3,0.6,0.6,0.6C14.6-5.2,14.9-5.5,14.9-5.8z"
		/>
	<path class="st0" d="M13.9-7.5c0-0.3-0.3-0.6-0.6-0.6s-0.6,0.3-0.6,0.6C12.7-7.2,13-7,13.3-7S13.9-7.2,13.9-7.5z"/>
	<path class="st0" d="M16.1-7.5c0-0.3-0.3-0.6-0.6-0.6c-0.3,0-0.6,0.3-0.6,0.6C15-7.2,15.3-7,15.6-7C15.9-7,16.1-7.2,16.1-7.5z"/>
	<path class="st0" d="M7.3-1c0-0.3-0.3-0.6-0.6-0.6C6.4-1.6,6.1-1.4,6.1-1c0,0.3,0.3,0.6,0.6,0.6C7-0.5,7.3-0.7,7.3-1z"/>
	<path class="st0" d="M8.1,0.3c0-0.3-0.3-0.6-0.6-0.6C7.2-0.3,6.9,0,6.9,0.3s0.3,0.6,0.6,0.6C7.8,0.8,8.1,0.6,8.1,0.3z"/>
	<path class="st0" d="M14.8,3c0-0.3-0.3-0.6-0.6-0.6c-0.3,0-0.6,0.3-0.6,0.6c0,0.3,0.3,0.6,0.6,0.6C14.6,3.6,14.8,3.3,14.8,3z"/>
	<path class="st0" d="M5,2.2c0-0.3-0.3-0.6-0.6-0.6c-0.3,0-0.6,0.3-0.6,0.6c0,0.3,0.3,0.6,0.6,0.6C4.7,2.8,5,2.6,5,2.2z"/>
	<path class="st0" d="M3.6,3.1c0-0.3-0.3-0.6-0.6-0.6S2.4,2.8,2.4,3.1c0,0.3,0.3,0.6,0.6,0.6S3.6,3.4,3.6,3.1z"/>
	<path class="st0" d="M2.9,1.7c0-0.3-0.3-0.6-0.6-0.6C2,1.1,1.7,1.4,1.7,1.7C1.7,2,2,2.3,2.3,2.3C2.6,2.3,2.9,2,2.9,1.7z"/>
	<path class="st0" d="M0.6,1.1c0-0.3-0.3-0.6-0.6-0.6s-0.6,0.3-0.6,0.6c0,0.3,0.3,0.6,0.6,0.6S0.6,1.5,0.6,1.1z"/>
	<path class="st0" d="M-1.3-0.9c0-0.3-0.3-0.6-0.6-0.6c-0.3,0-0.6,0.3-0.6,0.6c0,0.3,0.3,0.6,0.6,0.6C-1.6-0.3-1.3-0.6-1.3-0.9z"/>
	<path class="st0" d="M1.5-1.8c0-0.3-0.3-0.6-0.6-0.6c-0.3,0-0.6,0.3-0.6,0.6c0,0.3,0.3,0.6,0.6,0.6C1.2-1.3,1.5-1.5,1.5-1.8z"/>
	<path class="st0" d="M-2.9-1.7c0-0.3-0.3-0.6-0.6-0.6C-3.8-2.3-4-2-4-1.7s0.3,0.6,0.6,0.6C-3.1-1.1-2.9-1.4-2.9-1.7z"/>
	<path class="st0" d="M3.2-2.4C3.2-2.7,2.9-3,2.6-3C2.3-3,2-2.7,2-2.4c0,0.3,0.3,0.6,0.6,0.6C2.9-1.8,3.2-2.1,3.2-2.4z"/>
	<path class="st0" d="M-0.2-3.9c0-0.3-0.3-0.6-0.6-0.6c-0.3,0-0.6,0.3-0.6,0.6c0,0.3,0.3,0.6,0.6,0.6C-0.5-3.3-0.2-3.5-0.2-3.9z"/>
	<path class="st0" d="M-6-2.5c0-0.3-0.3-0.6-0.6-0.6c-0.3,0-0.6,0.3-0.6,0.6C-7.1-2.2-6.9-2-6.5-2C-6.2-2-6-2.2-6-2.5z"/>
	<path class="st0" d="M-3.4,0.4c0-0.3-0.3-0.6-0.6-0.6c-0.3,0-0.6,0.3-0.6,0.6C-4.6,0.7-4.3,1-4,1C-3.7,1-3.4,0.7-3.4,0.4z"/>
	<path class="st0" d="M-6.8,0.9c0-0.3-0.3-0.6-0.6-0.6c-0.3,0-0.6,0.3-0.6,0.6c0,0.3,0.3,0.6,0.6,0.6C-7,1.4-6.8,1.2-6.8,0.9z"/>
	<path class="st0" d="M-10.2,0.9c0-0.3-0.3-0.6-0.6-0.6s-0.6,0.3-0.6,0.6c0,0.3,0.3,0.6,0.6,0.6S-10.2,1.2-10.2,0.9z"/>
	<path class="st0" d="M-7.9-0.3c0-0.3-0.3-0.6-0.6-0.6c-0.3,0-0.6,0.3-0.6,0.6c0,0.3,0.3,0.6,0.6,0.6C-8.2,0.3-7.9,0-7.9-0.3z"/>
	<path class="st0" d="M-4.5,1.7c0-0.3-0.3-0.6-0.6-0.6c-0.3,0-0.6,0.3-0.6,0.6c0,0.3,0.3,0.6,0.6,0.6C-4.8,2.3-4.5,2-4.5,1.7z"/>
	<path class="st0" d="M-2,2.6C-2,2.2-2.2,2-2.5,2c-0.3,0-0.6,0.3-0.6,0.6c0,0.3,0.3,0.6,0.6,0.6C-2.2,3.1-2,2.9-2,2.6z"/>
	<path class="st0" d="M4.3-0.8c0-0.3-0.3-0.6-0.6-0.6c-0.3,0-0.6,0.3-0.6,0.6c0,0.3,0.3,0.6,0.6,0.6C4.1-0.2,4.3-0.5,4.3-0.8z"/>
	<path class="st0" d="M4.8-4c0-0.3-0.3-0.6-0.6-0.6C3.9-4.6,3.6-4.3,3.6-4c0,0.3,0.3,0.6,0.6,0.6C4.5-3.4,4.8-3.7,4.8-4z"/>
	<path class="st0" d="M2.9-3.8c0-0.3-0.3-0.6-0.6-0.6C2-4.4,1.8-4.2,1.8-3.8c0,0.3,0.3,0.6,0.6,0.6C2.7-3.3,2.9-3.5,2.9-3.8z"/>
	<path class="st0" d="M6.7-2.5c0-0.3-0.3-0.6-0.6-0.6S5.6-2.8,5.6-2.5C5.6-2.2,5.8-2,6.1-2S6.7-2.2,6.7-2.5z"/>
	<path class="st0" d="M8.7-1.6c0-0.3-0.3-0.6-0.6-0.6C7.8-2.2,7.6-2,7.6-1.6c0,0.3,0.3,0.6,0.6,0.6C8.5-1.1,8.7-1.3,8.7-1.6z"/>
	<path class="st0" d="M5.8-0.3c0-0.3-0.3-0.6-0.6-0.6c-0.3,0-0.6,0.3-0.6,0.6c0,0.3,0.3,0.6,0.6,0.6C5.6,0.2,5.8,0,5.8-0.3z"/>
	<path class="st0" d="M4.2,1c0-0.3-0.3-0.6-0.6-0.6C3.3,0.4,3,0.6,3,1c0,0.3,0.3,0.6,0.6,0.6C3.9,1.5,4.2,1.3,4.2,1z"/>
	<circle class="st0" cx="1.3" cy="0.5" r="0.6"/>
	<path class="st0" d="M0.4-0.7c0-0.3-0.3-0.6-0.6-0.6S-0.8-1-0.8-0.7c0,0.3,0.3,0.6,0.6,0.6S0.4-0.4,0.4-0.7z"/>
	<path class="st0" d="M-1.1-2.6c0-0.3-0.3-0.6-0.6-0.6c-0.3,0-0.6,0.3-0.6,0.6C-2.2-2.2-2-2-1.7-2C-1.4-2-1.1-2.2-1.1-2.6z"/>
	<path class="st0" d="M1.2-3.4C1.2-3.7,0.9-4,0.6-4C0.3-4,0-3.7,0-3.4c0,0.3,0.3,0.6,0.6,0.6C0.9-2.8,1.2-3.1,1.2-3.4z"/>
	<path class="st0" d="M-2.5-4.3c0-0.3-0.3-0.6-0.6-0.6c-0.3,0-0.6,0.3-0.6,0.6c0,0.3,0.3,0.6,0.6,0.6C-2.8-3.7-2.5-4-2.5-4.3z"/>
	<path class="st0" d="M3.4-5.5c0-0.3-0.3-0.6-0.6-0.6c-0.3,0-0.6,0.3-0.6,0.6C2.3-5.2,2.6-5,2.9-5C3.2-5,3.4-5.2,3.4-5.5z"/>
	<path class="st0" d="M0.3-5.7c0-0.3-0.3-0.6-0.6-0.6S-0.8-6-0.8-5.7c0,0.3,0.3,0.6,0.6,0.6S0.3-5.4,0.3-5.7z"/>
	<path class="st0" d="M-4.4-4.1c0-0.3-0.3-0.6-0.6-0.6c-0.3,0-0.6,0.3-0.6,0.6c0,0.3,0.3,0.6,0.6,0.6C-4.7-3.5-4.4-3.8-4.4-4.1z"/>
	<path class="st0" d="M-8.1-3.8c0-0.3-0.3-0.6-0.6-0.6c-0.3,0-0.6,0.3-0.6,0.6c0,0.3,0.3,0.6,0.6,0.6C-8.3-3.2-8.1-3.5-8.1-3.8z"/>
	<path class="st0" d="M-9.5-2.6c0-0.3-0.3-0.6-0.6-0.6c-0.3,0-0.6,0.3-0.6,0.6c0,0.3,0.3,0.6,0.6,0.6C-9.8-2-9.5-2.3-9.5-2.6z"/>
	<path class="st0" d="M-13.3,0.4c0-0.3-0.3-0.6-0.6-0.6c-0.3,0-0.6,0.3-0.6,0.6c0,0.3,0.3,0.6,0.6,0.6C-13.5,1-13.3,0.7-13.3,0.4z"
		/>
	<path class="st0" d="M-11-3.1c0-0.3-0.3-0.6-0.6-0.6s-0.6,0.3-0.6,0.6c0,0.3,0.3,0.6,0.6,0.6S-11-2.8-11-3.1z"/>
	<path class="st0" d="M-12.8-3.4c0-0.3-0.3-0.6-0.6-0.6S-14-3.7-14-3.4c0,0.3,0.3,0.6,0.6,0.6S-12.8-3.1-12.8-3.4z"/>
	<path class="st0" d="M-15.3-2.4c0-0.3-0.3-0.6-0.6-0.6c-0.3,0-0.6,0.3-0.6,0.6c0,0.3,0.3,0.6,0.6,0.6C-15.6-1.8-15.3-2.1-15.3-2.4z
		"/>
	<path class="st0" d="M-14.8-3.6c0-0.3-0.3-0.6-0.6-0.6C-15.7-4.2-16-4-16-3.6c0,0.3,0.3,0.6,0.6,0.6C-15.1-3.1-14.8-3.3-14.8-3.6z"
		/>
	<path class="st0" d="M-13.5-1.8c0-0.3-0.3-0.6-0.6-0.6c-0.3,0-0.6,0.3-0.6,0.6s0.3,0.6,0.6,0.6C-13.8-1.2-13.5-1.4-13.5-1.8z"/>
	<path class="st0" d="M-11.4-0.2c0-0.3-0.3-0.6-0.6-0.6c-0.3,0-0.6,0.3-0.6,0.6c0,0.3,0.3,0.6,0.6,0.6C-11.7,0.4-11.4,0.1-11.4-0.2z
		"/>
	<path class="st0" d="M-12.2,1.3c0-0.3-0.3-0.6-0.6-0.6c-0.3,0-0.6,0.3-0.6,0.6c0,0.3,0.3,0.6,0.6,0.6C-12.4,1.9-12.2,1.6-12.2,1.3z
		"/>
	<path class="st0" d="M-11.3-1.9c0-0.3-0.3-0.6-0.6-0.6c-0.3,0-0.6,0.3-0.6,0.6c0,0.3,0.3,0.6,0.6,0.6C-11.6-1.3-11.3-1.5-11.3-1.9z
		"/>
	<circle class="st0" cx="-1.8" cy="-5.4" r="0.6"/>
	<path class="st0" d="M-2.8-6.2c0-0.3-0.3-0.6-0.6-0.6C-3.7-6.8-4-6.5-4-6.2c0,0.3,0.3,0.6,0.6,0.6C-3.1-5.6-2.8-5.9-2.8-6.2z"/>
	<path class="st0" d="M-4.4-5.9c0-0.3-0.3-0.6-0.6-0.6c-0.3,0-0.6,0.3-0.6,0.6c0,0.3,0.3,0.6,0.6,0.6C-4.6-5.3-4.4-5.6-4.4-5.9z"/>
	<path class="st0" d="M-6.1-6.9c0-0.3-0.3-0.6-0.6-0.6c-0.3,0-0.6,0.3-0.6,0.6c0,0.3,0.3,0.6,0.6,0.6C-6.4-6.3-6.1-6.6-6.1-6.9z"/>
	<path class="st0" d="M-0.8-7c0-0.3-0.3-0.6-0.6-0.6c-0.3,0-0.6,0.3-0.6,0.6c0,0.3,0.3,0.6,0.6,0.6C-1-6.5-0.8-6.7-0.8-7z"/>
	<path class="st0" d="M1.7-5.2c0-0.3-0.3-0.6-0.6-0.6c-0.3,0-0.6,0.3-0.6,0.6c0,0.3,0.3,0.6,0.6,0.6C1.5-4.6,1.7-4.9,1.7-5.2z"/>
	<path class="st0" d="M-17-3.7c0-0.3-0.3-0.6-0.6-0.6c-0.3,0-0.6,0.3-0.6,0.6c0,0.3,0.3,0.6,0.6,0.6C-17.3-3.1-17-3.4-17-3.7z"/>
	<path class="st0" d="M1.7-7.1c0-0.3-0.3-0.6-0.6-0.6c-0.3,0-0.6,0.3-0.6,0.6c0,0.3,0.3,0.6,0.6,0.6C1.5-6.5,1.7-6.8,1.7-7.1z"/>
	<path class="st0" d="M4.9-7.7c0-0.3-0.3-0.6-0.6-0.6C4-8.3,3.8-8,3.8-7.7c0,0.3,0.3,0.6,0.6,0.6C4.7-7.1,4.9-7.4,4.9-7.7z"/>
	<path class="st0" d="M3.3-8.3c0-0.3-0.3-0.6-0.6-0.6c-0.3,0-0.6,0.3-0.6,0.6c0,0.3,0.3,0.6,0.6,0.6C3-7.8,3.3-8,3.3-8.3z"/>
	<path class="st0" d="M6.8-8.5c0-0.3-0.3-0.6-0.6-0.6c-0.3,0-0.6,0.3-0.6,0.6c0,0.3,0.3,0.6,0.6,0.6C6.5-7.9,6.8-8.2,6.8-8.5z"/>
	<path class="st0" d="M6.9-6.7c0-0.3-0.3-0.6-0.6-0.6C6-7.2,5.8-7,5.8-6.7c0,0.3,0.3,0.6,0.6,0.6C6.7-6.1,6.9-6.3,6.9-6.7z"/>
	<path class="st0" d="M9.5-6.9c0-0.3-0.3-0.6-0.6-0.6c-0.3,0-0.6,0.3-0.6,0.6c0,0.3,0.3,0.6,0.6,0.6C9.2-6.3,9.5-6.6,9.5-6.9z"/>
	<path class="st0" d="M5.2-5.9c0-0.3-0.3-0.6-0.6-0.6S4-6.2,4-5.9c0,0.3,0.3,0.6,0.6,0.6S5.2-5.5,5.2-5.9z"/>
	<path class="st0" d="M6.4-4.2c0-0.3-0.3-0.6-0.6-0.6c-0.3,0-0.6,0.3-0.6,0.6c0,0.3,0.3,0.6,0.6,0.6C6.1-3.6,6.4-3.9,6.4-4.2z"/>
	<path class="st0" d="M8.1-3.2c0-0.3-0.3-0.6-0.6-0.6c-0.3,0-0.6,0.3-0.6,0.6s0.3,0.6,0.6,0.6C7.8-2.6,8.1-2.9,8.1-3.2z"/>
	<path class="st0" d="M8-4.9c0-0.3-0.3-0.6-0.6-0.6c-0.3,0-0.6,0.3-0.6,0.6c0,0.3,0.3,0.6,0.6,0.6C7.8-4.3,8-4.5,8-4.9z"/>
	<path class="st0" d="M9.8-4.5c0-0.3-0.3-0.6-0.6-0.6c-0.3,0-0.6,0.3-0.6,0.6c0,0.3,0.3,0.6,0.6,0.6C9.5-3.9,9.8-4.2,9.8-4.5z"/>
	<path class="st0" d="M18.3-0.2c0-0.3-0.3-0.6-0.6-0.6c-0.3,0-0.6,0.3-0.6,0.6c0,0.3,0.3,0.6,0.6,0.6C18,0.3,18.3,0.1,18.3-0.2z"/>
	<path class="st0" d="M11.3-5.4c0-0.3-0.3-0.6-0.6-0.6c-0.3,0-0.6,0.3-0.6,0.6c0,0.3,0.3,0.6,0.6,0.6C11.1-4.9,11.3-5.1,11.3-5.4z"
		/>
	<path class="st0" d="M12.8-6c0-0.3-0.3-0.6-0.6-0.6S11.7-6.3,11.7-6c0,0.3,0.3,0.6,0.6,0.6S12.8-5.7,12.8-6z"/>
	<path class="st0" d="M11.4-3.7c0-0.3-0.3-0.6-0.6-0.6c-0.3,0-0.6,0.3-0.6,0.6c0,0.3,0.3,0.6,0.6,0.6C11.1-3.1,11.4-3.3,11.4-3.7z"
		/>
	<path class="st0" d="M10-2.8c0-0.3-0.3-0.6-0.6-0.6c-0.3,0-0.6,0.3-0.6,0.6c0,0.3,0.3,0.6,0.6,0.6C9.7-2.2,10-2.5,10-2.8z"/>
	<path class="st0" d="M9.9-0.4C9.9-0.7,9.6-1,9.3-1C9-1,8.8-0.7,8.8-0.4c0,0.3,0.3,0.6,0.6,0.6C9.6,0.1,9.9-0.1,9.9-0.4z"/>
	<path class="st0" d="M11-1.4C11-1.8,10.7-2,10.4-2c-0.3,0-0.6,0.3-0.6,0.6c0,0.3,0.3,0.6,0.6,0.6C10.7-0.9,11-1.1,11-1.4z"/>
	<path class="st0" d="M15.3-2.5c0-0.3-0.3-0.6-0.6-0.6c-0.3,0-0.6,0.3-0.6,0.6c0,0.3,0.3,0.6,0.6,0.6C15.1-2,15.3-2.2,15.3-2.5z"/>
	<path class="st0" d="M13.9-2c0-0.3-0.3-0.6-0.6-0.6c-0.3,0-0.6,0.3-0.6,0.6c0,0.3,0.3,0.6,0.6,0.6C13.6-1.4,13.9-1.6,13.9-2z"/>
	<path class="st0" d="M16.7-2c0-0.3-0.3-0.6-0.6-0.6c-0.3,0-0.6,0.3-0.6,0.6c0,0.3,0.3,0.6,0.6,0.6C16.4-1.4,16.7-1.7,16.7-2z"/>
	<path class="st0" d="M11.6,0.1c0-0.3-0.3-0.6-0.6-0.6c-0.3,0-0.6,0.3-0.6,0.6c0,0.3,0.3,0.6,0.6,0.6C11.4,0.6,11.6,0.4,11.6,0.1z"
		/>
	<path class="st0" d="M13.1-0.2c0-0.3-0.3-0.6-0.6-0.6c-0.3,0-0.6,0.3-0.6,0.6c0,0.3,0.3,0.6,0.6,0.6C12.9,0.4,13.1,0.1,13.1-0.2z"
		/>
	<path class="st0" d="M9.5,1.2c0-0.3-0.3-0.6-0.6-0.6c-0.3,0-0.6,0.3-0.6,0.6c0,0.3,0.3,0.6,0.6,0.6C9.2,1.8,9.5,1.6,9.5,1.2z"/>
	<path class="st0" d="M6.7,2.7c0-0.3-0.3-0.6-0.6-0.6S5.5,2.4,5.5,2.7c0,0.3,0.3,0.6,0.6,0.6S6.7,3.1,6.7,2.7z"/>
	<path class="st0" d="M8.1,2.1c0-0.3-0.3-0.6-0.6-0.6c-0.3,0-0.6,0.3-0.6,0.6c0,0.3,0.3,0.6,0.6,0.6C7.8,2.6,8.1,2.4,8.1,2.1z"/>
	<path class="st0" d="M7.9,3.7c0-0.3-0.3-0.6-0.6-0.6C7,3.2,6.8,3.4,6.8,3.7c0,0.3,0.3,0.6,0.6,0.6C7.6,4.3,7.9,4.1,7.9,3.7z"/>
	<path class="st0" d="M9.6,2.9c0-0.3-0.3-0.6-0.6-0.6c-0.3,0-0.6,0.3-0.6,0.6c0,0.3,0.3,0.6,0.6,0.6C9.3,3.5,9.6,3.2,9.6,2.9z"/>
	<path class="st0" d="M11.1,3.6c0-0.3-0.3-0.6-0.6-0.6S10,3.3,10,3.6c0,0.3,0.3,0.6,0.6,0.6S11.1,3.9,11.1,3.6z"/>
	<path class="st0" d="M12.1,4.7c0-0.3-0.3-0.6-0.6-0.6c-0.3,0-0.6,0.3-0.6,0.6c0,0.3,0.3,0.6,0.6,0.6C11.9,5.2,12.1,5,12.1,4.7z"/>
	<path class="st0" d="M12.7,3.2c0-0.3-0.3-0.6-0.6-0.6s-0.6,0.3-0.6,0.6c0,0.3,0.3,0.6,0.6,0.6S12.7,3.6,12.7,3.2z"/>
	<path class="st0" d="M10.9,1.7c0-0.3-0.3-0.6-0.6-0.6S9.8,1.4,9.8,1.7c0,0.3,0.3,0.6,0.6,0.6S10.9,2.1,10.9,1.7z"/>
	<path class="st0" d="M-5.9-4.3c0-0.3-0.3-0.6-0.6-0.6c-0.3,0-0.6,0.3-0.6,0.6c0,0.3,0.3,0.6,0.6,0.6C-6.2-3.7-5.9-4-5.9-4.3z"/>
	<path class="st0" d="M-9.6-4.1c0-0.3-0.3-0.6-0.6-0.6c-0.3,0-0.6,0.3-0.6,0.6c0,0.3,0.3,0.6,0.6,0.6C-9.9-3.5-9.6-3.8-9.6-4.1z"/>
	<path class="st0" d="M-8.4,2.2c0-0.3-0.3-0.6-0.6-0.6c-0.3,0-0.6,0.3-0.6,0.6c0,0.3,0.3,0.6,0.6,0.6C-8.7,2.7-8.4,2.5-8.4,2.2z"/>
	<path class="st0" d="M-13.9,2.2c0-0.3-0.3-0.6-0.6-0.6S-15,1.8-15,2.2c0,0.3,0.3,0.6,0.6,0.6S-13.9,2.5-13.9,2.2z"/>
	<path class="st0" d="M-14.1,4.2c0-0.3-0.3-0.6-0.6-0.6c-0.3,0-0.6,0.3-0.6,0.6c0,0.3,0.3,0.6,0.6,0.6C-14.4,4.7-14.1,4.5-14.1,4.2z
		"/>
	<path class="st0" d="M-17.1,3.4c0-0.3-0.3-0.6-0.6-0.6c-0.3,0-0.6,0.3-0.6,0.6c0,0.3,0.3,0.6,0.6,0.6C-17.4,4-17.1,3.7-17.1,3.4z"
		/>
	<path class="st0" d="M-10.1-5.6c0-0.3-0.3-0.6-0.6-0.6c-0.3,0-0.6,0.3-0.6,0.6c0,0.3,0.3,0.6,0.6,0.6C-10.4-5-10.1-5.3-10.1-5.6z"
		/>
	<path class="st0" d="M-11.3-4.6c0-0.3-0.3-0.6-0.6-0.6s-0.6,0.3-0.6,0.6c0,0.3,0.3,0.6,0.6,0.6S-11.3-4.3-11.3-4.6z"/>
	<path class="st0" d="M-14.5-6.4c0-0.3-0.3-0.6-0.6-0.6c-0.3,0-0.6,0.3-0.6,0.6c0,0.3,0.3,0.6,0.6,0.6C-14.8-5.8-14.5-6.1-14.5-6.4z
		"/>
	<path class="st0" d="M-13-5.4c0-0.3-0.3-0.6-0.6-0.6s-0.6,0.3-0.6,0.6c0,0.3,0.3,0.6,0.6,0.6S-13-5.1-13-5.4z"/>
	<path class="st0" d="M-4.2-2.3c0-0.3-0.3-0.6-0.6-0.6c-0.3,0-0.6,0.3-0.6,0.6c0,0.3,0.3,0.6,0.6,0.6C-4.5-1.7-4.2-2-4.2-2.3z"/>
	<path class="st0" d="M-6.5-1.1c0-0.3-0.3-0.6-0.6-0.6c-0.3,0-0.6,0.3-0.6,0.6c0,0.3,0.3,0.6,0.6,0.6C-6.8-0.6-6.5-0.8-6.5-1.1z"/>
	<path class="st0" d="M-9.9-1.1c0-0.3-0.3-0.6-0.6-0.6c-0.3,0-0.6,0.3-0.6,0.6c0,0.3,0.3,0.6,0.6,0.6C-10.2-0.6-9.9-0.8-9.9-1.1z"/>
	<path class="st0" d="M-7.6-2.3c0-0.3-0.3-0.6-0.6-0.6c-0.3,0-0.6,0.3-0.6,0.6c0,0.3,0.3,0.6,0.6,0.6C-7.9-1.7-7.6-2-7.6-2.3z"/>
	<path class="st0" d="M-4.6-0.7c0-0.3-0.3-0.6-0.6-0.6c-0.3,0-0.6,0.3-0.6,0.6c0,0.3,0.3,0.6,0.6,0.6C-4.8-0.1-4.6-0.4-4.6-0.7z"/>
	<path class="st0" d="M5.6,3.7c0-0.3-0.3-0.6-0.6-0.6S4.5,3.4,4.5,3.7c0,0.3,0.3,0.6,0.6,0.6S5.6,4.1,5.6,3.7z"/>
	<path class="st0" d="M6.4,6c0-0.3-0.3-0.6-0.6-0.6C5.5,5.4,5.2,5.7,5.2,6c0,0.3,0.3,0.6,0.6,0.6C6.1,6.6,6.4,6.3,6.4,6z"/>
	<path class="st0" d="M4.9,7.2c0-0.3-0.3-0.6-0.6-0.6C4,6.7,3.7,6.9,3.7,7.2c0,0.3,0.3,0.6,0.6,0.6C4.6,7.8,4.9,7.6,4.9,7.2z"/>
	<path class="st0" d="M6.1,8c0-0.3-0.3-0.6-0.6-0.6C5.2,7.4,5,7.7,5,8c0,0.3,0.3,0.6,0.6,0.6C5.9,8.6,6.1,8.3,6.1,8z"/>
	<path class="st0" d="M8.1,8.5c0-0.3-0.3-0.6-0.6-0.6C7.2,7.9,7,8.2,7,8.5c0,0.3,0.3,0.6,0.6,0.6C7.8,9.1,8.1,8.8,8.1,8.5z"/>
	<path class="st0" d="M1.4,2.5c0-0.3-0.3-0.6-0.6-0.6c-0.3,0-0.6,0.3-0.6,0.6c0,0.3,0.3,0.6,0.6,0.6C1.1,3.1,1.4,2.8,1.4,2.5z"/>
	<path class="st0" d="M3.9,5.4c0-0.3-0.3-0.6-0.6-0.6S2.8,5.1,2.8,5.4C2.8,5.7,3,6,3.3,6S3.9,5.7,3.9,5.4z"/>
	<path class="st0" d="M0.5,5.9c0-0.3-0.3-0.6-0.6-0.6c-0.3,0-0.6,0.3-0.6,0.6c0,0.3,0.3,0.6,0.6,0.6C0.3,6.4,0.5,6.2,0.5,5.9z"/>
	<path class="st0" d="M-2.9,5.9c0-0.3-0.3-0.6-0.6-0.6C-3.8,5.3-4,5.5-4,5.9c0,0.3,0.3,0.6,0.6,0.6C-3.1,6.4-2.9,6.2-2.9,5.9z"/>
	<path class="st0" d="M-0.6,4.7c0-0.3-0.3-0.6-0.6-0.6c-0.3,0-0.6,0.3-0.6,0.6c0,0.3,0.3,0.6,0.6,0.6C-0.8,5.3-0.6,5-0.6,4.7z"/>
	<path class="st0" d="M2.8,6.7c0-0.3-0.3-0.6-0.6-0.6c-0.3,0-0.6,0.3-0.6,0.6c0,0.3,0.3,0.6,0.6,0.6C2.6,7.3,2.8,7,2.8,6.7z"/>
	<path class="st0" d="M1.3,8.2c0-0.3-0.3-0.6-0.6-0.6c-0.3,0-0.6,0.3-0.6,0.6c0,0.3,0.3,0.6,0.6,0.6C1.1,8.8,1.3,8.5,1.3,8.2z"/>
	<path class="st0" d="M3.3,8.5c0-0.3-0.3-0.6-0.6-0.6c-0.3,0-0.6,0.3-0.6,0.6c0,0.3,0.3,0.6,0.6,0.6C3.1,9.1,3.3,8.8,3.3,8.5z"/>
	<path class="st0" d="M6.7,1.2c0-0.3-0.3-0.6-0.6-0.6c-0.3,0-0.6,0.3-0.6,0.6c0,0.3,0.3,0.6,0.6,0.6C6.4,1.8,6.7,1.5,6.7,1.2z"/>
	<path class="st0" d="M0.8,3.9c0-0.3-0.3-0.6-0.6-0.6c-0.3,0-0.6,0.3-0.6,0.6c0,0.3,0.3,0.6,0.6,0.6C0.6,4.5,0.8,4.2,0.8,3.9z"/>
	<path class="st0" d="M-2.6,3.9c0-0.3-0.3-0.6-0.6-0.6c-0.3,0-0.6,0.3-0.6,0.6c0,0.3,0.3,0.6,0.6,0.6C-2.8,4.5-2.6,4.2-2.6,3.9z"/>
	<path class="st0" d="M-0.3,2.7c0-0.3-0.3-0.6-0.6-0.6c-0.3,0-0.6,0.3-0.6,0.6c0,0.3,0.3,0.6,0.6,0.6C-0.6,3.3-0.3,3.1-0.3,2.7z"/>
	<path class="st0" d="M2.8,4.3c0-0.3-0.3-0.6-0.6-0.6C1.9,3.7,1.6,4,1.6,4.3c0,0.3,0.3,0.6,0.6,0.6C2.5,4.9,2.8,4.6,2.8,4.3z"/>
	<path class="st0" d="M-1.7,0.6C-1.7,0.3-1.9,0-2.2,0c-0.3,0-0.6,0.3-0.6,0.6c0,0.3,0.3,0.6,0.6,0.6C-1.9,1.1-1.7,0.9-1.7,0.6z"/>
</symbol>
<ellipse class="st1" cx="172.5" cy="162.8" rx="152.2" ry="145.6"/>
<use xlink:href="#Frosted_Beads"  width="36.6" height="18.1" x="-18.3" y="-9.1" transform="matrix(1 0 0 -2.4291 266.7073 209.6375)" style="overflow:visible;"/>
<use xlink:href="#Frosted_Beads"  width="36.6" height="18.1" x="-18.3" y="-9.1" transform="matrix(1 0 0 -2.4291 254.867 190.0166)" style="overflow:visible;"/>
<use xlink:href="#Frosted_Beads"  width="36.6" height="18.1" x="-18.3" y="-9.1" transform="matrix(1 0 0 -2.4291 244.8211 219.8212)" style="overflow:visible;"/>
<use xlink:href="#Frosted_Beads"  width="36.6" height="18.1" x="-18.3" y="-9.1" transform="matrix(1 0 0 -2.4291 247.4466 181.2623)" style="overflow:visible;"/>
<use xlink:href="#Frosted_Beads"  width="36.6" height="18.1" x="-18.3" y="-9.1" transform="matrix(1 0 0 -2.4291 226.5333 57.6265)" style="overflow:visible;"/>
<use xlink:href="#Frosted_Beads"  width="36.6" height="18.1" x="-18.3" y="-9.1" transform="matrix(1 0 0 -2.4291 221.7367 79.6624)" style="overflow:visible;"/>
<use xlink:href="#Frosted_Beads"  width="36.6" height="18.1" x="-18.3" y="-9.1" transform="matrix(1 0 0 -2.4291 212.4227 50.5617)" style="overflow:visible;"/>
<use xlink:href="#Frosted_Beads"  width="36.6" height="18.1" x="-18.3" y="-9.1" transform="matrix(1.2849 0 0 -2.4291 156.3098 254.1839)" style="overflow:visible;"/>
<use xlink:href="#Frosted_Beads"  width="36.6" height="18.1" x="-18.3" y="-9.1" transform="matrix(1 0 0 -2.4291 125.6303 261.3797)" style="overflow:visible;"/>
<use xlink:href="#Frosted_Beads"  width="36.6" height="18.1" x="-18.3" y="-9.1" transform="matrix(1 0 0 -2.4291 143.5844 236.457)" style="overflow:visible;"/>
<use xlink:href="#Frosted_Beads"  width="36.6" height="18.1" x="-18.3" y="-9.1" transform="matrix(1 0 0 -2.4291 173.382 243.6919)" style="overflow:visible;"/>
<use xlink:href="#Frosted_Beads"  width="36.6" height="18.1" x="-18.3" y="-9.1" transform="matrix(1 0 0 -2.4291 61.3037 194.6589)" style="overflow:visible;"/>
<use xlink:href="#Frosted_Beads"  width="36.6" height="18.1" x="-18.3" y="-9.1" transform="matrix(1 0 0 -2.4291 52.0662 169.6566)" style="overflow:visible;"/>
<use xlink:href="#Frosted_Beads"  width="36.6" height="18.1" x="-18.3" y="-9.1" transform="matrix(1 0 0 -2.4291 79.5916 190.4009)" style="overflow:visible;"/>
<use xlink:href="#Frosted_Beads"  width="36.6" height="18.1" x="-18.3" y="-9.1" transform="matrix(1 0 0 -2.4291 138.7776 128.429)" style="overflow:visible;"/>
<use xlink:href="#Frosted_Beads"  width="36.6" height="18.1" x="-18.3" y="-9.1" transform="matrix(1 0 0 -2.4291 120.3137 115.9437)" style="overflow:visible;"/>
<use xlink:href="#Frosted_Beads"  width="36.6" height="18.1" x="-18.3" y="-9.1" transform="matrix(1 0 0 -2.4291 118.4758 80.9351)" style="overflow:visible;"/>
<use xlink:href="#Frosted_Beads"  width="36.6" height="18.1" x="-18.3" y="-9.1" transform="matrix(1 0 0 -2.4291 135.7126 88.8022)" style="overflow:visible;"/>
<use xlink:href="#Frosted_Beads"  width="36.6" height="18.1" x="-18.3" y="-9.1" transform="matrix(1.5244 0 0 -2.4291 287.871 123.6034)" style="overflow:visible;"/>
<use xlink:href="#Frosted_Beads"  width="36.6" height="18.1" x="-18.3" y="-9.1" transform="matrix(1 0 0 -2.4291 178.7073 178.6375)" style="overflow:visible;"/>
<use xlink:href="#Frosted_Beads"  width="36.6" height="18.1" x="-18.3" y="-9.1" transform="matrix(1 0 0 -2.4291 162.904 41.0427)" style="overflow:visible;"/>
<use xlink:href="#Frosted_Beads"  width="36.6" height="18.1" x="-18.3" y="-9.1" transform="matrix(1 0 0 -2.4291 54.6917 105.2387)" style="overflow:visible;"/>
<use xlink:href="#Frosted_Beads"  width="36.6" height="18.1" x="-18.3" y="-9.1" transform="matrix(1 0 0 -2.4291 220.2325 271.9357)" style="overflow:visible;"/>
<use xlink:href="#Frosted_Beads"  width="36.6" height="18.1" x="-18.3" y="-9.1" transform="matrix(1 0 0 -2.4291 211.6646 129.15)" style="overflow:visible;"/>
</svg>
