<?xml version="1.0" encoding="utf-8"?>
<!-- Generator: Adobe Illustrator 22.0.1, SVG Export Plug-In . SVG Version: 6.00 Build 0)  -->
<svg version="1.1" id="Layer_1" xmlns="http://www.w3.org/2000/svg" xmlns:xlink="http://www.w3.org/1999/xlink" x="0px" y="0px"
	 viewBox="0 0 283.5 283.5" style="enable-background:new 0 0 283.5 283.5;" xml:space="preserve">
<style type="text/css">
	.st0{opacity:0.8;}
	.st1{opacity:0.5;fill:#EB5D40;enable-background:new    ;}
	.st2{fill:#EB5D40;}
	.st3{opacity:0.1;fill:#EB5D40;enable-background:new    ;}
	.st4{opacity:0.3;fill:#EB5D40;enable-background:new    ;}
	.st5{opacity:0.7;fill:#EB5D40;enable-background:new    ;}
	.st6{opacity:0.8;fill:#EB5D40;enable-background:new    ;}
	.st7{opacity:0.3;}
	.st8{fill:#004F68;stroke:#231F20;stroke-linecap:round;stroke-miterlimit:10;}
	.st9{fill:url(#SVGID_1_);stroke:#000000;stroke-width:0.25;stroke-miterlimit:10;}
</style>
<symbol  id="Firework" viewBox="-61.5 -84.4 122.9 168.8">
	<g class="st0">
		<g>
			<path class="st1" d="M-25.4,30.7c-7.6,2.2-20.5,6.2-25.4,6.2s-12.4-3.4-10.3-3.9c2.2-0.6,7.6,2.8,14.1,1.7
				C-40.5,33.5-25.4,30.7-25.4,30.7z"/>
			<path class="st2" d="M14.1,28.2c2.4,1.7,17.3,5,23.5,4.8c6.2-0.3,11.1-2.8,11.3-3.6c0.3-0.8-3-0.6-6.8,0.6
				c-3.8,1.1-13.3,0.3-19.7-0.3C15.7,29.1,14.1,28.2,14.1,28.2z"/>
			<path class="st2" d="M15.2,27.7c1.6,0.6,21.3,1.4,25.9,0s7.8-2.8,6.2-3.6c-1.6-0.8-4.1,2-12.4,2.5C26.5,27.1,15.2,27.7,15.2,27.7
				z"/>
			<path class="st2" d="M-14.3,28.6c-1.6,0.7-21.2,2.7-25.9,1.6c-2.8-0.7-8.2-2.6-6-2.8c1.6-0.2,5.4,1.3,12.1,2
				C-25.7,30.3-14.3,28.6-14.3,28.6z"/>
			<path class="st1" d="M-24.8,26.1C-28,27.8-64.2,10.4-60.5,9.9c3.8-0.6,7.6,4.5,15.1,6.7C-37.8,18.8-24.8,26.1-24.8,26.1z"/>
			<path class="st1" d="M28.4,24.9c4.3,0,22.4-6.1,24.6-10.1c2.2-3.9,2.7-7.8,0-5s-4.9,7.8-11.3,9.5C35.2,21,28.4,24.9,28.4,24.9z"
				/>
			<path class="st3" d="M-24.8,21c-2.7,0.3-18.1-8.9-23.2-13.1S-60.4-2.7-58-2.7s11.9,11.2,19.5,15.9C-31,18-24.8,21-24.8,21z"/>
			<path class="st2" d="M49.2,23.3c1.9-0.8,5.7-3.4,7.6-5c1.9-1.7,2.4-5,4.1-3.4c1.6,1.7-0.3,4.2-3.5,5.9
				C54.1,22.4,49.2,23.3,49.2,23.3z"/>
			<path class="st1" d="M41.6,9.3c3-2.6,3.8-5,5.4-7.5c1.6-2.5,1.4-3.4,0.3-2.5c-1.1,0.8-1.1,3.1-6.8,7.8c-5.7,4.8-17,9.8-19.7,11.2
				C18.1,19.6,38.4,12.1,41.6,9.3z"/>
			<path class="st4" d="M48.1-6.6c0.3-2.8,1.4-7.5,1.4-10.9s0.3-7,1.3-5.9c1.1,1.1,1.9,7.8,0.5,10.9C50-9.4,48.1-6.6,48.1-6.6z"/>
			<path class="st2" d="M15.2,10.7c1.6-2,11.6-11.5,16.5-19c4.1-6.4,4.6-10.3,4.1-12c-0.5-1.7-4.6,6.1-4.9,8.7
				C30.6-9.1,25-0.4,22,2.7C18.9,5.7,15.2,10.7,15.2,10.7z"/>
			<path class="st2" d="M34.1-24.8c-0.5-3.4-1.1-9.8-0.3-12s1.1,1.1,1.1,4.5C34.9-29,34.1-24.8,34.1-24.8z"/>
			<path class="st3" d="M-47.6,25.9c-1.9-0.7-5.9-3-7.8-4.6c-2-1.6-2.7-4.9-4.2-3.1s0.5,4.2,3.8,5.6C-52.5,25.3-47.6,25.9-47.6,25.9
				z"/>
			<path class="st2" d="M-43.3,10.3c-2.9-3.2-4.6-4.8-6.4-7.2c-1.8-2.4-1.5-3.3-0.4-2.5s3.2,4.6,9.2,8.9c5.9,4.4,17.6,8.7,20.3,9.9
				C-17.8,20.7-40.4,13.5-43.3,10.3z"/>
			<path class="st3" d="M-49.2-3.6c-0.4-2.8-1.8-7.5-2-10.8s-0.7-7-1.7-5.8c-1,1.2-1.4,7.9,0.1,10.9C-51.3-6.3-49.2-3.6-49.2-3.6z"
				/>
			<path class="st2" d="M-16.1,11.9c-1.7-1.9-11.5-11-16.8-18.2c-4.5-6.2-5.2-10-4.7-11.7c0.4-1.7,4.9,5.9,5.4,8.4
				c0.4,2.5,6.6,10.8,9.7,13.7C-19.4,6.9-16.1,11.9-16.1,11.9z"/>
			<path class="st2" d="M-36.2-22.6c0.3-3.4,0.5-9.8-0.4-12c-0.9-2.2-1,1.2-0.8,4.5C-37.3-26.8-36.2-22.6-36.2-22.6z"/>
			<path class="st1" d="M-11.3,6.5c-1.4-3.4-7.8-18.2-8.9-23.5s-1.1-12,0-13.1s0.8,8.9,3,15.9C-15.1-7.2-11.3,6.5-11.3,6.5z"/>
			<path class="st2" d="M-2.7,7.6C-3.2,4.8-3.8,1.5-3.5-3.8C-3.2-9.2-4-25.9-2.1-23.1S-1.3-9.7-1.8-1.3C-2.4,7.1-2.7,7.6-2.7,7.6z"
				/>
			<path class="st1" d="M5.2,7.9C6,6.5,11.4-8.3,12.5-15.3s1.1-12.6,2.4-14.3c1.4-1.7,1.4,10.1-0.3,15.4C13-8.9,12.5-6.4,11.1-3.3
				C9.8-0.2,5.2,7.9,5.2,7.9z"/>
			<path class="st2" d="M-21.6-29.7c-0.5-2-4.1-7.8-3.8-11.7c0.3-3.9,1.4-8.1,1.9-6.7c0.5,1.4,0,3.9,0.3,7.3
				C-23-37.5-21.6-29.7-21.6-29.7z"/>
			<path class="st2" d="M-2.4-31.1c0-2.5-0.1-8.3-0.8-12.6c-0.8-5,0.5-10.8,1.4-9.8c1,1.2,1.1,8.4,1.1,10.1
				C-0.8-41.7-2.4-31.1-2.4-31.1z"/>
			<path class="st2" d="M16.8-27.2c0.3-2,1.3-4.8,1.6-8.4c0.3-3.6-0.8-8.9,1.6-8.4c2.4,0.6,0.8,7.5-0.3,10.1
				C18.6-31.4,16.8-27.2,16.8-27.2z"/>
			<path class="st2" d="M10.6,23.8c4.3,0.8,25.7-3.4,29.2-6.2s7.8-3.9,7.3-5.6s-3.8,3.1-15.1,5.9C20.6,20.8,10.6,23.8,10.6,23.8z"/>
			<path class="st5" d="M13.3,16.6c1.9-0.8,8.6-5,11.9-8.7c3.2-3.6,8.1-9.8,8.6-12s0.5-4.5-0.5-3.4C32.2-6.4,26.5,2.9,23,6.8
				S13.3,16.6,13.3,16.6z"/>
			<path class="st1" d="M0.8,10.7c1.6-4.2,5.7-28,5.9-32.7c0.3-4.8-0.5-8.1-1.6-7.8c-1,0.2-3.2,24.8-3.7,29
				C0.8,3.4,0.8,10.7,0.8,10.7z"/>
			<path class="st2" d="M-6.5,3.1c-1.6-2.8-4.1-24-4.1-28.5s-0.3-8.1-1.9-6.7c-1.6,1.4,2.2,19.8,3,27.4C-8.6,2.9-6.5,3.1-6.5,3.1z"
				/>
			<path class="st6" d="M-21-5.2c-0.3-1.7-3-8.4-2.7-3.1s10.2,22.7,11.6,24c2.6,2.4-1.4-4.8-4.3-11.2C-19.4-1.9-21-5.2-21-5.2z"/>
			<path class="st6" d="M-12.9,26.6c-1.4,1.1-18.6-2-23-3.4c-4.3-1.4-6.8-5.3-5.4-5.6c1.3-0.3,6.2,3.9,13.5,5.3
				C-20.5,24.4-12.9,26.6-12.9,26.6z"/>
			<path class="st6" d="M0.8,23c3.2-0.3,12.7-2.2,15.4-7s5.7-10.1,4.6-10.9c-1.1-0.8-4.6,7-6.8,9.8C11.9,17.7,0.8,23,0.8,23z"/>
			<path class="st2" d="M-0.5,20.5c2.7-1.1,14-17.9,15.1-22.9s0.3-7.8,0-5.6C14.4-5.8,6.2,6.8,4.4,10.4C2.4,14.1-0.5,20.5-0.5,20.5z
				"/>
			<path class="st2" d="M-4,21C-5.4,17.4-8.1-4.7-8.1-8.6s-0.8-6.4-1.1-4.2C-9.4-10.6-11-1.1-9.4,3.7S-4,21-4,21z"/>
			<path class="st6" d="M-3.2,23c-1.3,0-16.3-7.9-19.2-12.6c-1.9-3.1-5.4-4.8-6.2-3.9c-0.8,0.8,9.8,9.6,12.4,11.5
				C-13.1,20.1-3.2,23-3.2,23z"/>
			<path class="st2" d="M-44-19.2c-1.9-1.4-3-1.7-1.9,0.6c1.1,2.2,8.2,12.8,11.3,16.8c3.1,3.8,6.2,6.1,6.2,6.1S-37-5.5-38.9-9.2
				C-40.8-12.8-44-19.2-44-19.2z"/>
			<path class="st2" d="M18.4-0.5C20-3.6,23.3-17,23.8-22s-0.3-9.5,1.4-7.5c1.6,2-1.9,14.8-3.2,18.7C20.6-6.9,18.4-0.5,18.4-0.5z"/>
			<g class="st7">
				<path class="st2" d="M-13.5-53.7c-1.1-4.5,0-11.2,1.1-15.1s0.5-12.9,2.7-10.1s-0.5,10.1-2.2,15.1
					C-13.5-58.7-13.5-53.7-13.5-53.7z"/>
			</g>
			<path class="st4" d="M13.5-59.8C14-63.2,14-70.4,13-73.2c-1.1-2.8-4.3-10.6-1.6-11.2s3.2,10.6,3.2,15.1
				C14.6-64.9,13.5-59.8,13.5-59.8z"/>
			<path class="st1" d="M-25.4,14.2c-1.9-1.1-7-6.1-10.3-8.7C-38.9,3.1-44-3.4-45.9-7.3s-4.1-8.4-2.2-8.1c1.9,0.3,4.6,7.5,6.5,11.5
				C-39.7,0-25.4,14.2-25.4,14.2z"/>
			<g>
				<path class="st2" d="M8.4,12.8c1.3-1.1,8.9-10.1,11.9-15.9c3-5.9,2.4-10.6,3.5-9.5S21.4-0.6,17,5C12.7,10.6,8.4,12.8,8.4,12.8z"
					/>
			</g>
			<path class="st5" d="M-7.3,24.9c-1.9,0-13.8-0.4-17.6-3.8s-8.9-11.5-5.7-9.3s5.1,7.3,8.6,8.9C-18.3,22.3-7.3,24.9-7.3,24.9z"/>
			<path class="st5" d="M-2.1,21.5c0.8-1.7,8.4-23.8,8.4-30.2s-1.4-9.2-1.9-7C3.8-13.4,1.9,1.9,0.3,8.9S-2.1,21.5-2.1,21.5z"/>
			<path class="st6" d="M0.3,25.4c3.7,1.7,18.1,2.7,21.6,0c3-2.2,6.2-6.1,4.3-5.9c-1.9,0.3-5.1,4.7-10.8,5.3
				C9.8,25.4,0.3,25.4,0.3,25.4z"/>
			<path class="st1" d="M-4.6,40.1c-1.1,3.6-8.6,17.5-11.3,20.1s-4.6,4.9-2.4,4.6s7.3-7.7,9.2-12.4C-7.3,47.9-4.6,40.1-4.6,40.1z"/>
			<path class="st1" d="M-14,39.6c-1.6,2.1-11.9,16-16.2,18.5c-4.3,2.6-6.5,3.6-3.5,4.4c3,0.8,11.1-7.5,13.2-11.6
				C-18.3,46.8-14,39.6-14,39.6z"/>
			<path class="st2" d="M-26.4,35c-2.7,1-14.6,7.7-19.2,8.5s-11.1,1.5-10.3,0.3c0.8-1.3,7.3-0.5,12.7-2.3
				C-37.8,39.6-26.4,35-26.4,35z"/>
			<path class="st2" d="M-9.2,65.9c-0.8,5.7-3,10.8-3.5,12.6c-0.5,1.8-1.1,3.6,0.5,2.1s1.4-3.3,2.3-6.4C-9.1,71.1-9.2,65.9-9.2,65.9
				z"/>
			<path class="st3" d="M-2.7,72.3c0,1.8-0.3,12.1,1.4,12.1c1.6,0,0.8-4.4,0.5-5.7C-1.1,77.5-2.7,72.3-2.7,72.3z"/>
			<path class="st4" d="M8.4,68.7c0.5,2.1,3.2,10,4.3,9.5s-0.3-4.1-1.9-6.4C9.2,69.5,8.4,68.7,8.4,68.7z"/>
			<path class="st2" d="M14.1,63.1c1.5,2.2,7.6,9.9,9.5,10.3c2.7,0.5,4.6,1.8,4.1,0.3s-2.7-1.5-5.4-3.6C19.5,68,14.1,63.1,14.1,63.1
				z"/>
			<g>
				<path class="st2" d="M0.8,39.4c1.1,2.3,2.2,10,5.7,17.5s6.5,10,5.9,8.8c-0.5-1.3-4.3-8-5.9-12.1C4.9,49.4,0.8,39.4,0.8,39.4z"/>
			</g>
			<path class="st6" d="M-3.5,35.5c0,4.4,0.3,17.5-0.3,22.4c-0.5,4.9,0.5,8.8,0.8,7s0.8-14.7,0.5-20.1C-2.7,39.4-3.5,35.5-3.5,35.5z
				"/>
			<path class="st2" d="M-9.2,60c0,1.5,0.5,3.4,1.1,1.5c0.5-1.8,1.1-20.6,1.1-24S-7.3,29-7.3,29s-1.4,16.7-1.4,21.1
				C-8.6,54.6-9.2,60-9.2,60z"/>
			<path class="st4" d="M-20,60.5c-0.5,3.1-1.9,8.8-4.1,10.6c-2.2,1.8-5.1,3.6-4.6,2.3c0.5-1.3,3.2-3.3,4.9-5.9
				C-22.1,64.9-20,60.5-20,60.5z"/>
			<path class="st2" d="M-16.2,51.7c-0.8,2.1-4.1,5.9-3.5,7.2c0.5,1.3,4.1-3.3,5.1-8c1.1-4.6,1.6-2.6,2.7-10c1.1-7.5,1.6-10,1.6-10
				s-3,11.9-3.8,14.4C-14.8,47.9-16.2,51.7-16.2,51.7z"/>
			<path class="st2" d="M-11.6,28.8c-1.6,3.6-3,7.5-7.3,13.9s-10,14.7-10.8,13.4s9.5-14.7,11.6-18C-15.9,34.7-11.6,28.8-11.6,28.8z"
				/>
			<path class="st4" d="M-28.3,64c3-3.1,5.9-5.2,5.9-5.2c-2.2,4.1-8.1,10.8-10.5,11.1s-3.5-0.5-1.9-1.3L-28.3,64z"/>
			<g>
				<path class="st2" d="M-37.5,62c-1.9,0.5-4.1,1-6.2,1c-2.2,0-3.2,2.1-1.4,2.1c1.9,0,4.3-0.8,5.1-1C-39.1,63.8-37.5,62-37.5,62z"
					/>
			</g>
			<path class="st1" d="M-38.3,51.7c-1.6,3.3-5.9,7.2-8.6,7c-2.7-0.3-4.9,0.8-3.8-0.8c1.1-1.5,3.2-1.3,5.9-2.3
				C-42.1,54.6-38.3,51.7-38.3,51.7z"/>
			<g class="st0">
				<path class="st2" d="M-35.1,48.6c-0.5,1.5-0.8,2.6,0.8,1.5c1.6-1,9.5-9.8,11.9-13.1c2.4-3.4,3.2-5.2,3.2-5.2s-7.6,8.8-9.7,10.8
					C-31,44.8-35.1,48.6-35.1,48.6z"/>
			</g>
			<path class="st6" d="M1.9,33.7c2.4,3.4,10.3,20.6,12.4,22.2c2.2,1.5,4.6,5.4,5.4,4.6c0.8-0.8-4.3-6.4-6.8-9
				c-2.4-2.6-8.1-14.4-8.6-15C3.8,36,1.9,33.7,1.9,33.7z"/>
			<path class="st3" d="M26.1,61.4c1.9,1.5,9.3,5.4,11.2,6.6c1.9,1.2,6.4,2.2,3.5,2.6s-8.1-3.1-10.6-4.4
				C27.8,64.9,26.1,61.4,26.1,61.4z"/>
			<path class="st6" d="M5.4,30.9c4.1,4.6,16.3,17.4,18.4,19.3c3.2,3.1,5.1,5.9,6.2,4.1c1.1-1.8-3.5-3.3-5.9-6.4
				c-1.4-1.8-4.3-4.6-7.6-7.2C13.3,38.1,5.4,30.9,5.4,30.9z"/>
			<path class="st1" d="M26.2,54.8c1.1,1.8,10.3,5.7,13.2,6.4c3,0.8,5.4,0.8,5.1-0.3c-0.3-1-0.8-0.8-7.8-2.6
				C29.8,56.6,26.2,54.8,26.2,54.8z"/>
			<path class="st1" d="M6.5,28.3c2.2,2.3,16.8,11.8,21.6,13.1c4.9,1.3,11.1,2.8,11.9,1.8s-6.2-2.3-12.4-4.1
				C21.4,37.3,6.5,28.3,6.5,28.3z"/>
			<path class="st4" d="M44.6,43.2c2.4,0,6.5-1.3,9.7-2.8s5.4-3.6,6.2-2.1S52.4,44,49.4,44C46.5,44,44.6,43.2,44.6,43.2z"/>
			<path class="st2" d="M-4.6,30.6C-4.8,34.5-8.1,44-9.4,47.1s-6.2,10.8-4.6,10.8s7.3-13.1,8.1-17C-5.1,37.1-4.6,30.6-4.6,30.6z"/>
			<path class="st2" d="M-1.3,31.6c0.5,3.4,6.8,18.1,9.7,21.6c1.9,2.3,4.3,4.9,5.9,2.6c0.7-1-6.5-4.6-7.8-7.5
				C5.1,45.3-1.3,31.6-1.3,31.6z"/>
			<path class="st5" d="M1.9,28.6c1.6,2.6,9.7,15.1,13.5,18.3c4.1,3.3,7.6,3.3,7.3,2.1c-0.3-1.3-4.3-2.6-5.9-4.1
				c-1-1-5.4-4.6-7.8-7.7C6.5,34,1.9,28.6,1.9,28.6z"/>
			<path class="st6" d="M-7.8,27.8c0,0-11.9,14.4-17.6,15.7c-5.7,1.3-8.4,2.6-8.4,1.3s5.1-1.8,8.4-3.4c3.2-1.5,8.4-5.4,10.5-7.7
				C-12.7,31.4-7.8,27.8-7.8,27.8z"/>
			<path class="st6" d="M6.8,28c5.7,5.9,21.1,9.5,24.6,8.8c3.5-0.8,7.8-0.3,9.2-2.1s-6.2-0.3-8.9-0.3c-2.7,0-11.9-0.8-15.1-1.8
				C13.3,31.6,6.8,28,6.8,28z"/>
			<path class="st6" d="M-3.5,25.7c0,1.8-9.7,12.4-10.3,15.2c-0.5,2.8-0.8,2.6,0.8,1.8s7.8-10,8.4-11.9C-4,29.1-3.5,25.7-3.5,25.7z"
				/>
			<path class="st2" d="M-0.8,27.3c0,1.8,10.5,10.3,15.4,11.3s7,0.8,5.1-0.5s-7.6-1.8-10.5-3.3C6.2,33.2-0.8,27.3-0.8,27.3z"/>
			<path class="st6" d="M-0.2,43.2c0,5.2,2.4,25,3.5,28.3s2.2,6.2,1.9,3.3C4.9,72,1.7,57.5,1.4,54.7C1.1,52,0,44,0,44L-0.2,43.2z"/>
			<path class="st6" d="M20.6,40.1c2.4,2.3,14.1,11.1,18.1,12.6c4.1,1.5,10.3,1.8,5.7,0.3s-7.3-2.8-10.3-4.4
				C31.1,47.1,20.6,40.1,20.6,40.1z"/>
			<path class="st2" d="M2.2,27.1c1.9,1.9,7.1,4.9,10.4,4c3.2-0.9,4.5-5.3,5.2-3.1c0.6,2.2-2.3,6.5-6.8,5.3
				C6.4,32.1,2.2,27.1,2.2,27.1z"/>
			<path class="st2" d="M-2.7,32.4c0,2.3,3.2,13.4,6.8,13.4c3.5,0,2.4-0.8,0.8-1.5c-1.6-0.8-3.5-3.1-5.1-6.2
				C-1.9,35-2.7,32.4-2.7,32.4z"/>
			<path class="st5" d="M-4,40.9c-0.5,2.8-2.4,7.2-5.1,7.5s-4.6-0.8-2.4-1C-9.4,47.1-4,40.9-4,40.9z"/>
			<path class="st5" d="M-6.5,24.9c0,0-6.7,7-13.2,6.7c-6.2-0.3-13.5-3.1-11.6-3.6c1.9-0.5,12.7,1.8,15.7,1
				C-12.7,28.3-6.5,24.9-6.5,24.9z"/>
			<path class="st3" d="M25.3-6.4c1.6-4.5,4.3-11.7,3.5-17.3s-0.3-13.1,1.1-13.1s-0.3,4.5,0,11.7c0.3,7.3,0,10.1-1.4,12.9
				C27.2-9.5,25.3-6.4,25.3-6.4z"/>
			<path class="st4" d="M-23.3-13.4c-1.6-2.8-3.2-15.1-3.2-19.6s-1.3-8.4-1.3-6.2s-1.6,6.4,0.5,15.7C-25.2-14.3-23.3-13.4-23.3-13.4
				z"/>
			<path class="st2" d="M-1.1,24.6c0.3,1.4,4.6,5.6,7,6.4s2.7,2.5,0.3,2c-2.4-0.6-4.6-2.5-5.9-4.8C-1.1,26-1.1,24.6-1.1,24.6z"/>
			<path class="st2" d="M-4.8,25.1c-1.6,0.6-9.5-1.1-11.3-3.1c-1.9-2-5.4-3.9-3.2-4.2c2.2-0.3,4.9,3.1,7,4.5
				C-10.2,23.7-4.8,25.1-4.8,25.1z"/>
		</g>
	</g>
</symbol>
<circle class="st8" cx="142.9" cy="143.8" r="140.6"/>
<g>
	
		<linearGradient id="SVGID_1_" gradientUnits="userSpaceOnUse" x1="2.9" y1="143.4167" x2="280.5" y2="143.4167" gradientTransform="matrix(1 0 0 -1 0 286)">
		<stop  offset="0" style="stop-color:#0037D4"/>
		<stop  offset="0.1508" style="stop-color:#023BD5;stop-opacity:0.9698"/>
		<stop  offset="0.3059" style="stop-color:#0647D6;stop-opacity:0.9388"/>
		<stop  offset="0.4632" style="stop-color:#0E5CDA;stop-opacity:0.9074"/>
		<stop  offset="0.6218" style="stop-color:#1879DE;stop-opacity:0.8756"/>
		<stop  offset="0.7816" style="stop-color:#269EE3;stop-opacity:0.8437"/>
		<stop  offset="0.9403" style="stop-color:#36CBEA;stop-opacity:0.8119"/>
		<stop  offset="1" style="stop-color:#3DDEED;stop-opacity:0.8"/>
	</linearGradient>
	<ellipse class="st9" cx="141.7" cy="142.6" rx="138.8" ry="137.9"/>
	
		<use xlink:href="#Firework"  width="122.9" height="168.8" x="-61.5" y="-84.4" transform="matrix(1.1021 -0.3358 -0.3358 -1.1021 140.8232 99.9298)" style="overflow:visible;"/>
	
		<use xlink:href="#Firework"  width="122.9" height="168.8" x="-61.5" y="-84.4" transform="matrix(0.5123 0.1331 0.1331 -0.5123 193.6833 61.733)" style="overflow:visible;"/>
	
		<use xlink:href="#Firework"  width="122.9" height="168.8" x="-61.5" y="-84.4" transform="matrix(0.6049 0.4731 0.4731 -0.6049 212.1819 122.2184)" style="overflow:visible;"/>
	
		<use xlink:href="#Firework"  width="122.9" height="168.8" x="-61.5" y="-84.4" transform="matrix(-0.6237 0.4481 0.4481 0.6237 70.2284 187.9777)" style="overflow:visible;"/>
	
		<use xlink:href="#Firework"  width="122.9" height="168.8" x="-61.5" y="-84.4" transform="matrix(0.5123 0.1331 0.1331 -0.5123 44.6671 121.9088)" style="overflow:visible;"/>
	
		<use xlink:href="#Firework"  width="122.9" height="168.8" x="-61.5" y="-84.4" transform="matrix(-1.0053 0.5629 0.5629 1.0053 155.6382 173.9207)" style="overflow:visible;"/>
</g>
</svg>
