<?xml version="1.0" encoding="utf-8"?>
<!-- Generator: Adobe Illustrator 22.0.1, SVG Export Plug-In . SVG Version: 6.00 Build 0)  -->
<svg version="1.1" id="Layer_1" xmlns="http://www.w3.org/2000/svg" xmlns:xlink="http://www.w3.org/1999/xlink" x="0px" y="0px"
	 viewBox="0 0 283.5 283.7" style="enable-background:new 0 0 283.5 283.7;" xml:space="preserve">
<style type="text/css">
	.st0{fill:#009F4D;}
	.st1{fill:#116025;}
	.st2{fill:#195026;}
	.st3{fill:#ACD06C;}
	.st4{fill:#ABCA57;}
	.st5{fill:#227531;}
	.st6{fill:#008047;}
	.st7{fill:#C9DAAA;}
	.st8{fill:#43773A;stroke:#231F20;stroke-linecap:round;stroke-miterlimit:10;}
</style>
<symbol  id="Grass_7" viewBox="-54.4 -37.7 108.8 75.4">
	<g>
		<g>
			<g>
				<g>
					<path class="st0" d="M-31.9,25.3c0,0,6.5-1,6.9-6.2C-24,20.4-24,27-31.9,25.3z"/>
					<path class="st1" d="M-20.3,19.7c0,0,6.3-2.4,8.2-5.3C-15.5,15.1-18.9,17.3-20.3,19.7z"/>
					<path class="st2" d="M18.3-16.1c0,0-4.3,4-7,1.8C13.2-15.4,16.2-17.1,18.3-16.1z"/>
					<path class="st1" d="M-34.9,31.4c0,0-0.8-4.7-3.6-6.8C-38,28-37.2,29.8-34.9,31.4z"/>
					<path class="st1" d="M-40.3-5.7c0,0-5.2,1.2-7.6,4.8C-44.1-1.6-42.1-2.6-40.3-5.7z"/>
					<path class="st2" d="M-42.8-20.7c0,0,3.6,4.6,1.3,7.2C-42.5-15.6-44-18.7-42.8-20.7z"/>
					<path class="st1" d="M-16.9-11.1c0,0,1.4-6.6,0-9.8C-18.1-17.6-18.1-13.6-16.9-11.1z"/>
					<path class="st3" d="M-46-9.9c0,0-3.4-5.7-8.4-3.9C-53.6-15.3-47.6-17.8-46-9.9z"/>
					<path class="st3" d="M-6.3-30.8c0,0-6.6,0.2-7.5,5.4C-14.7-26.8-13.9-33.3-6.3-30.8z"/>
					<path class="st3" d="M-29.1,0.9c0,0-3.4-5.6-8.4-3.9C-36.6-4.5-30.6-7-29.1,0.9z"/>
					<path class="st3" d="M33.6,16c0,0-2.5-5.9-1.6-10.8C33.8,7.6,34.5,12.1,33.6,16z"/>
					<path class="st4" d="M-34.4-29.4c0,0,1.4,5.7-1.8,7C-36.3-24.6-36.4-28-34.4-29.4z"/>
					<path class="st3" d="M8.7-15.2c0,0-3.4-5.7-8.4-3.9C1.2-20.6,7.2-23.1,8.7-15.2z"/>
					<path class="st3" d="M8.4-29.5c0,0-1.5-7.7-5.4-8.2C2.8-33.9,6-30.9,8.4-29.5z"/>
					<path class="st4" d="M-19.3,32.1c0,0-2.4-5.3,0.5-7.3C-18.3,27-17.6,30.4-19.3,32.1z"/>
					<path class="st4" d="M38-11.9c0,0,1.4,5.7-1.8,7C36.1-7.1,36.1-10.6,38-11.9z"/>
					<path class="st3" d="M26.9-16.1c0,0-1.5-7.7-5.4-8.2C21.3-20.4,24.4-17.5,26.9-16.1z"/>
					<path class="st3" d="M45.8-12c0,0,4-5.1,8.6-6.6C53.2-15.9,49.7-13.2,45.8-12z"/>
					<path class="st3" d="M24.3,3.2c0,0,4-5.1,8.6-6.6C31.7-0.7,28.1,2.1,24.3,3.2z"/>
					<path class="st0" d="M13.3-1.2c0,0-6.6,0.2-7.5,5.4C5,2.8,5.7-3.7,13.3-1.2z"/>
					<path class="st0" d="M-23.4-6.1c0,0-2-3-1-7.9C-22.6-11.5-22.5-10-23.4-6.1z"/>
					<path class="st0" d="M-38.5-8.5c0,0,1.7-5.6,5.2-5.1C-34.4-11.6-36.1-8.6-38.5-8.5z"/>
					<path class="st5" d="M14.6,20.8c0,0-3.2-5.9-6.3-7.5C9.5,16.6,12,19.7,14.6,20.8z"/>
					<path class="st5" d="M-1.4,27.7c0,0,1.3-6.6-0.1-9.8C-2.7,21.1-2.7,25.2-1.4,27.7z"/>
					<path class="st5" d="M-5.8,31.1c0,0-5.3-4.2-8.8-4.4C-12.3,29.3-8.7,31.1-5.8,31.1z"/>
					<path class="st6" d="M3.6,24.4l1.6-2.7l3.1-2C8.3,19.7,7.7,23.4,3.6,24.4z"/>
					<path class="st6" d="M-1.4,37.7l1.5-3.6l2.7-2.9C2.8,31.2,2.8,36.7-1.4,37.7z"/>
					<path class="st5" d="M29.7-4.6c0,0-1.6-4.7-4.7-6.3C26.1-7.7,27.1-5.8,29.7-4.6z"/>
					<path class="st7" d="M5.1-27c0,0-6.2-2.2-9,2.2C-4.1-26.4-1-32.1,5.1-27z"/>
					<path class="st5" d="M-30.8,10.3c0,0-3.2-5.9-6.3-7.5C-36,6-33.4,9.1-30.8,10.3z"/>
					<path class="st6" d="M-18.5-23.6c0,0-3.4-5.7-8.4-3.9C-26-29-20-31.5-18.5-23.6z"/>
					<path class="st6" d="M27.4-30.1c0,0-6.2-2.2-9,2.2C18.2-29.5,21.3-35.3,27.4-30.1z"/>
					<path class="st5" d="M12-22.6c0,0,2-3.2,1.7-6.7C11.5-26.6,11.6-25.4,12-22.6z"/>
					<path class="st5" d="M0.8,3.1c0,0-3.2-5.9-6.3-7.5C-4.4-1.1-1.8,2,0.8,3.1z"/>
					<path class="st5" d="M38.3-16.6c0,0-3.2-5.9-6.3-7.5C33.1-20.9,35.7-17.8,38.3-16.6z"/>
					<path class="st6" d="M-4.8-17.3L-8-19.6l-2.1-3.3C-10.1-22.9-4.7-21.5-4.8-17.3z"/>
					<path class="st6" d="M-44.5,15.1c0,0-3.4-5.6-8.4-3.9C-52,9.8-46,7.3-44.5,15.1z"/>
					<path class="st6" d="M-4.4-8.1l1.5-3.6l2.7-2.9C-0.3-14.7-0.3-9.1-4.4-8.1z"/>
					<path class="st5" d="M-1,7.6c0,0-4.8,0.9-7.7,2.9C-5.2,11-3.2,9.4-1,7.6z"/>
					<path class="st7" d="M18,35.6c0,0,6.3-2.4,8.2-5.3C22.8,31,19.4,33.2,18,35.6z"/>
					<path class="st7" d="M3.3,7.5c0,0,1.2,6.5-2,8C1.1,13.4,1.3,9,3.3,7.5z"/>
					<path class="st7" d="M7.3,32.6L8.7,29l2.7-2.9C11.4,26.1,11.4,31.7,7.3,32.6z"/>
					<path class="st7" d="M-25.9,6.7c0,0,2.2,6.2,7.4,5.5C-19.6,13.5-26,14.7-25.9,6.7z"/>
					<path class="st7" d="M-13.2-7.9c0,0,6.3-2.4,8.2-5.3C-8.3-12.5-11.7-10.3-13.2-7.9z"/>
					<path class="st7" d="M-14,7.7l1.5-3.6l2.7-2.9C-9.9,1.1-9.9,6.7-14,7.7z"/>
					<path class="st7" d="M14.1,14.2c0,0,0.8-6.5-4.1-8.3C11.6,5.4,17.8,7.1,14.1,14.2z"/>
					<path class="st7" d="M3.2-10.5c0,0,9.3,1.4,9.8,4.8C10.9-6.1,4.1-8.2,3.2-10.5z"/>
					<path class="st7" d="M-30.7-16.3c0,0,6.3-2.4,8.2-5.3C-25.9-20.9-29.2-18.7-30.7-16.3z"/>
					<path class="st7" d="M-38.8,15c0,0-0.6-6.7-2.9-9.4C-41.9,9.1-40.7,12.9-38.8,15z"/>
					<path class="st5" d="M-17.8,5.1c0,0-6.9-1.5-6.8-5C-22.5,0.9-18.2,2.7-17.8,5.1z"/>
					<path class="st7" d="M23.8,8.2l-3.1-2.4l-2.1-3.4C18.6,2.5,24,4,23.8,8.2z"/>
					<path class="st0" d="M20.5-1.8c0,0,0.3-6.7-1.6-9.7C18.2-8,18.8-4.1,20.5-1.8z"/>
					<path class="st0" d="M42.5,8.3c0,0-1.5-7.7-5.4-8.2C36.9,4,40,6.9,42.5,8.3z"/>
					<path class="st0" d="M29.8,24.1c0,0,6.5-1,6.9-6.2C37.6,19.2,37.6,25.7,29.8,24.1z"/>
					<path class="st0" d="M-34.1,19c0,0,4.3-1.3,6.2-4.2C-31.3,15.5-32.6,16.6-34.1,19z"/>
					<path class="st0" d="M-12.4,23.7l1.5-3.6l2.7-2.9C-8.3,17.2-8.3,22.8-12.4,23.7z"/>
					<path class="st2" d="M54.2,9.1c0,0-6.5-1-8.4,3.8C45.3,11.5,47.2,5.2,54.2,9.1z"/>
					<path class="st0" d="M-11.2,0c0,0-3.4-5.6-8.4-3.9C-18.8-5.3-12.7-7.8-11.2,0z"/>
					<path class="st1" d="M25.1,11.8c0,0-3.2,3-4.8,7.1C23.9,17.5,24,15.2,25.1,11.8z"/>
					<path class="st2" d="M23.6,24.9c0,0-4.3,4-7,1.8C18.4,25.6,21.4,23.8,23.6,24.9z"/>
				</g>
			</g>
		</g>
	</g>
</symbol>
<use xlink:href="#Grass_7"  width="108.8" height="75.4" x="-54.4" y="-37.7" transform="matrix(1 0 0 -1 126.6482 55.4097)" style="overflow:visible;"/>
<use xlink:href="#Grass_7"  width="108.8" height="75.4" x="-54.4" y="-37.7" transform="matrix(1 0 0 -1 139.6482 142.4097)" style="overflow:visible;"/>
<use xlink:href="#Grass_7"  width="108.8" height="75.4" x="-54.4" y="-37.7" transform="matrix(1 0 0 -1 139.7983 101.0436)" style="overflow:visible;"/>
<use xlink:href="#Grass_7"  width="108.8" height="75.4" x="-54.4" y="-37.7" transform="matrix(1 0 0 -1 139.7983 101.0436)" style="overflow:visible;"/>
<circle class="st8" cx="140.3" cy="142.5" r="140.4"/>
<g>
	
		<use xlink:href="#Grass_7"  width="108.8" height="75.4" x="-54.4" y="-37.7" transform="matrix(1 0 0 -1 99.5738 64.8276)" style="overflow:visible;"/>
	
		<use xlink:href="#Grass_7"  width="108.8" height="75.4" x="-54.4" y="-37.7" transform="matrix(1 0 0 -1 109.9801 98.5253)" style="overflow:visible;"/>
	
		<use xlink:href="#Grass_7"  width="108.8" height="75.4" x="-54.4" y="-37.7" transform="matrix(1 0 0 -1 66.6657 82.5381)" style="overflow:visible;"/>
	
		<use xlink:href="#Grass_7"  width="108.8" height="75.4" x="-54.4" y="-37.7" transform="matrix(1 0 0 -1 79.8158 128.1719)" style="overflow:visible;"/>
</g>
<g>
	
		<use xlink:href="#Grass_7"  width="108.8" height="75.4" x="-54.4" y="-37.7" transform="matrix(1 0 0 -1 92.568 241.7638)" style="overflow:visible;"/>
	
		<use xlink:href="#Grass_7"  width="108.8" height="75.4" x="-54.4" y="-37.7" transform="matrix(1 0 0 -1 109.9801 179.8967)" style="overflow:visible;"/>
	
		<use xlink:href="#Grass_7"  width="108.8" height="75.4" x="-54.4" y="-37.7" transform="matrix(1 0 0 -1 66.6657 163.9095)" style="overflow:visible;"/>
	
		<use xlink:href="#Grass_7"  width="108.8" height="75.4" x="-54.4" y="-37.7" transform="matrix(1 0 0 -1 79.8158 209.5433)" style="overflow:visible;"/>
</g>
<g>
	
		<use xlink:href="#Grass_7"  width="108.8" height="75.4" x="-54.4" y="-37.7" transform="matrix(1 0 0 -1 101.6219 38.5373)" style="overflow:visible;"/>
	
		<use xlink:href="#Grass_7"  width="108.8" height="75.4" x="-54.4" y="-37.7" transform="matrix(1 0 0 -1 169.9626 71.397)" style="overflow:visible;"/>
	
		<use xlink:href="#Grass_7"  width="108.8" height="75.4" x="-54.4" y="-37.7" transform="matrix(1 0 0 -1 150.4626 155.5868)" style="overflow:visible;"/>
	
		<use xlink:href="#Grass_7"  width="108.8" height="75.4" x="-54.4" y="-37.7" transform="matrix(1 0 0 -1 159.4657 215.5094)" style="overflow:visible;"/>
	
		<use xlink:href="#Grass_7"  width="108.8" height="75.4" x="-54.4" y="-37.7" transform="matrix(1 0 0 -1 204.5626 62.997)" style="overflow:visible;"/>
</g>
<use xlink:href="#Grass_7"  width="108.8" height="75.4" x="-54.4" y="-37.7" transform="matrix(1 0 0 -1 43.821 127.3097)" style="overflow:visible;"/>
<use xlink:href="#Grass_7"  width="108.8" height="75.4" x="-54.4" y="-37.7" transform="matrix(1 0 0 -1 201.7671 157.4311)" style="overflow:visible;"/>
<use xlink:href="#Grass_7"  width="108.8" height="75.4" x="-54.4" y="-37.7" transform="matrix(1 0 0 -1 210.1293 108.4573)" style="overflow:visible;"/>
<line class="st8" x1="130" y1="126" x2="130" y2="126"/>
<path class="st8" d="M200.8,150.3"/>
<path class="st8" d="M137.2,86.7"/>
<line class="st8" x1="143.3" y1="92.7" x2="143.2" y2="92.7"/>
<use xlink:href="#Grass_7"  width="108.8" height="75.4" x="-54.4" y="-37.7" transform="matrix(1 0 0 -1 159.7787 255.7638)" style="overflow:visible;"/>
<use xlink:href="#Grass_7"  width="108.8" height="75.4" x="-54.4" y="-37.7" transform="matrix(1 0 0 -1 156.7626 34.5276)" style="overflow:visible;"/>
<use xlink:href="#Grass_7"  width="108.8" height="75.4" x="-54.4" y="-37.7" transform="matrix(1 0 0 -1 217.5626 224.1446)" style="overflow:visible;"/>
<use xlink:href="#Grass_7"  width="108.8" height="75.4" x="-54.4" y="-37.7" transform="matrix(1 0 0 -1 242.8626 173.1967)" style="overflow:visible;"/>
<use xlink:href="#Grass_7"  width="108.8" height="75.4" x="-54.4" y="-37.7" transform="matrix(1 0 0 -1 243.5786 117.0436)" style="overflow:visible;"/>
</svg>
