<?xml version="1.0" encoding="utf-8"?>
<!-- Generator: Adobe Illustrator 22.0.1, SVG Export Plug-In . SVG Version: 6.00 Build 0)  -->
<svg version="1.1" id="Layer_1" xmlns="http://www.w3.org/2000/svg" xmlns:xlink="http://www.w3.org/1999/xlink" x="0px" y="0px"
	 viewBox="0 0 457.9 376.9" style="enable-background:new 0 0 457.9 376.9;" xml:space="preserve">
<style type="text/css">
	.st0{fill:none;}
	.st1{fill:#BD292E;}
	.st2{fill:url(#SVGID_1_);stroke:#1D1D1B;stroke-linecap:round;stroke-miterlimit:10;}
	.st3{stroke:#1D1D1B;stroke-linecap:round;stroke-miterlimit:10;}
	.st4{fill:none;stroke:#1D1D1B;stroke-linecap:round;stroke-miterlimit:10;}
	.st5{fill:#FF0000;}
	.st6{fill:none;stroke:#FF0000;stroke-linecap:round;stroke-miterlimit:10;}
	.st7{fill:#FF0000;stroke:#FF0000;stroke-miterlimit:10;}
	.st8{fill:#FFFFFF;stroke:#666666;stroke-linecap:round;stroke-miterlimit:10;}
	.st9{fill:#666666;}
	.st10{fill:none;stroke:#000000;stroke-linecap:round;stroke-miterlimit:10;}
	.st11{fill:none;stroke:#000000;stroke-miterlimit:10;}
</style>
<symbol  id="Runner" viewBox="-29.6 -29.6 59.3 59.3">
	<g>
		<rect x="-29.6" y="-29.6" class="st0" width="59.3" height="59.3"/>
		<path class="st1" d="M29.6-23.5l-1.4,2.2l-3-2.5c-3,4.4-11,17.7-21.2,21.5C4.8,1.1,4.1,4,4.1,7.4c15.7-1.8,14.7,17.2,14.7,17.2
			C15,9.9,8.6,11.9,4.8,14.9C4,16.2,3,17.4,1.6,18.1L2.1,21c0.3,0,0.6,0.1,0.8,0.2c1.9,0.7,3,3.1,2.4,5.3s-2.7,3.4-4.6,2.7
			c-1.9-0.7-3-3.1-2.4-5.3c0.3-1.2,1.1-2,2-2.5l-0.5-2.5C-17.3,24.9-23,8.1-23,8.1c12.3,10.5,15,5.2,15,5.2c0.2-4-0.7-9.2-1.2-13.3
			c-2.4-3.2-4.8-6.7-5.9-18.5c0,0-10.6,2.3-10.7,2.3l-3.7-5.6l1.9-1.6l2.3,3.7c2.6-2.4,7.8-6.2,13.4-3.4c4.6,2.3,7.3,7.1,8.9,10.5
			c9.9,4.2,27.9-15,28-15.1L29.6-23.5z"/>
	</g>
</symbol>
<linearGradient id="SVGID_1_" gradientUnits="userSpaceOnUse" x1="96.4412" y1="217.25" x2="177.6412" y2="217.25" gradientTransform="matrix(1 0 0 -1 0 378)">
	<stop  offset="0" style="stop-color:#FFFFFF"/>
	<stop  offset="1" style="stop-color:#000000"/>
</linearGradient>
<path class="st2" d="M122.1,289.9c9.8-0.3,19.6,0.5,29.4,0.8c0.6-0.1,1.2-0.2,1.9-0.2c14.4-20.9,24.4-68.6,24.4-124.2
	c0-74.8-18.2-135.5-40.6-135.5S96.6,91.4,96.6,166.3c0,55.3,9.9,102.8,24.2,123.9C121.1,290,121.6,289.9,122.1,289.9z"/>
<circle class="st3" cx="139.9" cy="135.6" r="30.5"/>
<path class="st4" d="M100.4,96.9c8,2.6,20.1,5.6,35.1,5.6c15.3-0.1,27.6-3.3,35.6-6.1"/>
<path class="st4" d="M141.6,288.1c3.3,0,6.6,0.1,9.9,0.1"/>
<path class="st4" d="M119.8,287.9c3.4,0,6.8,0.1,10.3,0.1"/>
<line class="st4" x1="130.1" y1="288" x2="135.8" y2="288.2"/>
<line class="st4" x1="146.6" y1="288.2" x2="152.4" y2="288.4"/>
<line class="st4" x1="135.8" y1="288.2" x2="146.6" y2="288.2"/>
<path class="st4" d="M102.3,96.4c8,2.1,18.8,4,31.6,4c15.6-0.1,28.4-3.1,37.3-5.9"/>
<path class="st5" d="M34.3,345.9c-0.1-9,0.6-38.9,22.3-66.4c17.2-21.8,38.5-30.5,47.7-33.7c0,0,6.2,30.7,13.3,38.5
	c-9.5,1-25.4,4.1-42.1,14.1C49.6,314,38.2,336.8,34.3,345.9"/>
<path class="st5" d="M246,342.7c-0.5-9.4-3.3-39.1-26.5-65.3c-17.8-20.1-40-28.6-49.6-31.6c0,0-8.1,33.3-13.4,39
	c10.6,2.1,27,6.3,42.3,14.9C223.6,313.4,238.5,331.7,246,342.7"/>
<path class="st5" d="M138.2,248.4c-6.1,8.4-18.4,27.5-21.6,55.1c-3.2,27.5,4.3,48.9,8.3,58.4"/>
<path class="st6" d="M137.1,248"/>
<path class="st5" d="M138.2,279.2c-4,7.7-8.2,15.8-11.1,27.6c-5.7,22.8-4.2,42.5-2.2,55C129.4,333.7,133.8,307.3,138.2,279.2z"/>
<path class="st7" d="M138.2,279.2v-30.8V279.2z"/>
<circle class="st8" cx="139.9" cy="135.6" r="23.6"/>
<path class="st7" d="M124.9,361.8"/>
<polygon class="st5" points="138.2,249.4 138.2,279.2 131.8,300.9 127,295.8 "/>
<g>
	<g>
		<path class="st9" d="M139.5,108.9c1.9,0,1.9-3,0-3S137.6,108.9,139.5,108.9L139.5,108.9z"/>
	</g>
</g>
<g>
	<g>
		<path class="st9" d="M150,110.4c1.9,0,1.9-3,0-3S148.1,110.4,150,110.4L150,110.4z"/>
	</g>
</g>
<g>
	<g>
		<path class="st9" d="M158.5,116.4c1.9,0,1.9-3,0-3S156.6,116.4,158.5,116.4L158.5,116.4z"/>
	</g>
</g>
<g>
	<g>
		<path class="st9" d="M164,122.9c1.9,0,1.9-3,0-3S162.1,122.9,164,122.9L164,122.9z"/>
	</g>
</g>
<g>
	<g>
		<path class="st9" d="M167.5,132.4c1.9,0,1.9-3,0-3S165.6,132.4,167.5,132.4L167.5,132.4z"/>
	</g>
</g>
<g>
	<g>
		<path class="st9" d="M167.5,142.9c1.9,0,1.9-3,0-3S165.6,142.9,167.5,142.9L167.5,142.9z"/>
	</g>
</g>
<g>
	<g>
		<path class="st9" d="M164,150.4c1.9,0,1.9-3,0-3S162.1,150.4,164,150.4L164,150.4z"/>
	</g>
</g>
<g>
	<g>
		<path class="st9" d="M158,157.4c1.9,0,1.9-3,0-3S156.1,157.4,158,157.4L158,157.4z"/>
	</g>
</g>
<g>
	<g>
		<path class="st9" d="M151,161.4c1.9,0,1.9-3,0-3S149.1,161.4,151,161.4L151,161.4z"/>
	</g>
</g>
<g>
	<g>
		<path class="st9" d="M143.5,164.4c1.9,0,1.9-3,0-3S141.6,164.4,143.5,164.4L143.5,164.4z"/>
	</g>
</g>
<g>
	<g>
		<path class="st9" d="M133.5,163.4c1.9,0,1.9-3,0-3S131.6,163.4,133.5,163.4L133.5,163.4z"/>
	</g>
</g>
<g>
	<g>
		<path class="st9" d="M125.5,159.4c1.9,0,1.9-3,0-3S123.6,159.4,125.5,159.4L125.5,159.4z"/>
	</g>
</g>
<g>
	<g>
		<path class="st9" d="M119,153.9c1.9,0,1.9-3,0-3S117.1,153.9,119,153.9L119,153.9z"/>
	</g>
</g>
<g>
	<g>
		<path class="st9" d="M114.5,146.9c1.9,0,1.9-3,0-3S112.6,146.9,114.5,146.9L114.5,146.9z"/>
	</g>
</g>
<g>
	<g>
		<path class="st9" d="M112.5,139.4c1.9,0,1.9-3,0-3S110.6,139.4,112.5,139.4L112.5,139.4z"/>
	</g>
</g>
<g>
	<g>
		<path class="st9" d="M113,131.4c1.9,0,1.9-3,0-3S111.1,131.4,113,131.4L113,131.4z"/>
	</g>
</g>
<g>
	<g>
		<path class="st9" d="M116,123.4c1.9,0,1.9-3,0-3S114.1,123.4,116,123.4L116,123.4z"/>
	</g>
</g>
<g>
	<g>
		<path class="st9" d="M120.5,117.4c1.9,0,1.9-3,0-3S118.6,117.4,120.5,117.4L120.5,117.4z"/>
	</g>
</g>
<g>
	<g>
		<path class="st9" d="M126.5,113.4c1.9,0,1.9-3,0-3C124.6,110.4,124.6,113.4,126.5,113.4L126.5,113.4z"/>
	</g>
</g>
<g>
	<g>
		<path class="st9" d="M132.5,109.9c1.9,0,1.9-3,0-3S130.6,109.9,132.5,109.9L132.5,109.9z"/>
	</g>
</g>
<g>
	<g>
		<path d="M267,324.9c-0.4-36.4-0.8-72.7-1.2-109.1c-0.6-57.9-1.3-115.8-1.9-173.7c-0.1-13.2-0.3-26.4-0.4-39.6c0-1.9-3-1.9-3,0
			c0.4,36.4,0.8,72.7,1.2,109.1c0.6,57.9,1.3,115.8,1.9,173.7c0.1,13.2,0.3,26.4,0.4,39.6C264,326.9,267,326.9,267,324.9L267,324.9z
			"/>
	</g>
</g>
<g>
	<g>
		<path d="M315,1.4c0.7,36.8,1.4,73.6,2,110.4c1.1,58.2,2.1,116.4,3.2,174.6c0.2,13.3,0.5,26.7,0.7,40c0,1.9,3,1.9,3,0
			c-0.7-36.8-1.4-73.6-2-110.4c-1.1-58.2-2.1-116.4-3.2-174.6c-0.2-13.3-0.5-26.7-0.7-40C318-0.5,315-0.5,315,1.4L315,1.4z"/>
	</g>
</g>
<line class="st10" x1="262" y1="2.4" x2="316.5" y2="1.4"/>
<line class="st10" x1="265.5" y1="324.9" x2="319.5" y2="266.8"/>
<line class="st10" x1="322.5" y1="326.4" x2="264.9" y2="270.5"/>
<line class="st10" x1="319.5" y1="268.9" x2="264.4" y2="226.5"/>
<line class="st10" x1="264.9" y1="270.5" x2="319.5" y2="227.4"/>
<line class="st10" x1="264.4" y1="226.5" x2="319.5" y2="184"/>
<line class="st10" x1="319.5" y1="227.4" x2="266" y2="184"/>
<line class="st10" x1="319.5" y1="184" x2="267" y2="141.4"/>
<line class="st10" x1="266" y1="184" x2="316.5" y2="137.9"/>
<line class="st10" x1="267" y1="141.4" x2="263.5" y2="137.9"/>
<line class="st10" x1="319" y1="135.6" x2="265.2" y2="102.4"/>
<line class="st10" x1="263.5" y1="137.9" x2="318.3" y2="96.4"/>
<line class="st10" x1="317.6" y1="58.8" x2="263.8" y2="97.4"/>
<line class="st10" x1="318.3" y1="96.4" x2="263.8" y2="58.9"/>
<line class="st10" x1="317.6" y1="58.8" x2="262.3" y2="26"/>
<line class="st10" x1="263.8" y1="58.9" x2="317" y2="26.9"/>
<line class="st10" x1="262.3" y1="26" x2="316.5" y2="1.4"/>
<line class="st10" x1="317" y1="26.9" x2="262" y2="2.4"/>
<line class="st10" x1="263.5" y1="137.9" x2="183" y2="137.9"/>
<line class="st10" x1="203.5" y1="137.9" x2="263.5" y2="155.9"/>
<line class="st10" x1="196.5" y1="137.9" x2="263.5" y2="152.4"/>
<g>
	<g>
		<path d="M263.5,136.4c-25.1,0-50.3,0-75.4,0c-3.7,0-7.3,0-11,0c-1.9,0-1.9,3,0,3c25.1,0,50.3,0,75.4,0c3.7,0,7.3,0,11,0
			C265.4,139.4,265.4,136.4,263.5,136.4L263.5,136.4z"/>
	</g>
</g>
<use xlink:href="#Runner"  width="59.3" height="59.3" x="-29.6" y="-29.6" transform="matrix(-0.483 0 0 -1 381.5023 268.9)" style="overflow:visible;"/>
<path class="st11" d="M381.5,500.7"/>
<polyline class="st10" points="457.9,266.8 457.9,376.9 0,376.9 0,266.8 "/>
<path class="st10" d="M490,463.1"/>
</svg>
