<?xml version="1.0" encoding="utf-8"?>
<!-- Generator: Adobe Illustrator 22.0.1, SVG Export Plug-In . SVG Version: 6.00 Build 0)  -->
<svg version="1.1" id="Layer_1" xmlns="http://www.w3.org/2000/svg" xmlns:xlink="http://www.w3.org/1999/xlink" x="0px" y="0px"
	 viewBox="0 0 265 240" style="enable-background:new 0 0 265 240;" xml:space="preserve">
<style type="text/css">
	.st0{fill:none;}
	.st1{fill:none;stroke:#35A200;stroke-miterlimit:10;}
	.st2{fill:#00A20B;stroke:#35A200;stroke-miterlimit:10;}
	.st3{fill:#35A200;}
</style>
<line class="st0" x1="64" y1="120" x2="42" y2="152.8"/>
<line class="st0" x1="111" y1="216.8" x2="42" y2="152.8"/>
<line class="st1" x1="256" y1="48.8" x2="111" y2="216.8"/>
<line class="st1" x1="220" y1="17.8" x2="256" y2="48.8"/>
<line class="st1" x1="111" y1="216.8" x2="21" y2="142.8"/>
<line class="st1" x1="44" y1="115.8" x2="21" y2="142.8"/>
<line class="st1" x1="111" y1="172.8" x2="44" y2="115.8"/>
<line class="st2" x1="220" y1="17.8" x2="97.6" y2="161.5"/>
<g>
	<g>
		<path class="st3" d="M183,101.8c6.4,0,6.4-10,0-10C176.6,91.8,176.6,101.8,183,101.8L183,101.8z"/>
	</g>
</g>
<g>
	<g>
		<path class="st3" d="M49.5,117.5c-11-3.4-19.7,5.4-25.5,13.7c-3,4.3-5.7,9-5,14.4c0.6,5.4,4.2,9.6,7.9,13.3
			C44.7,176.7,64.4,192.7,85,207c4.9,3.4,9.9,6.9,15.1,10c4.7,2.9,9.9,5.2,15.4,2.9c5.2-2.1,8.9-7.7,12.4-11.8
			c4.9-5.6,9.9-11.3,14.8-16.9c18-20.6,35.8-41.4,53.5-62.3c20.2-23.9,40.2-47.9,60.1-72c4.1-4.9-3-12-7.1-7.1
			c-30,36.5-60.4,72.6-91.2,108.4c-7.9,9.1-15.8,18.2-23.7,27.3c-3.6,4.2-7.3,8.3-10.9,12.5c-1.9,2.2-3.9,4.4-5.8,6.6
			c-1.4,1.6-3.7,5.3-5.9,6c-3.8,1.2-10.6-4.9-13.5-6.8c-4.8-3.2-9.5-6.4-14.2-9.8c-9-6.5-17.7-13.3-26.1-20.4
			c-8.9-7.5-18.5-15.3-26.2-24.1c-4.8-5.5-2.1-9.7,1.8-14.8c3.1-4,7.7-9.4,13.2-7.7C53,129.1,55.7,119.4,49.5,117.5L49.5,117.5z"/>
	</g>
</g>
<g>
	<g>
		<path class="st3" d="M216.4,29.5c2.7-4,15.4,8.1,17.6,9.8c4.6,3.6,12.3,8,12.2,14.6c-0.1,6.4,9.9,6.4,10,0
			c0.1-12.4-12.3-19.5-20.9-26.2c-7.9-6.2-19.7-14.7-27.5-3.3C204.1,29.8,212.8,34.8,216.4,29.5L216.4,29.5z"/>
	</g>
</g>
<g>
	<g>
		<path class="st3" d="M213.5,18.5c-37.3,48.3-76,95.6-115.8,141.8c-4.2,4.9,2.9,12,7.1,7.1c39.8-46.2,78.5-93.5,115.8-141.8
			C224.5,20.6,217.4,13.5,213.5,18.5L213.5,18.5z"/>
	</g>
</g>
<g>
	<g>
		<path class="st3" d="M37.6,124.8c12.2,1.6,21.9,12.1,31.1,19.5c10.6,8.6,21.3,17.1,31.9,25.7c5,4,12.1-3,7.1-7.1
			c-11.7-9.4-23.4-18.8-35-28.2c-9.6-7.8-19.6-17.8-32.4-19.6C34,114.3,31.3,123.9,37.6,124.8L37.6,124.8z"/>
	</g>
</g>
<g>
	<g>
		<path class="st3" d="M219.6,28.8c-0.1-0.1-0.2-0.1-0.3-0.2c-1.7,2.9-3.4,5.8-5,8.6c-0.3-0.3-0.7-0.7-1-1c-0.2-1.3-0.3-2.6-0.5-3.9
			c0,0-2.8,2.7-2.8,2.8c-1.3,1.4-2.6,2.9-3.9,4.3c-3.9,4.3,1,10.3,6.1,7.9c5.7-2.7,11.6-3.6,17.8-3.2c0-3.3,0-6.7,0-10
			c-11.7,1.1-22.3,5.8-30.7,14.1c-3.6,3.5,0.1,9.6,4.9,8.4c10.9-2.9,21.7-5.7,32.6-8.6c-0.9-3.2-1.8-6.4-2.7-9.6
			c-13.5,5.7-27,11.3-40.5,17c-5.7,2.4-3.6,11.8,2.7,9.6c10.5-3.7,21-7.3,31.6-11c-1.6-2.8-3.2-5.6-4.9-8.4
			c-3.3,3.3-6.5,6.5-9.8,9.8c-3.3,3.3,0,10.2,4.9,8.4c5.4-2.1,10.4-4.7,15-8.2c-2.4-1.9-4.9-3.8-7.3-5.6c-0.6,2.5-1.2,5.1-1.9,7.6
			c-1.3,5.2,4.6,7.8,8.4,4.9c2.9-2.3,6.1-3.7,9.7-4.6c-2.1-1.6-4.2-3.2-6.3-4.8c1.1,10.4,16.6,5.6,12.1-3.8
			c-2.1-4.4-8.7-7.1-12.6-9.6c-6-3.8-12.1-7.7-18.1-11.5c-0.8,3.1-1.7,6.2-2.5,9.3c4.2,0,8.2,0.8,11.9,2.9c3.1,1.7,8.2,5.3,8.2,9.3
			c-0.1,3.2-3.1,7.5-4.6,10.3c-2.1,4-4.3,7.9-6.6,11.6c-9.3,14.8-21,28-34.4,39.2c2.8,1.6,5.6,3.2,8.4,4.9
			c6.1-20.1,16.4-38.7,30.2-54.5c-2.8-1.6-5.6-3.2-8.4-4.9c-4.8,13.1-11.8,25.3-20.8,36c2.6,2,5.2,4,7.9,6.1
			c5-10.3,9.9-21.4,12.2-32.7c1.7-8.3-3.7-18.3-13.3-13.2c-15.9,8.5-14.7,31.5-29.4,40.8c2.5,1.4,5,2.9,7.5,4.3
			c-0.8-11.2,2.4-22,9.7-30.6c-2.6-2-5.2-4-7.9-6.1C178,72.1,173,84.4,169.8,97.3c-1,4.2,3.5,7.9,7.3,5.6
			c17.6-10.4,32-25.3,41.9-43.2c3.1-5.7-5.1-10.4-8.6-5c-9.1,13.7-18.2,27.4-28.7,40.1c-5.1,6.2-10.6,12-16.3,17.6
			c-5.3,5.2-10,10.6-12.9,17.4c-2.6,6.2-3.8,13.3-8,18.7c-4.3,5.5-11.3,8.3-17.5,11.1c-13.5,6.2-25.3,14.6-34.8,26.2
			c2.6,2,5.2,4,7.9,6.1c9.7-20.1,25.4-36,40.2-52.5c16.1-17.9,30.1-37.4,44-57c-3-1.3-6.1-2.6-9.1-3.9c-6.7,21.2-17.6,41-32.2,57.9
			c-7.1,8.3-15.1,15.7-23.6,22.5c-7.7,6.2-15.8,14.1-13.1,24.9c0.6,2.5,3.6,4.3,6.2,3.5c32.6-10.7,48.9-41.8,68.7-67.2
			c5.1-6.5,10.6-12.8,16.9-18.3c1.1-1,3.9-2.2,4.7-3.2c-0.5-1.9-0.9-1.9-1.5-0.2c-0.7,0.9-1.5,1.8-2.3,2.6
			c-3.2,3.4-6.4,6.8-9.6,10.1c-14.2,15-28.4,29.9-42.6,44.9c-4.4,4.7,2.6,11.7,7.1,7.1c10.1-10.4,20.3-20.7,30.4-31.1
			c7.3-7.5,13.6-18.8,3.1-26.7c-2.2-1.7-5.5-0.3-6.8,1.8c-13,19.7-26.8,38.8-41.7,57.1c-7.2,8.9-14.6,17.5-22.1,26
			c-2.1,2.3-4.1,4.6-6.2,6.9c-0.7,0.8-2.2,3-3.1,3.4c-0.3,0.1-0.1,0.1-1.1,0.1c-2-0.1-5.4-2.7-7-3.9c-2.2-1.5-4.2-3.4-6-5.3
			c-0.3,2.6-0.7,5.2-1,7.9c5-2.3,10.4-2.9,15.8-1.9c-1.2-2.1-2.3-4.1-3.5-6.2c-0.2,1.2-0.9,1.9-2.1,2c1.3,0.2,2.6,0.3,3.9,0.5
			c-1.7-1.2,1.6-4.1,2.5-4.5c2.6-1.2,6.4-0.6,9.1-0.2c-1.2-1.2-2.3-2.3-3.5-3.5c0.9,2.2-1,3.7-2.5,5.2c-4.5,4.6,2.4,11.5,7.1,7.1
			c2.6-2.5,5.2-5,7.8-7.5c-2.6-0.3-5.2-0.7-7.9-1c0.7,1.8-1.1,4.2-2.9,4.4c1.2,2.8,2.4,5.7,3.5,8.5c17-13.5,30.6-30.9,39.6-50.6
			c-3.1-0.8-6.2-1.7-9.3-2.5c0.5,4.6-6.5,6.7-9.9,8.2c-5.7,2.6-11.5,5.1-17.2,7.7c-5.7,2.6-11.5,5.1-17.2,7.7c-2.2,1-5.1,3-7.6,1.9
			c-1.9-0.8-3.7-3.9-5-5.4c-13.7-17-30-31.5-48.2-43.5c-5.5-3.6-10,4.8-5,8.6c15.4,11.8,30.9,23.5,46.3,35.3
			c1.8,1.4,3.7,2.8,5.5,4.2c1.5,1.2,5,3,5.9,4.7c0.4,0.7,1.3,0.5,0.3,1c-1,0.5-2.1-0.3-3-0.8c-2.1-1.1-3.9-3.2-5.7-4.8
			c-7-6.4-14-12.7-21-19.1c-7.1-6.5-14.1-13.3-21.4-19.5c-5.2-4.4-12.1-7.9-18.6-3.7c-6.6,4.2-4.9,12.2-0.5,17.4
			c5.2,6,12.3,10.3,19.2,14.1c8,4.4,16.1,8.4,23.5,13.6c7.9,5.6,15,12.1,21.4,19.3c0.7-2.8,1.5-5.6,2.2-8.4
			c-6.1,0.9-11.1-4.4-14.7-8.5c-4.4-5-8.1-10.6-12.6-15.5c-9.4-10.6-20.7-19.5-33-26.5c-4.5-2.5-9.1,2.5-6.8,6.8
			C39,167.2,60.6,184.3,85.8,191c6.2,1.7,8.9-8,2.7-9.6c-22.8-6.1-42-21.4-53.1-42.3c-2.3,2.3-4.6,4.6-6.8,6.8
			c14.1,8,26.5,18.7,36.5,31.5c8,10.4,16.8,22.1,31.5,20c4-0.6,4.4-5.9,2.2-8.4c-11.1-12.5-24.3-22.5-39.1-30.3
			c-7.2-3.8-14.8-7.4-21-12.8c-1.3-1.2-3.3-2.6-4.1-4.2c-1.2-2.4,0.2-2.3,2.2-1.4c4.2,1.9,7.9,6.7,11.3,9.7
			c7.2,6.6,14.5,13.2,21.7,19.8c3.4,3.1,6.7,6.2,10.1,9.2c3.3,3,6.6,6.6,10.6,8.7c5.7,3.1,13.9,2.2,17-4.2c3.6-7.7-4-13.1-9.3-17.2
			c-17.8-13.6-35.6-27.1-53.4-40.7c-1.7,2.9-3.4,5.8-5,8.6c11.2,7.4,21.6,15.8,31.1,25.3c4.7,4.7,9.2,9.6,13.4,14.7
			c3.5,4.2,6.7,9.2,12.3,10.5c5.8,1.3,11.6-2.3,16.7-4.6c7.2-3.2,14.5-6.5,21.7-9.7c8.8-4,26.1-8.7,24.8-21.3
			c-0.4-4.3-7-7.5-9.3-2.5c-8.7,19.1-21.6,35.6-38,48.6c-3.3,2.7-0.6,8.9,3.5,8.5c9.9-0.8,15.3-10.5,11.5-19.4c-1.3-3.1-5.8-3-7.9-1
			c-2.6,2.5-5.2,5-7.8,7.5c2.4,2.4,4.7,4.7,7.1,7.1c4-4.1,10.3-15.3,1.6-18.4c-6.2-2.2-15.8-1-20.5,3.9c-4.2,4.3-5.5,12-1.4,16.8
			c5.6,6.5,13.6,0.1,15.5-6.3c0.7-2.4-0.9-5.7-3.5-6.2c-8.2-1.6-15.8-0.6-23.5,2.9c-3,1.4-3,5.7-1,7.9c5.7,6,18.9,17.2,27.2,10.2
			c5-4.2,9.2-9.9,13.5-14.8c4.7-5.3,9.3-10.7,13.8-16.1c17.4-20.9,33.6-42.9,48.5-65.6c-2.3,0.6-4.6,1.2-6.8,1.8
			c5,3.7-12.3,18.3-14.5,20.6c-7,7.1-13.9,14.3-20.9,21.4c2.4,2.4,4.7,4.7,7.1,7.1c12.6-13.3,25.2-26.6,37.8-39.8
			c5.8-6.1,12.4-12,17.5-18.7c3.6-4.7,4.5-12.2-1.8-15.2c-5.7-2.7-11.4,1.3-15.6,4.9c-5.9,5.1-11.1,10.8-16,16.9
			c-9.5,11.8-17.6,24.8-27.1,36.6c-10.4,12.8-22.7,24.7-38.7,29.9c2.1,1.2,4.1,2.3,6.2,3.5c-1.3-5.1,3.5-9.3,7-12.3
			c3.9-3.4,8.2-6.5,12.1-10c7.7-6.9,14.7-14.5,21-22.6c12.8-16.5,22.5-35.1,28.8-55c1.8-5.7-6-8.2-9.1-3.9
			c-14.1,19.9-28.3,39.4-44.7,57.5c-14.6,16.1-29.9,32.2-39.5,52c-2.3,4.7,4,10.7,7.9,6.1c10.2-12.5,22.6-19.7,36.9-26.5
			c5.7-2.7,11.3-5.9,15.4-10.8c4.7-5.5,6.6-12.3,9-19c2.7-7.5,7.5-12.8,13.1-18.3c5.7-5.7,11.2-11.6,16.3-17.9
			c10.6-13,19.9-26.8,29.1-40.7c-2.9-1.7-5.8-3.4-8.6-5c-9.1,16.4-22.1,30-38.3,39.6c2.4,1.9,4.9,3.8,7.3,5.6
			c3-12.1,7.6-23.5,13.9-34.2c2.8-4.8-4.1-10.5-7.9-6.1c-9,10.5-13.6,23.8-12.6,37.6c0.3,3.6,4.1,6.5,7.5,4.3
			c11.7-7.4,14.9-20.6,21.5-31.9c1.7-2.9,4.5-5,6.2-7.8c1.2-0.3,1.4-0.8,0.7-1.3c-0.4-0.7-0.5-0.7-0.3,0c0,1.8-0.3,3.2-0.8,4.9
			c-2.6,9.5-6.2,18.7-10.5,27.5c-2.3,4.8,4,10.7,7.9,6.1c10.1-12.1,18-25.6,23.4-40.5c1.7-4.7-5.1-8.6-8.4-4.9
			c-15,17.2-26.1,37.1-32.8,59c-1.6,5.1,4.8,7.9,8.4,4.9c17-14.2,31.4-31.7,41.8-51.4c4.6-8.7,10-17.7,3-26.8
			c-6.2-8.1-16.3-12.3-26.3-12.3c-5.1,0-6.6,6.7-2.5,9.3c4.7,3,9.3,5.9,14,8.9c2.2,1.4,4.4,2.8,6.6,4.2c1.3,0.8,6,2.9,6.2,4.4
			c0.2-1.3,0.3-2.6,0.5-3.9c1.3-0.3,2.6-0.6,4-1c0.8,1.4,1.7,2.9,2.5,4.3c0-0.2,0-0.4-0.1-0.6c-0.4-3.2-2.9-5.7-6.3-4.8
			c-5.3,1.4-9.8,3.8-14.1,7.2c2.8,1.6,5.6,3.2,8.4,4.9c0.6-2.5,1.2-5.1,1.9-7.6c0.9-3.8-3.6-8.4-7.3-5.6c-3.9,2.9-8.1,5.4-12.6,7.2
			c1.6,2.8,3.2,5.6,4.9,8.4c3.3-3.3,6.5-6.5,9.8-9.8c3.4-3.4,0-10-4.9-8.4c-10.5,3.7-21,7.3-31.6,11c0.9,3.2,1.8,6.4,2.7,9.6
			c13.5-5.7,27-11.3,40.5-17c5.7-2.4,3.8-11.3-2.7-9.6c-10.9,2.9-21.7,5.7-32.6,8.6c1.6,2.8,3.2,5.6,4.9,8.4
			c6.4-6.3,14.6-10.3,23.6-11.2c6.4-0.6,6.5-9.6,0-10c-8.1-0.5-15.6,1.2-22.9,4.6c2,2.6,4,5.2,6.1,7.9c4-4.3,14.6-12.4,6.3-17.9
			c-5.5-3.6-10,4.8-5,8.6c0.1,0.1,0.2,0.1,0.3,0.2C219.6,41.4,224.6,32.7,219.6,28.8L219.6,28.8z"/>
	</g>
</g>
<g>
	<g>
		<path class="st3" d="M227.9,53.4c-3.4,6.6-6.8,13.3-10.2,19.9c-2.9,5.7,5.7,10.8,8.6,5c3.4-6.6,6.8-13.3,10.2-19.9
			C239.5,52.8,230.9,47.7,227.9,53.4L227.9,53.4z"/>
	</g>
</g>
<g>
	<g>
		<path class="st3" d="M211,54.8c6.4,0,6.4-10,0-10C204.6,44.8,204.6,54.8,211,54.8L211,54.8z"/>
	</g>
</g>
<g>
	<g>
		<path class="st3" d="M115,212.8c6.4,0,6.4-10,0-10C108.6,202.8,108.6,212.8,115,212.8L115,212.8z"/>
	</g>
</g>
<g>
	<g>
		<path class="st3" d="M117.9,214.8c8.1-7.4,16.3-14.7,24.4-22.1c4.2-3.8-1.2-10.8-6.1-7.9c-8.4,5.1-16.3,11.1-23.3,18
			c-1.8,1.8-2.7,3.1-5.3,2.3c-1.8-0.6-3.7-1.9-5.3-2.9c-3.9-2.6-7.3-6-9.9-9.9c-2.3,2.3-4.6,4.6-6.8,6.8c5.5,3.5,11,7.1,16.5,10.6
			c5.4,3.5,10.4-5.2,5-8.6c-5.5-3.5-11-7.1-16.5-10.6c-4.1-2.7-9.6,2.7-6.8,6.8c3.2,4.7,7,8.8,11.6,12.2c4,2.9,9.7,6.6,14.9,6.3
			c5.8-0.4,9.7-6,13.6-9.6c5.4-4.9,11.2-9.1,17.4-12.8c-2-2.6-4-5.2-6.1-7.9c-8.1,7.4-16.3,14.7-24.4,22.1
			C106,212,113.1,219.1,117.9,214.8L117.9,214.8z"/>
	</g>
</g>
<g>
	<g>
		<path class="st3" d="M112.3,207c-6.7-2.5-13.1-5.7-19.3-9.3c-5-2.9-9.9,3.7-6.1,7.9c16.6,17.6,45.8-2.5,57.5-16.6
			c4.1-4.9-3-12-7.1-7.1c-5.6,6.8-12.7,11.8-20.3,16c-7,3.9-16.6,7.4-23,0.6c-2,2.6-4,5.2-6.1,7.9c6.9,4.1,14.2,7.5,21.7,10.3
			C115.7,218.9,118.3,209.3,112.3,207L112.3,207z"/>
	</g>
</g>
</svg>
